<svg version="1.1" xmlns="http://www.w3.org/2000/svg" xmlns:xlink="http://www.w3.org/1999/xlink" width="1180.44677734375" height="862"><defs/><g><g transform="translate(-14,-54) scale(1,1)"><rect fill="#C0C0C0" stroke="none" x="111" y="87" width="242" height="250" opacity="0.2"/></g><g transform="translate(-14,-54) scale(1,1)"><rect fill="#ffffff" stroke="none" x="104" y="80" width="242" height="250"/></g><g transform="translate(-14,-54) scale(1,1)"><path fill="none" stroke="#000000" d="M 104 80 L 346 80 L 346 330 L 104 330 L 104 80 Z Z" stroke-miterlimit="10"/></g><g transform="translate(-14,-54) scale(1,1)"><path fill="none" stroke="#000000" d="M 104 105 L 346 105" stroke-miterlimit="10"/></g><g transform="translate(-14,-54) scale(1,1)"><path fill="none" stroke="#000000" d="M 104 143 L 346 143" stroke-miterlimit="10"/></g><g transform="translate(-14,-54) scale(1,1)"><g><path fill="none" stroke="none"/><text fill="#000000" stroke="none" font-family="Arial" font-size="13px" font-style="normal" font-weight="bold" text-decoration="none" x="197.175048828125" y="99.5">Database</text></g></g><g transform="translate(-14,-54) scale(1,1)"><g><path fill="none" stroke="none"/><text fill="#000000" stroke="none" font-family="Arial" font-size="13px" font-style="normal" font-weight="normal" text-decoration="none" x="109" y="122.5">-dbParsed: boolean</text></g></g><g transform="translate(-14,-54) scale(1,1)"><g><path fill="none" stroke="none"/><text fill="#000000" stroke="none" font-family="Arial" font-size="13px" font-style="normal" font-weight="normal" text-decoration="none" x="109" y="137.5">-dbRawDataExist: boolean</text></g></g><g transform="translate(-14,-54) scale(1,1)"><g><path fill="none" stroke="none"/><text fill="#000000" stroke="none" font-family="Arial" font-size="13px" font-style="normal" font-weight="normal" text-decoration="none" x="109" y="160.5">+exportJSON(): JSON</text></g></g><g transform="translate(-14,-54) scale(1,1)"><g><path fill="none" stroke="none"/><text fill="#000000" stroke="none" font-family="Arial" font-size="13px" font-style="normal" font-weight="normal" text-decoration="none" x="109" y="175.5">+setKey(keywords: string): void</text></g></g><g transform="translate(-14,-54) scale(1,1)"><g><path fill="none" stroke="none"/><text fill="#000000" stroke="none" font-family="Arial" font-size="13px" font-style="normal" font-weight="normal" text-decoration="none" x="109" y="190.5">+parseTweets(JSON): void</text></g></g><g transform="translate(-14,-54) scale(1,1)"><g><path fill="none" stroke="none"/><text fill="#000000" stroke="none" font-family="Arial" font-size="13px" font-style="normal" font-weight="normal" text-decoration="none" x="109" y="205.5">+parseUserInfo(JSON): void</text></g></g><g transform="translate(-14,-54) scale(1,1)"><g><path fill="none" stroke="none"/><text fill="#000000" stroke="none" font-family="Arial" font-size="13px" font-style="normal" font-weight="normal" text-decoration="none" x="109" y="220.5">+parse_status(): boolean</text></g></g><g transform="translate(-14,-54) scale(1,1)"><g><path fill="none" stroke="none"/><text fill="#000000" stroke="none" font-family="Arial" font-size="13px" font-style="normal" font-weight="normal" text-decoration="none" x="109" y="235.5">+save_workout(): void</text></g></g><g transform="translate(-14,-54) scale(1,1)"><g><path fill="none" stroke="none"/><text fill="#000000" stroke="none" font-family="Arial" font-size="13px" font-style="normal" font-weight="normal" text-decoration="none" x="109" y="250.5">+save_freq(): void</text></g></g><g transform="translate(-14,-54) scale(1,1)"><g><path fill="none" stroke="none"/><text fill="#000000" stroke="none" font-family="Arial" font-size="13px" font-style="normal" font-weight="normal" text-decoration="none" x="109" y="265.5">+save_correlation(): void</text></g></g><g transform="translate(-14,-54) scale(1,1)"><g><path fill="none" stroke="none"/><text fill="#000000" stroke="none" font-family="Arial" font-size="13px" font-style="normal" font-weight="normal" text-decoration="none" x="109" y="280.5">+save_location(double x, double y): void</text></g></g><g transform="translate(-14,-54) scale(1,1)"><g><path fill="none" stroke="none"/><text fill="#000000" stroke="none" font-family="Arial" font-size="13px" font-style="normal" font-weight="normal" text-decoration="none" x="109" y="295.5">+save_demography(): void</text></g></g><g transform="translate(-14,-54) scale(1,1)"><g><path fill="none" stroke="none"/><text fill="#000000" stroke="none" font-family="Arial" font-size="13px" font-style="normal" font-weight="normal" text-decoration="none" x="109" y="310.5">+save_theme(): void</text></g></g><g transform="translate(-14,-54) scale(1,1)"><g><path fill="none" stroke="none"/><text fill="#000000" stroke="none" font-family="Arial" font-size="13px" font-style="normal" font-weight="normal" text-decoration="none" x="109" y="325.5">+save_time(): void</text></g></g><g transform="translate(-14,-54) scale(1,1)"><rect fill="#C0C0C0" stroke="none" x="111" y="623" width="262.9697265625" height="115" opacity="0.2"/></g><g transform="translate(-14,-54) scale(1,1)"><rect fill="#ffffff" stroke="none" x="104" y="616" width="262.9697265625" height="115"/></g><g transform="translate(-14,-54) scale(1,1)"><path fill="none" stroke="#000000" d="M 104 616 L 366.9697265625 616 L 366.9697265625 731 L 104 731 L 104 616 Z Z" stroke-miterlimit="10"/></g><g transform="translate(-14,-54) scale(1,1)"><path fill="none" stroke="#000000" d="M 104 641 L 366.9697265625 641" stroke-miterlimit="10"/></g><g transform="translate(-14,-54) scale(1,1)"><path fill="none" stroke="#000000" d="M 104 664 L 366.9697265625 664" stroke-miterlimit="10"/></g><g transform="translate(-14,-54) scale(1,1)"><g><path fill="none" stroke="none"/><text fill="#000000" stroke="none" font-family="Arial" font-size="13px" font-style="normal" font-weight="bold" text-decoration="none" x="176.59130859375" y="635.5">Frequence_Analysis</text></g></g><g transform="translate(-14,-54) scale(1,1)"><g><path fill="none" stroke="none"/><text fill="#000000" stroke="none" font-family="Arial" font-size="13px" font-style="normal" font-weight="normal" text-decoration="none" x="109" y="658.5">-status: boolean</text></g></g><g transform="translate(-14,-54) scale(1,1)"><g><path fill="none" stroke="none"/><text fill="#000000" stroke="none" font-family="Arial" font-size="13px" font-style="normal" font-weight="normal" text-decoration="none" x="109" y="681.5">+get_status(): boolean</text></g></g><g transform="translate(-14,-54) scale(1,1)"><g><path fill="none" stroke="none"/><text fill="#000000" stroke="none" font-family="Arial" font-size="13px" font-style="normal" font-weight="normal" text-decoration="none" x="109" y="696.5">+set_tag(tag: string): void</text></g></g><g transform="translate(-14,-54) scale(1,1)"><g><path fill="none" stroke="none"/><text fill="#000000" stroke="none" font-family="Arial" font-size="13px" font-style="normal" font-weight="normal" text-decoration="none" x="109" y="711.5">+freq_state(tag: string, tweets: string): string</text></g></g><g transform="translate(-14,-54) scale(1,1)"><g><path fill="none" stroke="none"/><text fill="#000000" stroke="none" font-family="Arial" font-size="13px" font-style="normal" font-weight="normal" text-decoration="none" x="109" y="726.5">+show_freq(): double</text></g></g><g transform="translate(-14,-54) scale(1,1)"><rect fill="#C0C0C0" stroke="none" x="503" y="623" width="148.81982421875" height="117" opacity="0.2"/></g><g transform="translate(-14,-54) scale(1,1)"><rect fill="#ffffff" stroke="none" x="496" y="616" width="148.81982421875" height="117"/></g><g transform="translate(-14,-54) scale(1,1)"><path fill="none" stroke="#000000" d="M 496 616 L 644.81982421875 616 L 644.81982421875 733 L 496 733 L 496 616 Z Z" stroke-miterlimit="10"/></g><g transform="translate(-14,-54) scale(1,1)"><path fill="none" stroke="#000000" d="M 496 641 L 644.81982421875 641" stroke-miterlimit="10"/></g><g transform="translate(-14,-54) scale(1,1)"><path fill="none" stroke="#000000" d="M 496 651 L 644.81982421875 651" stroke-miterlimit="10"/></g><g transform="translate(-14,-54) scale(1,1)"><g><path fill="none" stroke="none"/><text fill="#000000" stroke="none" font-family="Arial" font-size="13px" font-style="normal" font-weight="bold" text-decoration="none" x="545.120849609375" y="635.5">Analyzer</text></g></g><g transform="translate(-14,-54) scale(1,1)"><g><path fill="none" stroke="none"/><text fill="#000000" stroke="none" font-family="Arial" font-size="13px" font-style="normal" font-weight="normal" text-decoration="none" x="501" y="668.5">+analyze_Public(): void</text></g></g><g transform="translate(-14,-54) scale(1,1)"><g><path fill="none" stroke="none"/><text fill="#000000" stroke="none" font-family="Arial" font-size="13px" font-style="normal" font-weight="normal" text-decoration="none" x="501" y="683.5">+analyze_Private(): void</text></g></g><g transform="translate(-14,-54) scale(1,1)"><g><path fill="none" stroke="none"/><text fill="#000000" stroke="none" font-family="Arial" font-size="13px" font-style="normal" font-weight="normal" text-decoration="none" x="501" y="698.5">+import_DB(): void</text></g></g><g transform="translate(-14,-54) scale(1,1)"><g><path fill="none" stroke="none"/><text fill="#000000" stroke="none" font-family="Arial" font-size="13px" font-style="normal" font-weight="normal" text-decoration="none" x="501" y="713.5">+data_status(): boolean</text></g></g><g transform="translate(-14,-54) scale(1,1)"><g><path fill="none" stroke="none"/><text fill="#000000" stroke="none" font-family="Arial" font-size="13px" font-style="normal" font-weight="normal" text-decoration="none" x="501" y="728.5">+export_data(): void</text></g></g><g transform="translate(-14,-54) scale(1,1)"><rect fill="#C0C0C0" stroke="none" x="423" y="87" width="162.58154296875" height="205" opacity="0.2"/></g><g transform="translate(-14,-54) scale(1,1)"><rect fill="#ffffff" stroke="none" x="416" y="80" width="162.58154296875" height="205"/></g><g transform="translate(-14,-54) scale(1,1)"><path fill="none" stroke="#000000" d="M 416 80 L 578.58154296875 80 L 578.58154296875 285 L 416 285 L 416 80 Z Z" stroke-miterlimit="10"/></g><g transform="translate(-14,-54) scale(1,1)"><path fill="none" stroke="#000000" d="M 416 105 L 578.58154296875 105" stroke-miterlimit="10"/></g><g transform="translate(-14,-54) scale(1,1)"><path fill="none" stroke="#000000" d="M 416 203 L 578.58154296875 203" stroke-miterlimit="10"/></g><g transform="translate(-14,-54) scale(1,1)"><g><path fill="none" stroke="none"/><text fill="#000000" stroke="none" font-family="Arial" font-size="13px" font-style="normal" font-weight="bold" text-decoration="none" x="454.65673828125" y="99.5">DB_Connector</text></g></g><g transform="translate(-14,-54) scale(1,1)"><g><path fill="none" stroke="none"/><text fill="#000000" stroke="none" font-family="Arial" font-size="13px" font-style="normal" font-weight="normal" text-decoration="none" x="421" y="122.5">-dbStatus: boolean</text></g></g><g transform="translate(-14,-54) scale(1,1)"><g><path fill="none" stroke="none"/><text fill="#000000" stroke="none" font-family="Arial" font-size="13px" font-style="normal" font-weight="normal" text-decoration="none" x="421" y="137.5">-dbHost: string</text></g></g><g transform="translate(-14,-54) scale(1,1)"><g><path fill="none" stroke="none"/><text fill="#000000" stroke="none" font-family="Arial" font-size="13px" font-style="normal" font-weight="normal" text-decoration="none" x="421" y="152.5">-userName: string</text></g></g><g transform="translate(-14,-54) scale(1,1)"><g><path fill="none" stroke="none"/><text fill="#000000" stroke="none" font-family="Arial" font-size="13px" font-style="normal" font-weight="normal" text-decoration="none" x="421" y="167.5">-user_ID: string</text></g></g><g transform="translate(-14,-54) scale(1,1)"><g><path fill="none" stroke="none"/><text fill="#000000" stroke="none" font-family="Arial" font-size="13px" font-style="normal" font-weight="normal" text-decoration="none" x="421" y="182.5">+user_pass: string</text></g></g><g transform="translate(-14,-54) scale(1,1)"><g><path fill="none" stroke="none"/><text fill="#000000" stroke="none" font-family="Arial" font-size="13px" font-style="normal" font-weight="normal" text-decoration="none" x="421" y="197.5">-user_info: string</text></g></g><g transform="translate(-14,-54) scale(1,1)"><g><path fill="none" stroke="none"/><text fill="#000000" stroke="none" font-family="Arial" font-size="13px" font-style="normal" font-weight="normal" text-decoration="none" x="421" y="220.5">+getConnection(): boolean</text></g></g><g transform="translate(-14,-54) scale(1,1)"><g><path fill="none" stroke="none"/><text fill="#000000" stroke="none" font-family="Arial" font-size="13px" font-style="normal" font-weight="normal" text-decoration="none" x="421" y="235.5">+createUser(): void</text></g></g><g transform="translate(-14,-54) scale(1,1)"><g><path fill="none" stroke="none"/><text fill="#000000" stroke="none" font-family="Arial" font-size="13px" font-style="normal" font-weight="normal" text-decoration="none" x="421" y="250.5">+getUserInfo(): void</text></g></g><g transform="translate(-14,-54) scale(1,1)"><g><path fill="none" stroke="none"/><text fill="#000000" stroke="none" font-family="Arial" font-size="13px" font-style="normal" font-weight="normal" text-decoration="none" x="421" y="265.5">+editUserInfo(): void</text></g></g><g transform="translate(-14,-54) scale(1,1)"><g><path fill="none" stroke="none"/><text fill="#000000" stroke="none" font-family="Arial" font-size="13px" font-style="normal" font-weight="normal" text-decoration="none" x="421" y="280.5">+trans_JSON(JSON): void</text></g></g><g transform="translate(-14,-54) scale(1,1)"><rect fill="#C0C0C0" stroke="none" x="959" y="87" width="199" height="175" opacity="0.2"/></g><g transform="translate(-14,-54) scale(1,1)"><rect fill="#ffffff" stroke="none" x="952" y="80" width="199" height="175"/></g><g transform="translate(-14,-54) scale(1,1)"><path fill="none" stroke="#000000" d="M 952 80 L 1151 80 L 1151 255 L 952 255 L 952 80 Z Z" stroke-miterlimit="10"/></g><g transform="translate(-14,-54) scale(1,1)"><path fill="none" stroke="#000000" d="M 952 105 L 1151 105" stroke-miterlimit="10"/></g><g transform="translate(-14,-54) scale(1,1)"><path fill="none" stroke="#000000" d="M 952 173 L 1151 173" stroke-miterlimit="10"/></g><g transform="translate(-14,-54) scale(1,1)"><g><path fill="none" stroke="none"/><text fill="#000000" stroke="none" font-family="Arial" font-size="13px" font-style="normal" font-weight="bold" text-decoration="none" x="1033.44091796875" y="99.5">USER</text></g></g><g transform="translate(-14,-54) scale(1,1)"><g><path fill="none" stroke="none"/><text fill="#000000" stroke="none" font-family="Arial" font-size="13px" font-style="normal" font-weight="normal" text-decoration="none" x="957" y="122.5">-name: string</text></g></g><g transform="translate(-14,-54) scale(1,1)"><g><path fill="none" stroke="none"/><text fill="#000000" stroke="none" font-family="Arial" font-size="13px" font-style="normal" font-weight="normal" text-decoration="none" x="957" y="137.5">-ID: string</text></g></g><g transform="translate(-14,-54) scale(1,1)"><g><path fill="none" stroke="none"/><text fill="#000000" stroke="none" font-family="Arial" font-size="13px" font-style="normal" font-weight="normal" text-decoration="none" x="957" y="152.5">-passwrord: string</text></g></g><g transform="translate(-14,-54) scale(1,1)"><g><path fill="none" stroke="none"/><text fill="#000000" stroke="none" font-family="Arial" font-size="13px" font-style="normal" font-weight="normal" text-decoration="none" x="957" y="167.5">-profile: string</text></g></g><g transform="translate(-14,-54) scale(1,1)"><g><path fill="none" stroke="none"/><text fill="#000000" stroke="none" font-family="Arial" font-size="13px" font-style="normal" font-weight="normal" text-decoration="none" x="957" y="190.5">+getName(): string</text></g></g><g transform="translate(-14,-54) scale(1,1)"><g><path fill="none" stroke="none"/><text fill="#000000" stroke="none" font-family="Arial" font-size="13px" font-style="normal" font-weight="normal" text-decoration="none" x="957" y="205.5">+set_ID(ID: string): void</text></g></g><g transform="translate(-14,-54) scale(1,1)"><g><path fill="none" stroke="none"/><text fill="#000000" stroke="none" font-family="Arial" font-size="13px" font-style="normal" font-weight="normal" text-decoration="none" x="957" y="220.5">+set_pass(string): void</text></g></g><g transform="translate(-14,-54) scale(1,1)"><g><path fill="none" stroke="none"/><text fill="#000000" stroke="none" font-family="Arial" font-size="13px" font-style="normal" font-weight="normal" text-decoration="none" x="957" y="235.5">+create_profile(): void</text></g></g><g transform="translate(-14,-54) scale(1,1)"><g><path fill="none" stroke="none"/><text fill="#000000" stroke="none" font-family="Arial" font-size="13px" font-style="normal" font-weight="normal" text-decoration="none" x="957" y="250.5">+edit_profile(profile: string): void</text></g></g><g transform="translate(-14,-54) scale(1,1)"><rect fill="#C0C0C0" stroke="none" x="127" y="783" width="210.96337890625" height="130" opacity="0.2"/></g><g transform="translate(-14,-54) scale(1,1)"><rect fill="#ffffff" stroke="none" x="120" y="776" width="210.96337890625" height="130"/></g><g transform="translate(-14,-54) scale(1,1)"><path fill="none" stroke="#000000" d="M 120 776 L 330.96337890625 776 L 330.96337890625 906 L 120 906 L 120 776 Z Z" stroke-miterlimit="10"/></g><g transform="translate(-14,-54) scale(1,1)"><path fill="none" stroke="#000000" d="M 120 801 L 330.96337890625 801" stroke-miterlimit="10"/></g><g transform="translate(-14,-54) scale(1,1)"><path fill="none" stroke="#000000" d="M 120 824 L 330.96337890625 824" stroke-miterlimit="10"/></g><g transform="translate(-14,-54) scale(1,1)"><g><path fill="none" stroke="none"/><text fill="#000000" stroke="none" font-family="Arial" font-size="13px" font-style="normal" font-weight="bold" text-decoration="none" x="173.462646484375" y="795.5">Workout_Analysis</text></g></g><g transform="translate(-14,-54) scale(1,1)"><g><path fill="none" stroke="none"/><text fill="#000000" stroke="none" font-family="Arial" font-size="13px" font-style="normal" font-weight="normal" text-decoration="none" x="125" y="818.5">-status: boolean</text></g></g><g transform="translate(-14,-54) scale(1,1)"><g><path fill="none" stroke="none"/><text fill="#000000" stroke="none" font-family="Arial" font-size="13px" font-style="normal" font-weight="normal" text-decoration="none" x="125" y="841.5">+get_status(): boolean</text></g></g><g transform="translate(-14,-54) scale(1,1)"><g><path fill="none" stroke="none"/><text fill="#000000" stroke="none" font-family="Arial" font-size="13px" font-style="normal" font-weight="normal" text-decoration="none" x="125" y="856.5">+get_tweets(): string</text></g></g><g transform="translate(-14,-54) scale(1,1)"><g><path fill="none" stroke="none"/><text fill="#000000" stroke="none" font-family="Arial" font-size="13px" font-style="normal" font-weight="normal" text-decoration="none" x="125" y="871.5">+workout_cal(tweet: string): double</text></g></g><g transform="translate(-14,-54) scale(1,1)"><g><path fill="none" stroke="none"/><text fill="#000000" stroke="none" font-family="Arial" font-size="13px" font-style="normal" font-weight="normal" text-decoration="none" x="125" y="886.5">+get_type(tweet: string): string</text></g></g><g transform="translate(-14,-54) scale(1,1)"><g><path fill="none" stroke="none"/><text fill="#000000" stroke="none" font-family="Arial" font-size="13px" font-style="normal" font-weight="normal" text-decoration="none" x="125" y="901.5">+show_workout(): void</text></g></g><g transform="translate(-14,-54) scale(1,1)"><rect fill="#C0C0C0" stroke="none" x="39" y="375" width="456.6494140625" height="205" opacity="0.2"/></g><g transform="translate(-14,-54) scale(1,1)"><rect fill="#ffffff" stroke="none" x="32" y="368" width="456.6494140625" height="205"/></g><g transform="translate(-14,-54) scale(1,1)"><path fill="none" stroke="#000000" d="M 32 368 L 488.6494140625 368 L 488.6494140625 573 L 32 573 L 32 368 Z Z" stroke-miterlimit="10"/></g><g transform="translate(-14,-54) scale(1,1)"><path fill="none" stroke="#000000" d="M 32 393 L 488.6494140625 393" stroke-miterlimit="10"/></g><g transform="translate(-14,-54) scale(1,1)"><path fill="none" stroke="#000000" d="M 32 446 L 488.6494140625 446" stroke-miterlimit="10"/></g><g transform="translate(-14,-54) scale(1,1)"><g><path fill="none" stroke="none"/><text fill="#000000" stroke="none" font-family="Arial" font-size="13px" font-style="normal" font-weight="bold" text-decoration="none" x="195.29296875" y="387.5">Demography_Analysis</text></g></g><g transform="translate(-14,-54) scale(1,1)"><g><path fill="none" stroke="none"/><text fill="#000000" stroke="none" font-family="Arial" font-size="13px" font-style="normal" font-weight="normal" text-decoration="none" x="37" y="410.5">-demography_age: string</text></g></g><g transform="translate(-14,-54) scale(1,1)"><g><path fill="none" stroke="none"/><text fill="#000000" stroke="none" font-family="Arial" font-size="13px" font-style="normal" font-weight="normal" text-decoration="none" x="37" y="425.5">-demography_gender: string</text></g></g><g transform="translate(-14,-54) scale(1,1)"><g><path fill="none" stroke="none"/><text fill="#000000" stroke="none" font-family="Arial" font-size="13px" font-style="normal" font-weight="normal" text-decoration="none" x="37" y="440.5">-status: boolean</text></g></g><g transform="translate(-14,-54) scale(1,1)"><g><path fill="none" stroke="none"/><text fill="#000000" stroke="none" font-family="Arial" font-size="13px" font-style="normal" font-weight="normal" text-decoration="none" x="37" y="463.5">+access_API(url: string): void</text></g></g><g transform="translate(-14,-54) scale(1,1)"><g><path fill="none" stroke="none"/><text fill="#000000" stroke="none" font-family="Arial" font-size="13px" font-style="normal" font-weight="normal" text-decoration="none" x="37" y="478.5">+get_location(double x, double y): void</text></g></g><g transform="translate(-14,-54) scale(1,1)"><g><path fill="none" stroke="none"/><text fill="#000000" stroke="none" font-family="Arial" font-size="13px" font-style="normal" font-weight="normal" text-decoration="none" x="37" y="493.5">+cal_gender_disribution(name: string, description: string, location): string</text></g></g><g transform="translate(-14,-54) scale(1,1)"><g><path fill="none" stroke="none"/><text fill="#000000" stroke="none" font-family="Arial" font-size="13px" font-style="normal" font-weight="normal" text-decoration="none" x="37" y="508.5">+cal_age_disribution(name: string, description: string, location): string</text></g></g><g transform="translate(-14,-54) scale(1,1)"><g><path fill="none" stroke="none"/><text fill="#000000" stroke="none" font-family="Arial" font-size="13px" font-style="normal" font-weight="normal" text-decoration="none" x="37" y="523.5">+cal_type_disribution(name: string, profile_description: string, location): string</text></g></g><g transform="translate(-14,-54) scale(1,1)"><g><path fill="none" stroke="none"/><text fill="#000000" stroke="none" font-family="Arial" font-size="13px" font-style="normal" font-weight="normal" text-decoration="none" x="37" y="538.5">+show_gender_distribution(): void</text></g></g><g transform="translate(-14,-54) scale(1,1)"><g><path fill="none" stroke="none"/><text fill="#000000" stroke="none" font-family="Arial" font-size="13px" font-style="normal" font-weight="normal" text-decoration="none" x="37" y="553.5">+show_age_distribution(): void</text></g></g><g transform="translate(-14,-54) scale(1,1)"><g><path fill="none" stroke="none"/><text fill="#000000" stroke="none" font-family="Arial" font-size="13px" font-style="normal" font-weight="normal" text-decoration="none" x="37" y="568.5">+show_type_distribution(): void</text></g></g><g transform="translate(-14,-54) scale(1,1)"><rect fill="#C0C0C0" stroke="none" x="455" y="775" width="273.1005859375" height="115" opacity="0.2"/></g><g transform="translate(-14,-54) scale(1,1)"><rect fill="#ffffff" stroke="none" x="448" y="768" width="273.1005859375" height="115"/></g><g transform="translate(-14,-54) scale(1,1)"><path fill="none" stroke="#000000" d="M 448 768 L 721.1005859375 768 L 721.1005859375 883 L 448 883 L 448 768 Z Z" stroke-miterlimit="10"/></g><g transform="translate(-14,-54) scale(1,1)"><path fill="none" stroke="#000000" d="M 448 793 L 721.1005859375 793" stroke-miterlimit="10"/></g><g transform="translate(-14,-54) scale(1,1)"><path fill="none" stroke="#000000" d="M 448 816 L 721.1005859375 816" stroke-miterlimit="10"/></g><g transform="translate(-14,-54) scale(1,1)"><g><path fill="none" stroke="none"/><text fill="#000000" stroke="none" font-family="Arial" font-size="13px" font-style="normal" font-weight="bold" text-decoration="none" x="524.939453125" y="787.5">Correlation_Analysis</text></g></g><g transform="translate(-14,-54) scale(1,1)"><g><path fill="none" stroke="none"/><text fill="#000000" stroke="none" font-family="Arial" font-size="13px" font-style="normal" font-weight="normal" text-decoration="none" x="453" y="810.5">-status: boolean</text></g></g><g transform="translate(-14,-54) scale(1,1)"><g><path fill="none" stroke="none"/><text fill="#000000" stroke="none" font-family="Arial" font-size="13px" font-style="normal" font-weight="normal" text-decoration="none" x="453" y="833.5">+get_status(): boolean</text></g></g><g transform="translate(-14,-54) scale(1,1)"><g><path fill="none" stroke="none"/><text fill="#000000" stroke="none" font-family="Arial" font-size="13px" font-style="normal" font-weight="normal" text-decoration="none" x="453" y="848.5">+get_tag(tag: string): void</text></g></g><g transform="translate(-14,-54) scale(1,1)"><g><path fill="none" stroke="none"/><text fill="#000000" stroke="none" font-family="Arial" font-size="13px" font-style="normal" font-weight="normal" text-decoration="none" x="453" y="863.5">+classify(tweets: string): string</text></g></g><g transform="translate(-14,-54) scale(1,1)"><g><path fill="none" stroke="none"/><text fill="#000000" stroke="none" font-family="Arial" font-size="13px" font-style="normal" font-weight="normal" text-decoration="none" x="453" y="878.5">+correlation(tag: string, tweets: string): double</text></g></g><g transform="translate(-14,-54) scale(1,1)"><rect fill="#C0C0C0" stroke="none" x="815" y="575" width="376.44677734375" height="190" opacity="0.2"/></g><g transform="translate(-14,-54) scale(1,1)"><rect fill="#ffffff" stroke="none" x="808" y="568" width="376.44677734375" height="190"/></g><g transform="translate(-14,-54) scale(1,1)"><path fill="none" stroke="#000000" d="M 808 568 L 1184.44677734375 568 L 1184.44677734375 758 L 808 758 L 808 568 Z Z" stroke-miterlimit="10"/></g><g transform="translate(-14,-54) scale(1,1)"><path fill="none" stroke="#000000" d="M 808 593 L 1184.44677734375 593" stroke-miterlimit="10"/></g><g transform="translate(-14,-54) scale(1,1)"><path fill="none" stroke="#000000" d="M 808 616 L 1184.44677734375 616" stroke-miterlimit="10"/></g><g transform="translate(-14,-54) scale(1,1)"><g><path fill="none" stroke="none"/><text fill="#000000" stroke="none" font-family="Arial" font-size="13px" font-style="normal" font-weight="bold" text-decoration="none" x="942.3857421875" y="587.5">Pattern_Generator</text></g></g><g transform="translate(-14,-54) scale(1,1)"><g><path fill="none" stroke="none"/><text fill="#000000" stroke="none" font-family="Arial" font-size="13px" font-style="normal" font-weight="normal" text-decoration="none" x="813" y="610.5">-status: boolean</text></g></g><g transform="translate(-14,-54) scale(1,1)"><g><path fill="none" stroke="none"/><text fill="#000000" stroke="none" font-family="Arial" font-size="13px" font-style="normal" font-weight="normal" text-decoration="none" x="813" y="633.5">+get_status(): boolean</text></g></g><g transform="translate(-14,-54) scale(1,1)"><g><path fill="none" stroke="none"/><text fill="#000000" stroke="none" font-family="Arial" font-size="13px" font-style="normal" font-weight="normal" text-decoration="none" x="813" y="648.5">+set_tag(tag: string): void</text></g></g><g transform="translate(-14,-54) scale(1,1)"><g><path fill="none" stroke="none"/><text fill="#000000" stroke="none" font-family="Arial" font-size="13px" font-style="normal" font-weight="normal" text-decoration="none" x="813" y="663.5">+countArea(tag: string, location, tweets: string): int</text></g></g><g transform="translate(-14,-54) scale(1,1)"><g><path fill="none" stroke="none"/><text fill="#000000" stroke="none" font-family="Arial" font-size="13px" font-style="normal" font-weight="normal" text-decoration="none" x="813" y="678.5">+countArea_workout(tag: string, location, tweets: string): double</text></g></g><g transform="translate(-14,-54) scale(1,1)"><g><path fill="none" stroke="none"/><text fill="#000000" stroke="none" font-family="Arial" font-size="13px" font-style="normal" font-weight="normal" text-decoration="none" x="813" y="693.5">+Leaderboard_cal(tag: string, tweets: string): void</text></g></g><g transform="translate(-14,-54) scale(1,1)"><g><path fill="none" stroke="none"/><text fill="#000000" stroke="none" font-family="Arial" font-size="13px" font-style="normal" font-weight="normal" text-decoration="none" x="813" y="708.5">+show_tweets(tag: string, tweets: string): void</text></g></g><g transform="translate(-14,-54) scale(1,1)"><g><path fill="none" stroke="none"/><text fill="#000000" stroke="none" font-family="Arial" font-size="13px" font-style="normal" font-weight="normal" text-decoration="none" x="813" y="723.5">+heatmap(tag: string, location, count: int, demography): void</text></g></g><g transform="translate(-14,-54) scale(1,1)"><g><path fill="none" stroke="none"/><text fill="#000000" stroke="none" font-family="Arial" font-size="13px" font-style="normal" font-weight="normal" text-decoration="none" x="813" y="738.5">+showLeaderboard(tag: string, location): void</text></g></g><g transform="translate(-14,-54) scale(1,1)"><g><path fill="none" stroke="none"/><text fill="#000000" stroke="none" font-family="Arial" font-size="13px" font-style="normal" font-weight="normal" text-decoration="none" x="813" y="753.5">+histogram(tag: string, period: time, tweets: string): void</text></g></g><g transform="translate(-14,-54) scale(1,1)"><rect fill="#C0C0C0" stroke="none" x="871" y="375" width="309.21875" height="87" opacity="0.2"/></g><g transform="translate(-14,-54) scale(1,1)"><rect fill="#ffffff" stroke="none" x="864" y="368" width="309.21875" height="87"/></g><g transform="translate(-14,-54) scale(1,1)"><path fill="none" stroke="#000000" d="M 864 368 L 1173.21875 368 L 1173.21875 455 L 864 455 L 864 368 Z Z" stroke-miterlimit="10"/></g><g transform="translate(-14,-54) scale(1,1)"><path fill="none" stroke="#000000" d="M 864 393 L 1173.21875 393" stroke-miterlimit="10"/></g><g transform="translate(-14,-54) scale(1,1)"><path fill="none" stroke="#000000" d="M 864 403 L 1173.21875 403" stroke-miterlimit="10"/></g><g transform="translate(-14,-54) scale(1,1)"><g><path fill="none" stroke="none"/><text fill="#000000" stroke="none" font-family="Arial" font-size="13px" font-style="normal" font-weight="bold" text-decoration="none" x="989.3466796875" y="387.5">Calculator</text></g></g><g transform="translate(-14,-54) scale(1,1)"><g><path fill="none" stroke="none"/><text fill="#000000" stroke="none" font-family="Arial" font-size="13px" font-style="normal" font-weight="normal" text-decoration="none" x="869" y="420.5">+Arithmetic(data: mathtype): void</text></g></g><g transform="translate(-14,-54) scale(1,1)"><g><path fill="none" stroke="none"/><text fill="#000000" stroke="none" font-family="Arial" font-size="13px" font-style="normal" font-weight="normal" text-decoration="none" x="869" y="435.5">+transfer_calorie(workout: time, type: string): double</text></g></g><g transform="translate(-14,-54) scale(1,1)"><g><path fill="none" stroke="none"/><text fill="#000000" stroke="none" font-family="Arial" font-size="13px" font-style="normal" font-weight="normal" text-decoration="none" x="869" y="450.5">+get_input(): void</text></g></g><g transform="translate(-14,-54) scale(1,1)"><rect fill="#C0C0C0" stroke="none" x="535" y="375" width="244.8916015625" height="130" opacity="0.2"/></g><g transform="translate(-14,-54) scale(1,1)"><rect fill="#ffffff" stroke="none" x="528" y="368" width="244.8916015625" height="130"/></g><g transform="translate(-14,-54) scale(1,1)"><path fill="none" stroke="#000000" d="M 528 368 L 772.8916015625 368 L 772.8916015625 498 L 528 498 L 528 368 Z Z" stroke-miterlimit="10"/></g><g transform="translate(-14,-54) scale(1,1)"><path fill="none" stroke="#000000" d="M 528 393 L 772.8916015625 393" stroke-miterlimit="10"/></g><g transform="translate(-14,-54) scale(1,1)"><path fill="none" stroke="#000000" d="M 528 446 L 772.8916015625 446" stroke-miterlimit="10"/></g><g transform="translate(-14,-54) scale(1,1)"><g><path fill="none" stroke="none"/><text fill="#000000" stroke="none" font-family="Arial" font-size="13px" font-style="normal" font-weight="bold" text-decoration="none" x="637.439453125" y="387.5">BBS</text></g></g><g transform="translate(-14,-54) scale(1,1)"><g><path fill="none" stroke="none"/><text fill="#000000" stroke="none" font-family="Arial" font-size="13px" font-style="normal" font-weight="normal" text-decoration="none" x="533" y="410.5">+post: string</text></g></g><g transform="translate(-14,-54) scale(1,1)"><g><path fill="none" stroke="none"/><text fill="#000000" stroke="none" font-family="Arial" font-size="13px" font-style="normal" font-weight="normal" text-decoration="none" x="533" y="425.5">+comments: string</text></g></g><g transform="translate(-14,-54) scale(1,1)"><g><path fill="none" stroke="none"/><text fill="#000000" stroke="none" font-family="Arial" font-size="13px" font-style="normal" font-weight="normal" text-decoration="none" x="533" y="440.5">+relate_user: USERtype</text></g></g><g transform="translate(-14,-54) scale(1,1)"><g><path fill="none" stroke="none"/><text fill="#000000" stroke="none" font-family="Arial" font-size="13px" font-style="normal" font-weight="normal" text-decoration="none" x="533" y="463.5">+send_post(string): void</text></g></g><g transform="translate(-14,-54) scale(1,1)"><g><path fill="none" stroke="none"/><text fill="#000000" stroke="none" font-family="Arial" font-size="13px" font-style="normal" font-weight="normal" text-decoration="none" x="533" y="478.5">+send_comment(string): void</text></g></g><g transform="translate(-14,-54) scale(1,1)"><g><path fill="none" stroke="none"/><text fill="#000000" stroke="none" font-family="Arial" font-size="13px" font-style="normal" font-weight="normal" text-decoration="none" x="533" y="493.5">+store(USERtype, post, comments): void</text></g></g><g transform="translate(-14,-54) scale(1,1)"><path fill="none" stroke="#000000" d="M 408 573 L 408 632 L 496 632" stroke-miterlimit="10"/></g><g transform="translate(-14,-54) scale(1,1)"><path fill="#FFFFFF" stroke="none" d="M 485.83732514237585 636.209517756016 L 496 632 L 485.83732514237585 627.790482243984 L 474 632"/></g><g transform="translate(-14,-54) scale(1,1)"><path fill="none" stroke="#000000" d="M 485.83732514237585 636.209517756016 L 496 632 L 485.83732514237585 627.790482243984 L 474 632 L 485.83732514237585 636.209517756016" stroke-miterlimit="10"/></g><g transform="translate(-14,-54) scale(1,1)"><path fill="none" stroke="#000000" d="M 367 672 L 496 672" stroke-miterlimit="10"/></g><g transform="translate(-14,-54) scale(1,1)"><path fill="#FFFFFF" stroke="none" d="M 485.83732514237585 676.209517756016 L 496 672 L 485.83732514237585 667.790482243984 L 474 672"/></g><g transform="translate(-14,-54) scale(1,1)"><path fill="none" stroke="#000000" d="M 485.83732514237585 676.209517756016 L 496 672 L 485.83732514237585 667.790482243984 L 474 672 L 485.83732514237585 676.209517756016" stroke-miterlimit="10"/></g><g transform="translate(-14,-54) scale(1,1)"><path fill="none" stroke="#000000" d="M 331 789 L 408 789 L 408 712 L 496 712" stroke-miterlimit="10"/></g><g transform="translate(-14,-54) scale(1,1)"><path fill="#FFFFFF" stroke="none" d="M 485.83732514237585 716.209517756016 L 496 712 L 485.83732514237585 707.790482243984 L 474 712"/></g><g transform="translate(-14,-54) scale(1,1)"><path fill="none" stroke="#000000" d="M 485.83732514237585 716.209517756016 L 496 712 L 485.83732514237585 707.790482243984 L 474 712 L 485.83732514237585 716.209517756016" stroke-miterlimit="10"/></g><g transform="translate(-14,-54) scale(1,1)"><path fill="none" stroke="#000000" d="M 575 768 L 575 733" stroke-miterlimit="10"/></g><g transform="translate(-14,-54) scale(1,1)"><path fill="#FFFFFF" stroke="none" d="M 579.209517756016 743.1626748576241 L 575 733 L 570.790482243984 743.1626748576241 L 575 755"/></g><g transform="translate(-14,-54) scale(1,1)"><path fill="none" stroke="#000000" d="M 579.209517756016 743.1626748576241 L 575 733 L 570.790482243984 743.1626748576241 L 575 755 L 579.209517756016 743.1626748576241" stroke-miterlimit="10"/></g><g transform="translate(-14,-54) scale(1,1)"><path fill="none" stroke="#000000" d="M 645 672 L 808 672" stroke-miterlimit="10"/></g><g transform="translate(-14,-54) scale(1,1)"><path fill="none" stroke="#000000" d="M 797.8373251423759 676.209517756016 L 808 672 L 797.8373251423758 667.790482243984" stroke-miterlimit="10"/></g><g transform="translate(-14,-54) scale(1,1)"><path fill="none" stroke="#000000" d="M 376 368 L 376 248 L 416 248" stroke-miterlimit="10"/></g><g transform="translate(-14,-54) scale(1,1)"><path fill="none" stroke="#000000" d="M 104 696 L 24 696 L 24 64 L 488 64 L 488 80" stroke-miterlimit="10"/></g><g transform="translate(-14,-54) scale(1,1)"><path fill="none" stroke="#000000" d="M 331 896 L 792 896 L 792 248 L 579 248" stroke-miterlimit="10"/></g><g transform="translate(-14,-54) scale(1,1)"><path fill="none" stroke="#000000" d="M 721 840 L 784 840 L 784 232 L 579 232" stroke-miterlimit="10"/></g><g transform="translate(-14,-54) scale(1,1)"><path fill="none" stroke="#000000" d="M 1032 455 L 1032 520 L 578 520 L 578 616" stroke-miterlimit="10"/></g><g transform="translate(-14,-54) scale(1,1)"><path fill="none" stroke="#000000" d="M 512 616 L 512 285" stroke-miterlimit="10"/></g><g transform="translate(-14,-54) scale(1,1)"><path fill="none" stroke="#000000" d="M 649 368 L 649 264 L 579 264" stroke-miterlimit="10"/></g><g transform="translate(-14,-54) scale(1,1)"><path fill="none" stroke="#000000" d="M 416 176 L 346 176" stroke-miterlimit="10"/></g><g transform="translate(-14,-54) scale(1,1)"><path fill="none" stroke="#000000" d="M 356.16267485762415 171.790482243984 L 346 176 L 356.16267485762415 180.209517756016" stroke-miterlimit="10"/></g><g transform="translate(-14,-54) scale(1,1)"><path fill="none" stroke="#000000" d="M 773 433 L 800 433 L 800 224 L 952 224" stroke-miterlimit="10"/></g><g transform="translate(-14,-54) scale(1,1)"><path fill="none" stroke="#000000" d="M 1029 255 L 1029 368" stroke-miterlimit="10"/></g><g transform="translate(-14,-54) scale(1,1)"><path fill="none" stroke="#000000" d="M 952 179 L 579 179" stroke-miterlimit="10"/></g><g transform="translate(-14,-54) scale(1,1)"><path fill="none" stroke="#000000" d="M 579 192 L 832 192 L 832 568" stroke-miterlimit="10"/></g><g transform="translate(-14,-54) scale(1,1)"><rect fill="#C0C0C0" stroke="none" x="679" y="71" width="178.42529296875" height="100" opacity="0.2"/></g><g transform="translate(-14,-54) scale(1,1)"><rect fill="#ffffff" stroke="none" x="672" y="64" width="178.42529296875" height="100"/></g><g transform="translate(-14,-54) scale(1,1)"><path fill="none" stroke="#000000" d="M 672 64 L 850.42529296875 64 L 850.42529296875 164 L 672 164 L 672 64 Z Z" stroke-miterlimit="10"/></g><g transform="translate(-14,-54) scale(1,1)"><path fill="none" stroke="#000000" d="M 672 89 L 850.42529296875 89" stroke-miterlimit="10"/></g><g transform="translate(-14,-54) scale(1,1)"><path fill="none" stroke="#000000" d="M 672 112 L 850.42529296875 112" stroke-miterlimit="10"/></g><g transform="translate(-14,-54) scale(1,1)"><g><path fill="none" stroke="none"/><text fill="#000000" stroke="none" font-family="Arial" font-size="13px" font-style="normal" font-weight="bold" text-decoration="none" x="718.219970703125" y="83.5">Data_Collector</text></g></g><g transform="translate(-14,-54) scale(1,1)"><g><path fill="none" stroke="none"/><text fill="#000000" stroke="none" font-family="Arial" font-size="13px" font-style="normal" font-weight="normal" text-decoration="none" x="677" y="106.5">-status: boolean</text></g></g><g transform="translate(-14,-54) scale(1,1)"><g><path fill="none" stroke="none"/><text fill="#000000" stroke="none" font-family="Arial" font-size="13px" font-style="normal" font-weight="normal" text-decoration="none" x="677" y="129.5">+getstatus(): boolean</text></g></g><g transform="translate(-14,-54) scale(1,1)"><g><path fill="none" stroke="none"/><text fill="#000000" stroke="none" font-family="Arial" font-size="13px" font-style="normal" font-weight="normal" text-decoration="none" x="677" y="144.5">+access_API(url: string): void</text></g></g><g transform="translate(-14,-54) scale(1,1)"><g><path fill="none" stroke="none"/><text fill="#000000" stroke="none" font-family="Arial" font-size="13px" font-style="normal" font-weight="normal" text-decoration="none" x="677" y="159.5">+retrieve_tweets(): JSON</text></g></g><g transform="translate(-14,-54) scale(1,1)"><path fill="none" stroke="#000000" d="M 672 152 L 579 152" stroke-miterlimit="10"/></g><g transform="translate(-14,-54) scale(1,1)"><path fill="none" stroke="#000000" d="M 589.1626748576241 147.790482243984 L 579 152 L 589.1626748576241 156.209517756016" stroke-miterlimit="10"/></g></g></svg>