<svg version="1.1" xmlns="http://www.w3.org/2000/svg" xmlns:xlink="http://www.w3.org/1999/xlink" width="950.80810546875" height="734"><defs/><g><g transform="translate(-102,2) scale(1,1)"><path fill="#ffffff" stroke="none" d="M 126.82072727272728 169.68 C 126.82072727272728 164.886167936 130.70656959767274 161 135.5 161 C 140.29343040232726 161 144.17927272727272 164.886167936 144.17927272727272 169.68 C 144.17927272727272 174.47383206400002 140.29343040232726 178.36 135.5 178.36 C 130.70656959767274 178.36 126.82072727272728 174.47383206400002 126.82072727272728 169.68 Z"/></g><g transform="translate(-102,2) scale(1,1)"><path fill="none" stroke="#000000" d="M 126.82072727272728 169.68 C 126.82072727272728 164.886167936 130.70656959767274 161 135.5 161 C 140.29343040232726 161 144.17927272727272 164.886167936 144.17927272727272 169.68 C 144.17927272727272 174.47383206400002 140.29343040232726 178.36 135.5 178.36 C 130.70656959767274 178.36 126.82072727272728 174.47383206400002 126.82072727272728 169.68 Z" stroke-miterlimit="10"/></g><g transform="translate(-102,2) scale(1,1)"><path fill="none" stroke="#000000" d="M 135.5 178.36 L 135.5 195.64" stroke-miterlimit="10"/></g><g transform="translate(-102,2) scale(1,1)"><path fill="none" stroke="#000000" d="M 126.31018181818183 184.84 L 144.68981818181817 184.84" stroke-miterlimit="10"/></g><g transform="translate(-102,2) scale(1,1)"><path fill="none" stroke="#000000" d="M 135.5 195.64 L 122.73636363636365 213" stroke-miterlimit="10"/></g><g transform="translate(-102,2) scale(1,1)"><path fill="none" stroke="#000000" d="M 135.5 195.64 L 148.26363636363635 213" stroke-miterlimit="10"/></g><g transform="translate(-102,2) scale(1,1)"><g><path fill="none" stroke="none"/><text fill="#000000" stroke="none" font-family="Arial" font-size="13px" font-style="normal" font-weight="bold" text-decoration="none" x="121.7763671875" y="233.5">User</text></g></g><g transform="translate(-102,2) scale(1,1)"><path fill="#ffffff" stroke="none" d="M 256.40935031960225 481.68 C 256.40935031960225 476.886167936 260.29519264454774 473 265.088623046875 473 C 269.88205344920226 473 273.76789577414775 476.886167936 273.76789577414775 481.68 C 273.76789577414775 486.473832064 269.88205344920226 490.36 265.088623046875 490.36 C 260.29519264454774 490.36 256.40935031960225 486.473832064 256.40935031960225 481.68 Z"/></g><g transform="translate(-102,2) scale(1,1)"><path fill="none" stroke="#000000" d="M 256.40935031960225 481.68 C 256.40935031960225 476.886167936 260.29519264454774 473 265.088623046875 473 C 269.88205344920226 473 273.76789577414775 476.886167936 273.76789577414775 481.68 C 273.76789577414775 486.473832064 269.88205344920226 490.36 265.088623046875 490.36 C 260.29519264454774 490.36 256.40935031960225 486.473832064 256.40935031960225 481.68 Z" stroke-miterlimit="10"/></g><g transform="translate(-102,2) scale(1,1)"><path fill="none" stroke="#000000" d="M 265.088623046875 490.36 L 265.088623046875 507.64" stroke-miterlimit="10"/></g><g transform="translate(-102,2) scale(1,1)"><path fill="none" stroke="#000000" d="M 255.89880486505683 496.84 L 274.27844122869317 496.84" stroke-miterlimit="10"/></g><g transform="translate(-102,2) scale(1,1)"><path fill="none" stroke="#000000" d="M 265.088623046875 507.64 L 252.32498668323865 525" stroke-miterlimit="10"/></g><g transform="translate(-102,2) scale(1,1)"><path fill="none" stroke="#000000" d="M 265.088623046875 507.64 L 277.85225941051135 525" stroke-miterlimit="10"/></g><g transform="translate(-102,2) scale(1,1)"><g><path fill="none" stroke="none"/><text fill="#000000" stroke="none" font-family="Arial" font-size="13px" font-style="normal" font-weight="bold" text-decoration="none" x="246.66455078125" y="545.5">Admin</text></g></g><g transform="translate(-102,2) scale(1,1)"><path fill="#ffffff" stroke="none" d="M 264.40935031960225 105.68 C 264.40935031960225 100.886167936 268.29519264454774 97 273.088623046875 97 C 277.88205344920226 97 281.76789577414775 100.886167936 281.76789577414775 105.68 C 281.76789577414775 110.473832064 277.88205344920226 114.36 273.088623046875 114.36 C 268.29519264454774 114.36 264.40935031960225 110.473832064 264.40935031960225 105.68 Z"/></g><g transform="translate(-102,2) scale(1,1)"><path fill="none" stroke="#000000" d="M 264.40935031960225 105.68 C 264.40935031960225 100.886167936 268.29519264454774 97 273.088623046875 97 C 277.88205344920226 97 281.76789577414775 100.886167936 281.76789577414775 105.68 C 281.76789577414775 110.473832064 277.88205344920226 114.36 273.088623046875 114.36 C 268.29519264454774 114.36 264.40935031960225 110.473832064 264.40935031960225 105.68 Z" stroke-miterlimit="10"/></g><g transform="translate(-102,2) scale(1,1)"><path fill="none" stroke="#000000" d="M 273.088623046875 114.36 L 273.088623046875 131.64" stroke-miterlimit="10"/></g><g transform="translate(-102,2) scale(1,1)"><path fill="none" stroke="#000000" d="M 263.89880486505683 120.84 L 282.27844122869317 120.84" stroke-miterlimit="10"/></g><g transform="translate(-102,2) scale(1,1)"><path fill="none" stroke="#000000" d="M 273.088623046875 131.64 L 260.32498668323865 149" stroke-miterlimit="10"/></g><g transform="translate(-102,2) scale(1,1)"><path fill="none" stroke="#000000" d="M 273.088623046875 131.64 L 285.85225941051135 149" stroke-miterlimit="10"/></g><g transform="translate(-102,2) scale(1,1)"><g><path fill="none" stroke="none"/><text fill="#000000" stroke="none" font-family="Arial" font-size="13px" font-style="normal" font-weight="bold" text-decoration="none" x="255.746826171875" y="169.5">Guest</text></g></g><g transform="translate(-102,2) scale(1,1)"><path fill="#ffffff" stroke="none" d="M 261.76799289772725 265.68 C 261.76799289772725 260.886167936 265.65383522267274 257 270.447265625 257 C 275.24069602732726 257 279.12653835227275 260.886167936 279.12653835227275 265.68 C 279.12653835227275 270.473832064 275.24069602732726 274.36 270.447265625 274.36 C 265.65383522267274 274.36 261.76799289772725 270.473832064 261.76799289772725 265.68 Z"/></g><g transform="translate(-102,2) scale(1,1)"><path fill="none" stroke="#000000" d="M 261.76799289772725 265.68 C 261.76799289772725 260.886167936 265.65383522267274 257 270.447265625 257 C 275.24069602732726 257 279.12653835227275 260.886167936 279.12653835227275 265.68 C 279.12653835227275 270.473832064 275.24069602732726 274.36 270.447265625 274.36 C 265.65383522267274 274.36 261.76799289772725 270.473832064 261.76799289772725 265.68 Z" stroke-miterlimit="10"/></g><g transform="translate(-102,2) scale(1,1)"><path fill="none" stroke="#000000" d="M 270.447265625 274.36 L 270.447265625 291.64" stroke-miterlimit="10"/></g><g transform="translate(-102,2) scale(1,1)"><path fill="none" stroke="#000000" d="M 261.25744744318183 280.84 L 279.63708380681817 280.84" stroke-miterlimit="10"/></g><g transform="translate(-102,2) scale(1,1)"><path fill="none" stroke="#000000" d="M 270.447265625 291.64 L 257.68362926136365 309" stroke-miterlimit="10"/></g><g transform="translate(-102,2) scale(1,1)"><path fill="none" stroke="#000000" d="M 270.447265625 291.64 L 283.21090198863635 309" stroke-miterlimit="10"/></g><g transform="translate(-102,2) scale(1,1)"><g><path fill="none" stroke="none"/><text fill="#000000" stroke="none" font-family="Arial" font-size="13px" font-style="normal" font-weight="bold" text-decoration="none" x="239.013671875" y="329.5">Login User</text></g></g><g transform="translate(-102,2) scale(1,1)"><path fill="none" stroke="#000000" d="M 231 267 L 160 217" stroke-miterlimit="10"/></g><g transform="translate(-102,2) scale(1,1)"><path fill="#FFFFFF" stroke="none" d="M 181.46562119270342 221.81945088276268 L 160 217 L 171.77061990694529 235.58635270853924"/></g><g transform="translate(-102,2) scale(1,1)"><path fill="none" stroke="#000000" d="M 181.46562119270342 221.81945088276268 L 160 217 L 171.77061990694529 235.58635270853924 L 181.46562119270342 221.81945088276268" stroke-miterlimit="10"/></g><g transform="translate(-102,2) scale(1,1)"><path fill="#C0C0C0" stroke="none" d="M 567 560 C 567 550.6111584 589.6096176 543 617.5 543 C 645.3903824 543 668 550.6111584 668 560 C 668 569.3888416 645.3903824 577 617.5 577 C 589.6096176 577 567 569.3888416 567 560 Z" opacity="0.2"/></g><g transform="translate(-102,2) scale(1,1)"><path fill="#ffffff" stroke="none" d="M 560 553 C 560 543.6111584 582.6096176 536 610.5 536 C 638.3903824 536 661 543.6111584 661 553 C 661 562.3888416 638.3903824 570 610.5 570 C 582.6096176 570 560 562.3888416 560 553 Z"/></g><g transform="translate(-102,2) scale(1,1)"><path fill="none" stroke="#000000" d="M 560 553 C 560 543.6111584 582.6096176 536 610.5 536 C 638.3903824 536 661 543.6111584 661 553 C 661 562.3888416 638.3903824 570 610.5 570 C 582.6096176 570 560 562.3888416 560 553 Z" stroke-miterlimit="10"/></g><g transform="translate(-102,2) scale(1,1)"><g><path fill="none" stroke="none"/><text fill="#000000" stroke="none" font-family="Arial" font-size="13px" font-style="normal" font-weight="bold" text-decoration="none" x="594.595947265625" y="560">Login</text></g></g><g transform="translate(-102,2) scale(1,1)"><path fill="#C0C0C0" stroke="none" d="M 527 336 C 527 326.6111584 570.2045168 319 623.5 319 C 676.7954832 319 720 326.6111584 720 336 C 720 345.3888416 676.7954832 353 623.5 353 C 570.2045168 353 527 345.3888416 527 336 Z" opacity="0.2"/></g><g transform="translate(-102,2) scale(1,1)"><path fill="#ffffff" stroke="none" d="M 520 329 C 520 319.6111584 563.2045168 312 616.5 312 C 669.7954832 312 713 319.6111584 713 329 C 713 338.3888416 669.7954832 346 616.5 346 C 563.2045168 346 520 338.3888416 520 329 Z"/></g><g transform="translate(-102,2) scale(1,1)"><path fill="none" stroke="#000000" d="M 520 329 C 520 319.6111584 563.2045168 312 616.5 312 C 669.7954832 312 713 319.6111584 713 329 C 713 338.3888416 669.7954832 346 616.5 346 C 563.2045168 346 520 338.3888416 520 329 Z" stroke-miterlimit="10"/></g><g transform="translate(-102,2) scale(1,1)"><g><path fill="none" stroke="none"/><text fill="#000000" stroke="none" font-family="Arial" font-size="13px" font-style="normal" font-weight="bold" text-decoration="none" x="556.88916015625" y="336">Edit or Delete Profile</text></g></g><g transform="translate(-102,2) scale(1,1)"><path fill="#ffffff" stroke="none" d="M 1000.7247800071023 169.68 C 1000.7247800071023 164.886167936 1004.6106223320477 161 1009.404052734375 161 C 1014.1974831367023 161 1018.0833254616477 164.886167936 1018.0833254616477 169.68 C 1018.0833254616477 174.47383206400002 1014.1974831367023 178.36 1009.404052734375 178.36 C 1004.6106223320477 178.36 1000.7247800071023 174.47383206400002 1000.7247800071023 169.68 Z"/></g><g transform="translate(-102,2) scale(1,1)"><path fill="none" stroke="#000000" d="M 1000.7247800071023 169.68 C 1000.7247800071023 164.886167936 1004.6106223320477 161 1009.404052734375 161 C 1014.1974831367023 161 1018.0833254616477 164.886167936 1018.0833254616477 169.68 C 1018.0833254616477 174.47383206400002 1014.1974831367023 178.36 1009.404052734375 178.36 C 1004.6106223320477 178.36 1000.7247800071023 174.47383206400002 1000.7247800071023 169.68 Z" stroke-miterlimit="10"/></g><g transform="translate(-102,2) scale(1,1)"><path fill="none" stroke="#000000" d="M 1009.404052734375 178.36 L 1009.404052734375 195.64" stroke-miterlimit="10"/></g><g transform="translate(-102,2) scale(1,1)"><path fill="none" stroke="#000000" d="M 1000.2142345525568 184.84 L 1018.5938709161932 184.84" stroke-miterlimit="10"/></g><g transform="translate(-102,2) scale(1,1)"><path fill="none" stroke="#000000" d="M 1009.404052734375 195.64 L 996.6404163707386 213" stroke-miterlimit="10"/></g><g transform="translate(-102,2) scale(1,1)"><path fill="none" stroke="#000000" d="M 1009.404052734375 195.64 L 1022.1676890980114 213" stroke-miterlimit="10"/></g><g transform="translate(-102,2) scale(1,1)"><g><path fill="none" stroke="none"/><text fill="#000000" stroke="none" font-family="Arial" font-size="13px" font-style="normal" font-weight="bold" text-decoration="none" x="981.5791015625" y="233.5">Database</text></g></g><g transform="translate(-102,2) scale(1,1)"><path fill="#C0C0C0" stroke="none" d="M 567 248 C 567 238.6111584 589.6096176 231 617.5 231 C 645.3903824 231 668 238.6111584 668 248 C 668 257.3888416 645.3903824 265 617.5 265 C 589.6096176 265 567 257.3888416 567 248 Z" opacity="0.2"/></g><g transform="translate(-102,2) scale(1,1)"><path fill="#ffffff" stroke="none" d="M 560 241 C 560 231.6111584 582.6096176 224 610.5 224 C 638.3903824 224 661 231.6111584 661 241 C 661 250.3888416 638.3903824 258 610.5 258 C 582.6096176 258 560 250.3888416 560 241 Z"/></g><g transform="translate(-102,2) scale(1,1)"><path fill="none" stroke="#000000" d="M 560 241 C 560 231.6111584 582.6096176 224 610.5 224 C 638.3903824 224 661 231.6111584 661 241 C 661 250.3888416 638.3903824 258 610.5 258 C 582.6096176 258 560 250.3888416 560 241 Z" stroke-miterlimit="10"/></g><g transform="translate(-102,2) scale(1,1)"><g><path fill="none" stroke="none"/><text fill="#000000" stroke="none" font-family="Arial" font-size="13px" font-style="normal" font-weight="bold" text-decoration="none" x="584.122314453125" y="248">Calendar</text></g></g><g transform="translate(-102,2) scale(1,1)"><path fill="#C0C0C0" stroke="none" d="M 567 144 C 567 134.6111584 590.0573328 127 618.5 127 C 646.9426672 127 670 134.6111584 670 144 C 670 153.3888416 646.9426672 161 618.5 161 C 590.0573328 161 567 153.3888416 567 144 Z" opacity="0.2"/></g><g transform="translate(-102,2) scale(1,1)"><path fill="#ffffff" stroke="none" d="M 560 137 C 560 127.6111584 583.0573328 120 611.5 120 C 639.9426672 120 663 127.6111584 663 137 C 663 146.3888416 639.9426672 154 611.5 154 C 583.0573328 154 560 146.3888416 560 137 Z"/></g><g transform="translate(-102,2) scale(1,1)"><path fill="none" stroke="#000000" d="M 560 137 C 560 127.6111584 583.0573328 120 611.5 120 C 639.9426672 120 663 127.6111584 663 137 C 663 146.3888416 639.9426672 154 611.5 154 C 583.0573328 154 560 146.3888416 560 137 Z" stroke-miterlimit="10"/></g><g transform="translate(-102,2) scale(1,1)"><g><path fill="none" stroke="none"/><text fill="#000000" stroke="none" font-family="Arial" font-size="13px" font-style="normal" font-weight="bold" text-decoration="none" x="582.2373046875" y="144">Calculator</text></g></g><g transform="translate(-102,2) scale(1,1)"><path fill="#C0C0C0" stroke="none" d="M 567 96 C 567 86.6111584 589.6096176 79 617.5 79 C 645.3903824 79 668 86.6111584 668 96 C 668 105.3888416 645.3903824 113 617.5 113 C 589.6096176 113 567 105.3888416 567 96 Z" opacity="0.2"/></g><g transform="translate(-102,2) scale(1,1)"><path fill="#ffffff" stroke="none" d="M 560 89 C 560 79.6111584 582.6096176 72 610.5 72 C 638.3903824 72 661 79.6111584 661 89 C 661 98.3888416 638.3903824 106 610.5 106 C 582.6096176 106 560 98.3888416 560 89 Z"/></g><g transform="translate(-102,2) scale(1,1)"><path fill="none" stroke="#000000" d="M 560 89 C 560 79.6111584 582.6096176 72 610.5 72 C 638.3903824 72 661 79.6111584 661 89 C 661 98.3888416 638.3903824 106 610.5 106 C 582.6096176 106 560 98.3888416 560 89 Z" stroke-miterlimit="10"/></g><g transform="translate(-102,2) scale(1,1)"><g><path fill="none" stroke="none"/><text fill="#000000" stroke="none" font-family="Arial" font-size="13px" font-style="normal" font-weight="bold" text-decoration="none" x="589.1845703125" y="96">Graphs</text></g></g><g transform="translate(-102,2) scale(1,1)"><path fill="#C0C0C0" stroke="none" d="M 551 32 C 551 22.6111584 578.7583424 15 613 15 C 647.2416576 15 675 22.6111584 675 32 C 675 41.3888416 647.2416576 49 613 49 C 578.7583424 49 551 41.3888416 551 32 Z" opacity="0.2"/></g><g transform="translate(-102,2) scale(1,1)"><path fill="#ffffff" stroke="none" d="M 544 25 C 544 15.611158399999999 571.7583424 8 606 8 C 640.2416576 8 668 15.611158399999999 668 25 C 668 34.3888416 640.2416576 42 606 42 C 571.7583424 42 544 34.3888416 544 25 Z"/></g><g transform="translate(-102,2) scale(1,1)"><path fill="none" stroke="#000000" d="M 544 25 C 544 15.611158399999999 571.7583424 8 606 8 C 640.2416576 8 668 15.611158399999999 668 25 C 668 34.3888416 640.2416576 42 606 42 C 571.7583424 42 544 34.3888416 544 25 Z" stroke-miterlimit="10"/></g><g transform="translate(-102,2) scale(1,1)"><g><path fill="none" stroke="none"/><text fill="#000000" stroke="none" font-family="Arial" font-size="13px" font-style="normal" font-weight="bold" text-decoration="none" x="569.135986328125" y="32">Leaderboard</text></g></g><g transform="translate(-102,2) scale(1,1)"><path fill="#C0C0C0" stroke="none" d="M 511 712 C 511 702.6111584 562.487248 695 626 695 C 689.512752 695 741 702.6111584 741 712 C 741 721.3888416 689.512752 729 626 729 C 562.487248 729 511 721.3888416 511 712 Z" opacity="0.2"/></g><g transform="translate(-102,2) scale(1,1)"><path fill="#ffffff" stroke="none" d="M 504 705 C 504 695.6111584 555.487248 688 619 688 C 682.512752 688 734 695.6111584 734 705 C 734 714.3888416 682.512752 722 619 722 C 555.487248 722 504 714.3888416 504 705 Z"/></g><g transform="translate(-102,2) scale(1,1)"><path fill="none" stroke="#000000" d="M 504 705 C 504 695.6111584 555.487248 688 619 688 C 682.512752 688 734 695.6111584 734 705 C 734 714.3888416 682.512752 722 619 722 C 555.487248 722 504 714.3888416 504 705 Z" stroke-miterlimit="10"/></g><g transform="translate(-102,2) scale(1,1)"><g><path fill="none" stroke="none"/><text fill="#000000" stroke="none" font-family="Arial" font-size="13px" font-style="normal" font-weight="bold" text-decoration="none" x="547.484130859375" y="712">Collect Data from Twitter</text></g></g><g transform="translate(-102,2) scale(1,1)"><path fill="#C0C0C0" stroke="none" d="M 567 456 C 567 446.6111584 589.6096176 439 617.5 439 C 645.3903824 439 668 446.6111584 668 456 C 668 465.3888416 645.3903824 473 617.5 473 C 589.6096176 473 567 465.3888416 567 456 Z" opacity="0.2"/></g><g transform="translate(-102,2) scale(1,1)"><path fill="#ffffff" stroke="none" d="M 560 449 C 560 439.6111584 582.6096176 432 610.5 432 C 638.3903824 432 661 439.6111584 661 449 C 661 458.3888416 638.3903824 466 610.5 466 C 582.6096176 466 560 458.3888416 560 449 Z"/></g><g transform="translate(-102,2) scale(1,1)"><path fill="none" stroke="#000000" d="M 560 449 C 560 439.6111584 582.6096176 432 610.5 432 C 638.3903824 432 661 439.6111584 661 449 C 661 458.3888416 638.3903824 466 610.5 466 C 582.6096176 466 560 458.3888416 560 449 Z" stroke-miterlimit="10"/></g><g transform="translate(-102,2) scale(1,1)"><g><path fill="none" stroke="none"/><text fill="#000000" stroke="none" font-family="Arial" font-size="13px" font-style="normal" font-weight="bold" text-decoration="none" x="588.46728515625" y="456">Rigister</text></g></g><g transform="translate(-102,2) scale(1,1)"><path fill="#C0C0C0" stroke="none" d="M 535 624 C 535 614.6111584 570.5933583999999 607 614.5 607 C 658.4066416000001 607 694 614.6111584 694 624 C 694 633.3888416 658.4066416000001 641 614.5 641 C 570.5933583999999 641 535 633.3888416 535 624 Z" opacity="0.2"/></g><g transform="translate(-102,2) scale(1,1)"><path fill="#ffffff" stroke="none" d="M 528 617 C 528 607.6111584 563.5933583999999 600 607.5 600 C 651.4066416000001 600 687 607.6111584 687 617 C 687 626.3888416 651.4066416000001 634 607.5 634 C 563.5933583999999 634 528 626.3888416 528 617 Z"/></g><g transform="translate(-102,2) scale(1,1)"><path fill="none" stroke="#000000" d="M 528 617 C 528 607.6111584 563.5933583999999 600 607.5 600 C 651.4066416000001 600 687 607.6111584 687 617 C 687 626.3888416 651.4066416000001 634 607.5 634 C 563.5933583999999 634 528 626.3888416 528 617 Z" stroke-miterlimit="10"/></g><g transform="translate(-102,2) scale(1,1)"><g><path fill="none" stroke="none"/><text fill="#000000" stroke="none" font-family="Arial" font-size="13px" font-style="normal" font-weight="bold" text-decoration="none" x="559.45458984375" y="624">Collect User Info</text></g></g><g transform="translate(-102,2) scale(1,1)"><path fill="#C0C0C0" stroke="none" d="M 855 504 C 855 494.6111584 893.055792 487 940 487 C 986.944208 487 1025 494.6111584 1025 504 C 1025 513.3888416 986.944208 521 940 521 C 893.055792 521 855 513.3888416 855 504 Z" opacity="0.2"/></g><g transform="translate(-102,2) scale(1,1)"><path fill="#ffffff" stroke="none" d="M 848 497 C 848 487.6111584 886.055792 480 933 480 C 979.944208 480 1018 487.6111584 1018 497 C 1018 506.3888416 979.944208 514 933 514 C 886.055792 514 848 506.3888416 848 497 Z"/></g><g transform="translate(-102,2) scale(1,1)"><path fill="none" stroke="#000000" d="M 848 497 C 848 487.6111584 886.055792 480 933 480 C 979.944208 480 1018 487.6111584 1018 497 C 1018 506.3888416 979.944208 514 933 514 C 886.055792 514 848 506.3888416 848 497 Z" stroke-miterlimit="10"/></g><g transform="translate(-102,2) scale(1,1)"><g><path fill="none" stroke="none"/><text fill="#000000" stroke="none" font-family="Arial" font-size="13px" font-style="normal" font-weight="bold" text-decoration="none" x="881.333251953125" y="504">Authenticate User</text></g></g><g transform="translate(-102,2) scale(1,1)"><path fill="#ffffff" stroke="none" d="M 1001.1266354758523 601.6800000000001 C 1001.1266354758523 596.8861679360001 1005.0124778007977 593 1009.805908203125 593 C 1014.5993386054523 593 1018.4851809303977 596.8861679360001 1018.4851809303977 601.6800000000001 C 1018.4851809303977 606.473832064 1014.5993386054523 610.36 1009.805908203125 610.36 C 1005.0124778007977 610.36 1001.1266354758523 606.473832064 1001.1266354758523 601.6800000000001 Z"/></g><g transform="translate(-102,2) scale(1,1)"><path fill="none" stroke="#000000" d="M 1001.1266354758523 601.6800000000001 C 1001.1266354758523 596.8861679360001 1005.0124778007977 593 1009.805908203125 593 C 1014.5993386054523 593 1018.4851809303977 596.8861679360001 1018.4851809303977 601.6800000000001 C 1018.4851809303977 606.473832064 1014.5993386054523 610.36 1009.805908203125 610.36 C 1005.0124778007977 610.36 1001.1266354758523 606.473832064 1001.1266354758523 601.6800000000001 Z" stroke-miterlimit="10"/></g><g transform="translate(-102,2) scale(1,1)"><path fill="none" stroke="#000000" d="M 1009.805908203125 610.36 L 1009.805908203125 627.64" stroke-miterlimit="10"/></g><g transform="translate(-102,2) scale(1,1)"><path fill="none" stroke="#000000" d="M 1000.6160900213068 616.84 L 1018.9957263849432 616.84" stroke-miterlimit="10"/></g><g transform="translate(-102,2) scale(1,1)"><path fill="none" stroke="#000000" d="M 1009.805908203125 627.64 L 997.0422718394886 645" stroke-miterlimit="10"/></g><g transform="translate(-102,2) scale(1,1)"><path fill="none" stroke="#000000" d="M 1009.805908203125 627.64 L 1022.5695445667614 645" stroke-miterlimit="10"/></g><g transform="translate(-102,2) scale(1,1)"><g><path fill="none" stroke="none"/><text fill="#000000" stroke="none" font-family="Arial" font-size="13px" font-style="normal" font-weight="bold" text-decoration="none" x="990.305908203125" y="665.5">Twitter</text></g></g><g transform="translate(-102,2) scale(1,1)"><path fill="none" stroke="#000000" d="M 299 126 L 552 43" stroke-miterlimit="10"/></g><g transform="translate(-102,2) scale(1,1)"><path fill="none" stroke="#000000" d="M 299 131 L 559 96" stroke-miterlimit="10"/></g><g transform="translate(-102,2) scale(1,1)"><path fill="none" stroke="#000000" d="M 299 135 L 559 137" stroke-miterlimit="10"/></g><g transform="translate(-102,2) scale(1,1)"><path fill="none" stroke="#000000" d="M 299 143 L 559 225" stroke-miterlimit="10"/></g><g transform="translate(-102,2) scale(1,1)"><path fill="none" stroke="#000000" d="M 310 299 L 519 319" stroke-miterlimit="10"/></g><g transform="translate(-102,2) scale(1,1)"><path fill="none" stroke="#000000" d="M 310 263 L 584 43" stroke-miterlimit="10"/></g><g transform="translate(-102,2) scale(1,1)"><path fill="none" stroke="#000000" d="M 310 271 L 580 107" stroke-miterlimit="10"/></g><g transform="translate(-102,2) scale(1,1)"><path fill="none" stroke="#000000" d="M 310 277 L 572 155" stroke-miterlimit="10"/></g><g transform="translate(-102,2) scale(1,1)"><path fill="none" stroke="#000000" d="M 310 289 L 559 249" stroke-miterlimit="10"/></g><g transform="translate(-102,2) scale(1,1)"><path fill="none" stroke="#000000" d="M 299 159 L 591 431" stroke-miterlimit="10"/></g><g transform="translate(-102,2) scale(1,1)"><path fill="none" stroke="#000000" d="M 874 479 L 310 307" stroke-miterlimit="10" stroke-dasharray="3"/></g><g transform="translate(-102,2) scale(1,1)"><path fill="none" stroke="#000000" d="M 320.9486166358617 305.93802365330856 L 310 307 L 318.4927717440349 313.9909103916244" stroke-miterlimit="10"/></g><g transform="translate(-102,2) scale(1,1)"><path fill="none" stroke="#000000" d="M 299 167 L 595 535" stroke-miterlimit="10"/></g><g transform="translate(-102,2) scale(1,1)"><path fill="none" stroke="#000000" d="M 648 43 L 975 184" stroke-miterlimit="10"/></g><g transform="translate(-102,2) scale(1,1)"><path fill="none" stroke="#000000" d="M 662 103 L 975 190" stroke-miterlimit="10"/></g><g transform="translate(-102,2) scale(1,1)"><path fill="none" stroke="#000000" d="M 664 145 L 975 194" stroke-miterlimit="10"/></g><g transform="translate(-102,2) scale(1,1)"><path fill="none" stroke="#000000" d="M 662 236 L 975 203" stroke-miterlimit="10"/></g><g transform="translate(-102,2) scale(1,1)"><path fill="none" stroke="#000000" d="M 670 311 L 975 210" stroke-miterlimit="10"/></g><g transform="translate(-102,2) scale(1,1)"><path fill="none" stroke="#000000" d="M 714 687 L 983 636" stroke-miterlimit="10"/></g><g transform="translate(-102,2) scale(1,1)"><path fill="none" stroke="#000000" d="M 688 620 L 983 630" stroke-miterlimit="10"/></g><g transform="translate(-102,2) scale(1,1)"><path fill="none" stroke="#000000" d="M 291 519 L 549 599" stroke-miterlimit="10"/></g><g transform="translate(-102,2) scale(1,1)"><path fill="none" stroke="#000000" d="M 291 525 L 586 687" stroke-miterlimit="10"/></g><g transform="translate(-102,2) scale(1,1)"><path fill="none" stroke="#000000" d="M 624 599 L 975 234" stroke-miterlimit="10"/></g><g transform="translate(-102,2) scale(1,1)"><path fill="none" stroke="#000000" d="M 633 687 L 977 240" stroke-miterlimit="10"/></g><g transform="translate(-102,2) scale(1,1)"><path fill="none" stroke="#000000" d="M 291 510 L 847 499" stroke-miterlimit="10"/></g><g transform="translate(-102,2) scale(1,1)"><path fill="none" stroke="#000000" d="M 938 479 L 999 240" stroke-miterlimit="10"/></g><g transform="translate(-102,2) scale(1,1)"><path fill="#C0C0C0" stroke="none" d="M 535 192 C 535 182.6111584 572.3842192 175 618.5 175 C 664.6157808 175 702 182.6111584 702 192 C 702 201.3888416 664.6157808 209 618.5 209 C 572.3842192 209 535 201.3888416 535 192 Z" opacity="0.2"/></g><g transform="translate(-102,2) scale(1,1)"><path fill="#ffffff" stroke="none" d="M 528 185 C 528 175.6111584 565.3842192 168 611.5 168 C 657.6157808 168 695 175.6111584 695 185 C 695 194.3888416 657.6157808 202 611.5 202 C 565.3842192 202 528 194.3888416 528 185 Z"/></g><g transform="translate(-102,2) scale(1,1)"><path fill="none" stroke="#000000" d="M 528 185 C 528 175.6111584 565.3842192 168 611.5 168 C 657.6157808 168 695 175.6111584 695 185 C 695 194.3888416 657.6157808 202 611.5 202 C 565.3842192 202 528 194.3888416 528 185 Z" stroke-miterlimit="10"/></g><g transform="translate(-102,2) scale(1,1)"><g><path fill="none" stroke="none"/><text fill="#000000" stroke="none" font-family="Arial" font-size="13px" font-style="normal" font-weight="bold" text-decoration="none" x="559.12548828125" y="192">Real Time Tweets</text></g></g><g transform="translate(-102,2) scale(1,1)"><path fill="none" stroke="#000000" d="M 299 139 L 527 173" stroke-miterlimit="10"/></g><g transform="translate(-102,2) scale(1,1)"><path fill="none" stroke="#000000" d="M 696 188 L 975 198" stroke-miterlimit="10"/></g><g transform="translate(-102,2) scale(1,1)"><path fill="none" stroke="#000000" d="M 310 282 L 555 203" stroke-miterlimit="10"/></g><g transform="translate(-102,2) scale(1,1)"><path fill="none" stroke="#000000" d="M 247 147 L 160 187" stroke-miterlimit="10"/></g><g transform="translate(-102,2) scale(1,1)"><path fill="#FFFFFF" stroke="none" d="M 174.95008686734928 170.8601455192833 L 160 187 L 181.98390835390947 186.15870725255175"/></g><g transform="translate(-102,2) scale(1,1)"><path fill="none" stroke="#000000" d="M 174.95008686734928 170.8601455192833 L 160 187 L 181.98390835390947 186.15870725255175 L 174.95008686734928 170.8601455192833" stroke-miterlimit="10"/></g><g transform="translate(-102,2) scale(1,1)"><path fill="none" stroke="#000000" d="M 662 544 L 847 512" stroke-miterlimit="10" stroke-dasharray="3"/></g><g transform="translate(-102,2) scale(1,1)"><path fill="none" stroke="#000000" d="M 837.7035068673409 517.880069339253 L 847 512 L 836.2685497610097 509.58422356827555" stroke-miterlimit="10"/></g><g transform="translate(-102,2) scale(1,1)"><g><path fill="none" stroke="none"/><text fill="#000000" stroke="none" font-family="Arial" font-size="13px" font-style="normal" font-weight="normal" text-decoration="none" x="752" y="544">«include»</text></g></g><g transform="translate(-102,2) scale(1,1)"><path fill="none" stroke="#000000" d="M 662 457 L 847 484" stroke-miterlimit="10" stroke-dasharray="3"/></g><g transform="translate(-102,2) scale(1,1)"><path fill="none" stroke="#000000" d="M 836.3359380910887 486.6977367556724 L 847 484 L 837.5517815554235 478.36695746300774" stroke-miterlimit="10"/></g><g transform="translate(-102,2) scale(1,1)"><g><path fill="none" stroke="none"/><text fill="#000000" stroke="none" font-family="Arial" font-size="13px" font-style="normal" font-weight="normal" text-decoration="none" x="660" y="477">«include»</text></g></g><g transform="translate(-102,2) scale(1,1)"><g><path fill="none" stroke="none"/><text fill="#000000" stroke="none" font-family="Arial" font-size="13px" font-style="normal" font-weight="normal" text-decoration="none" x="157" y="154">&lt;&lt;include&gt;&gt;</text></g></g><g transform="translate(-102,2) scale(1,1)"><g><path fill="none" stroke="none"/><text fill="#000000" stroke="none" font-family="Arial" font-size="13px" font-style="normal" font-weight="normal" text-decoration="none" x="149" y="266">&lt;&lt;include&gt;&gt;</text></g></g><g transform="translate(-102,2) scale(1,1)"><g><path fill="none" stroke="none"/><text fill="#000000" stroke="none" font-family="Arial" font-size="13px" font-style="normal" font-weight="normal" text-decoration="none" x="797" y="610">&lt;&lt;participate&gt;&gt;</text></g></g><g transform="translate(-102,2) scale(1,1)"><g><path fill="none" stroke="none"/><text fill="#000000" stroke="none" font-family="Arial" font-size="13px" font-style="normal" font-weight="normal" text-decoration="none" x="805" y="690">&lt;&lt;participate&gt;&gt;</text></g></g><g transform="translate(-102,2) scale(1,1)"><g><path fill="none" stroke="none"/><text fill="#000000" stroke="none" font-family="Arial" font-size="13px" font-style="normal" font-weight="normal" text-decoration="none" x="917" y="386">&lt;&lt;participate&gt;&gt;</text></g></g><g transform="translate(-102,2) scale(1,1)"><g><path fill="none" stroke="none"/><text fill="#000000" stroke="none" font-family="Arial" font-size="13px" font-style="normal" font-weight="normal" text-decoration="none" x="373" y="618">&lt;&lt;initiate&gt;&gt;</text></g></g><g transform="translate(-102,2) scale(1,1)"><g><path fill="none" stroke="none"/><text fill="#000000" stroke="none" font-family="Arial" font-size="13px" font-style="normal" font-weight="normal" text-decoration="none" x="445" y="562">&lt;&lt;initiate&gt;&gt;</text></g></g><g transform="translate(-102,2) scale(1,1)"><g><path fill="none" stroke="none"/><text fill="#000000" stroke="none" font-family="Arial" font-size="13px" font-style="normal" font-weight="normal" text-decoration="none" x="437" y="498">&lt;&lt;initiate&gt;&gt;</text></g></g><g transform="translate(-102,2) scale(1,1)"><g><path fill="none" stroke="none"/><text fill="#000000" stroke="none" font-family="Arial" font-size="13px" font-style="normal" font-weight="normal" text-decoration="none" x="373" y="322">&lt;&lt;initiate&gt;&gt;</text></g></g><g transform="translate(-102,2) scale(1,1)"><g><path fill="none" stroke="none"/><text fill="#000000" stroke="none" font-family="Arial" font-size="13px" font-style="normal" font-weight="normal" text-decoration="none" x="461" y="266">&lt;&lt;initiate&gt;&gt;</text></g></g><g transform="translate(-102,2) scale(1,1)"><g><path fill="none" stroke="none"/><text fill="#000000" stroke="none" font-family="Arial" font-size="13px" font-style="normal" font-weight="normal" text-decoration="none" x="429" y="242">&lt;&lt;initiate&gt;&gt;</text></g></g><g transform="translate(-102,2) scale(1,1)"><g><path fill="none" stroke="none"/><text fill="#000000" stroke="none" font-family="Arial" font-size="13px" font-style="normal" font-weight="normal" text-decoration="none" x="405" y="226">&lt;&lt;initiate&gt;&gt;</text></g></g><g transform="translate(-102,2) scale(1,1)"><g><path fill="none" stroke="none"/><text fill="#000000" stroke="none" font-family="Arial" font-size="13px" font-style="normal" font-weight="normal" text-decoration="none" x="389" y="210">&lt;&lt;initiate&gt;&gt;</text></g></g><g transform="translate(-102,2) scale(1,1)"><g><path fill="none" stroke="none"/><text fill="#000000" stroke="none" font-family="Arial" font-size="13px" font-style="normal" font-weight="normal" text-decoration="none" x="365" y="194">&lt;&lt;initiate&gt;&gt;</text></g></g><g transform="translate(-102,2) scale(1,1)"><g><path fill="none" stroke="none"/><text fill="#000000" stroke="none" font-family="Arial" font-size="13px" font-style="normal" font-weight="normal" text-decoration="none" x="325" y="170">&lt;&lt;initiate&gt;&gt;</text></g></g><g transform="translate(-102,2) scale(1,1)"><g><path fill="none" stroke="none"/><text fill="#000000" stroke="none" font-family="Arial" font-size="13px" font-style="normal" font-weight="normal" text-decoration="none" x="365" y="154">&lt;&lt;initiate&gt;&gt;</text></g></g><g transform="translate(-102,2) scale(1,1)"><g><path fill="none" stroke="none"/><text fill="#000000" stroke="none" font-family="Arial" font-size="13px" font-style="normal" font-weight="normal" text-decoration="none" x="389" y="138">&lt;&lt;initiate&gt;&gt;</text></g></g><g transform="translate(-102,2) scale(1,1)"><g><path fill="none" stroke="none"/><text fill="#000000" stroke="none" font-family="Arial" font-size="13px" font-style="normal" font-weight="normal" text-decoration="none" x="405" y="114">&lt;&lt;initiate&gt;&gt;</text></g></g><g transform="translate(-102,2) scale(1,1)"><g><path fill="none" stroke="none"/><text fill="#000000" stroke="none" font-family="Arial" font-size="13px" font-style="normal" font-weight="normal" text-decoration="none" x="405" y="82">&lt;&lt;initiate&gt;&gt;</text></g></g><g transform="translate(-102,2) scale(1,1)"><g><path fill="none" stroke="none"/><text fill="#000000" stroke="none" font-family="Arial" font-size="13px" font-style="normal" font-weight="normal" text-decoration="none" x="533" y="410">&lt;&lt;initiate&gt;&gt;</text></g></g><g transform="translate(-102,2) scale(1,1)"><g><path fill="none" stroke="none"/><text fill="#000000" stroke="none" font-family="Arial" font-size="13px" font-style="normal" font-weight="normal" text-decoration="none" x="477" y="434">&lt;&lt;initiate&gt;&gt;</text></g></g><g transform="translate(-102,2) scale(1,1)"><g><path fill="none" stroke="none"/><text fill="#000000" stroke="none" font-family="Arial" font-size="13px" font-style="normal" font-weight="normal" text-decoration="none" x="733" y="394">&lt;&lt;participate&gt;&gt;</text></g></g><g transform="translate(-102,2) scale(1,1)"><g><path fill="none" stroke="none"/><text fill="#000000" stroke="none" font-family="Arial" font-size="13px" font-style="normal" font-weight="normal" text-decoration="none" x="821" y="426">&lt;&lt;participate&gt;&gt;</text></g></g><g transform="translate(-102,2) scale(1,1)"><g><path fill="none" stroke="none"/><text fill="#000000" stroke="none" font-family="Arial" font-size="13px" font-style="normal" font-weight="normal" text-decoration="none" x="709" y="290">&lt;&lt;participate&gt;&gt;</text></g></g><g transform="translate(-102,2) scale(1,1)"><g><path fill="none" stroke="none"/><text fill="#000000" stroke="none" font-family="Arial" font-size="13px" font-style="normal" font-weight="normal" text-decoration="none" x="709" y="218">&lt;&lt;participate&gt;&gt;</text></g></g><g transform="translate(-102,2) scale(1,1)"><g><path fill="none" stroke="none"/><text fill="#000000" stroke="none" font-family="Arial" font-size="13px" font-style="normal" font-weight="normal" text-decoration="none" x="709" y="186">&lt;&lt;participate&gt;&gt;</text></g></g><g transform="translate(-102,2) scale(1,1)"><g><path fill="none" stroke="none"/><text fill="#000000" stroke="none" font-family="Arial" font-size="13px" font-style="normal" font-weight="normal" text-decoration="none" x="709" y="154">&lt;&lt;participate&gt;&gt;</text></g></g><g transform="translate(-102,2) scale(1,1)"><g><path fill="none" stroke="none"/><text fill="#000000" stroke="none" font-family="Arial" font-size="13px" font-style="normal" font-weight="normal" text-decoration="none" x="709" y="114">&lt;&lt;participate&gt;&gt;</text></g></g><g transform="translate(-102,2) scale(1,1)"><g><path fill="none" stroke="none"/><text fill="#000000" stroke="none" font-family="Arial" font-size="13px" font-style="normal" font-weight="normal" text-decoration="none" x="709" y="74">&lt;&lt;participate&gt;&gt;</text></g></g><g transform="translate(-102,2) scale(1,1)"><g><path fill="none" stroke="none"/><text fill="#000000" stroke="none" font-family="Arial" font-size="13px" font-style="normal" font-weight="normal" text-decoration="none" x="613" y="402">&lt;&lt;dependency&gt;&gt;</text></g></g></g></svg>