<svg version="1.1" xmlns="http://www.w3.org/2000/svg" xmlns:xlink="http://www.w3.org/1999/xlink" width="932" height="671"><defs/><g><g transform="translate(2,5) scale(1,1)"><path fill="none" stroke="#000000" d="M 8 5 L 920 5 L 920 656 L 8 656 L 8 5" stroke-miterlimit="10"/></g><g transform="translate(2,5) scale(1,1)"><path fill="#ffffff" stroke="none" d="M 8 5 L 8 27 L 198.85888671875 27 L 209.85888671875 16 L 209.85888671875 5 L 8 5"/></g><g transform="translate(2,5) scale(1,1)"><path fill="none" stroke="#000000" d="M 8 5 L 8 27 L 198.85888671875 27 L 209.85888671875 16 L 209.85888671875 5 L 8 5 L 8 5" stroke-miterlimit="10"/></g><g transform="translate(2,5) scale(1,1)"><g><path fill="none" stroke="none"/><text fill="#000000" stroke="none" font-family="Arial" font-size="13px" font-style="normal" font-weight="normal" text-decoration="none" x="78.97900390625" y="22.5">Collect_Twitter_Info</text></g></g><g transform="translate(2,5) scale(1,1)"><g><path fill="none" stroke="none"/><text fill="#000000" stroke="none" font-family="Arial" font-size="13px" font-style="normal" font-weight="bold" text-decoration="none" x="13" y="22.5">interaction</text></g></g><g transform="translate(2,5) scale(1,1)"><rect fill="#C0C0C0" stroke="none" x="31" y="47" width="119.41357421875" height="39" opacity="0.2"/></g><g transform="translate(2,5) scale(1,1)"><rect fill="#ffffff" stroke="none" x="24" y="40" width="119.41357421875" height="39"/></g><g transform="translate(2,5) scale(1,1)"><path fill="none" stroke="#000000" d="M 24 40 L 143.41357421875 40 L 143.41357421875 79 L 24 79 L 24 40 Z Z" stroke-miterlimit="10"/></g><g transform="translate(2,5) scale(1,1)"><g><path fill="none" stroke="none"/><text fill="#000000" stroke="none" font-family="Arial" font-size="13px" font-style="normal" font-weight="bold" text-decoration="none" x="38.552734375" y="59.5">twitter_collector</text></g></g><g transform="translate(2,5) scale(1,1)"><path fill="none" stroke="#000000" d="M 84.5 80 L 84.5 512" stroke-miterlimit="10" stroke-dasharray="3"/></g><g transform="translate(2,5) scale(1,1)"><rect fill="#C0C0C0" stroke="none" x="183" y="47" width="159.8544921875" height="39" opacity="0.2"/></g><g transform="translate(2,5) scale(1,1)"><rect fill="#ffffff" stroke="none" x="176" y="40" width="159.8544921875" height="39"/></g><g transform="translate(2,5) scale(1,1)"><path fill="none" stroke="#000000" d="M 176 40 L 335.8544921875 40 L 335.8544921875 79 L 176 79 L 176 40 Z Z" stroke-miterlimit="10"/></g><g transform="translate(2,5) scale(1,1)"><g><path fill="none" stroke="none"/><text fill="#000000" stroke="none" font-family="Arial" font-size="13px" font-style="normal" font-weight="bold" text-decoration="none" x="190.536865234375" y="59.5">Third_Party Connector</text></g></g><g transform="translate(2,5) scale(1,1)"><path fill="none" stroke="#000000" d="M 256.5 80 L 256.5 528" stroke-miterlimit="10" stroke-dasharray="3"/></g><g transform="translate(2,5) scale(1,1)"><rect fill="#C0C0C0" stroke="none" x="383" y="47" width="73.18994140625" height="39" opacity="0.2"/></g><g transform="translate(2,5) scale(1,1)"><rect fill="#ffffff" stroke="none" x="376" y="40" width="73.18994140625" height="39"/></g><g transform="translate(2,5) scale(1,1)"><path fill="none" stroke="#000000" d="M 376 40 L 449.18994140625 40 L 449.18994140625 79 L 376 79 L 376 40 Z Z" stroke-miterlimit="10"/></g><g transform="translate(2,5) scale(1,1)"><g><path fill="none" stroke="none"/><text fill="#000000" stroke="none" font-family="Arial" font-size="13px" font-style="normal" font-weight="bold" text-decoration="none" x="387.305908203125" y="59.5">Analyzer</text></g></g><g transform="translate(2,5) scale(1,1)"><path fill="none" stroke="#000000" d="M 413.5 80 L 413.5 536" stroke-miterlimit="10" stroke-dasharray="3"/></g><g transform="translate(2,5) scale(1,1)"><rect fill="#C0C0C0" stroke="none" x="527" y="47" width="110.00634765625" height="39" opacity="0.2"/></g><g transform="translate(2,5) scale(1,1)"><rect fill="#ffffff" stroke="none" x="520" y="40" width="110.00634765625" height="39"/></g><g transform="translate(2,5) scale(1,1)"><path fill="none" stroke="#000000" d="M 520 40 L 630.00634765625 40 L 630.00634765625 79 L 520 79 L 520 40 Z Z" stroke-miterlimit="10"/></g><g transform="translate(2,5) scale(1,1)"><g><path fill="none" stroke="none"/><text fill="#000000" stroke="none" font-family="Arial" font-size="13px" font-style="normal" font-weight="bold" text-decoration="none" x="532.369140625" y="59.5">DB_Connector</text></g></g><g transform="translate(2,5) scale(1,1)"><path fill="none" stroke="#000000" d="M 576.5 80 L 576.5 536" stroke-miterlimit="10" stroke-dasharray="3"/></g><g transform="translate(2,5) scale(1,1)"><rect fill="#C0C0C0" stroke="none" x="703" y="47" width="71.736328125" height="39" opacity="0.2"/></g><g transform="translate(2,5) scale(1,1)"><rect fill="#ffffff" stroke="none" x="696" y="40" width="71.736328125" height="39"/></g><g transform="translate(2,5) scale(1,1)"><path fill="none" stroke="#000000" d="M 696 40 L 767.736328125 40 L 767.736328125 79 L 696 79 L 696 40 Z Z" stroke-miterlimit="10"/></g><g transform="translate(2,5) scale(1,1)"><g><path fill="none" stroke="none"/><text fill="#000000" stroke="none" font-family="Arial" font-size="13px" font-style="normal" font-weight="bold" text-decoration="none" x="712.3681640625" y="59.5">Twitter</text></g></g><g transform="translate(2,5) scale(1,1)"><path fill="none" stroke="#000000" d="M 732.5 80 L 732.5 528" stroke-miterlimit="10" stroke-dasharray="3"/></g><g transform="translate(2,5) scale(1,1)"><path fill="none" stroke="#000000" d="M 262 152 L 725 152" stroke-miterlimit="10"/></g><g transform="translate(2,5) scale(1,1)"><path fill="#000000" stroke="none" d="M 714.8373251423759 156.209517756016 L 725 152 L 714.8373251423758 147.790482243984"/></g><g transform="translate(2,5) scale(1,1)"><path fill="none" stroke="#000000" d="M 714.8373251423759 156.209517756016 L 725 152 L 714.8373251423758 147.790482243984 L 714.8373251423759 156.209517756016" stroke-miterlimit="10"/></g><g transform="translate(2,5) scale(1,1)"><g><path fill="none" stroke="none"/><text fill="#000000" stroke="none" font-family="Arial" font-size="13px" font-style="normal" font-weight="normal" text-decoration="none" x="272" y="147">49 : CollectInfo</text></g></g><g transform="translate(2,5) scale(1,1)"><rect fill="#ffffff" stroke="none" x="725" y="152" width="13" height="28"/></g><g transform="translate(2,5) scale(1,1)"><path fill="none" stroke="#000000" d="M 725 152 L 738 152 L 738 180 L 725 180 L 725 152 Z Z" stroke-miterlimit="10"/></g><g transform="translate(2,5) scale(1,1)"><path fill="none" stroke="#000000" d="M 576 208 L 606 208 L 606 228 L 582 228" stroke-miterlimit="10"/></g><g transform="translate(2,5) scale(1,1)"><path fill="#000000" stroke="none" d="M 592.1626748576241 223.790482243984 L 582 228 L 592.1626748576241 232.209517756016"/></g><g transform="translate(2,5) scale(1,1)"><path fill="none" stroke="#000000" d="M 592.1626748576241 223.790482243984 L 582 228 L 592.1626748576241 232.209517756016 L 592.1626748576241 223.790482243984" stroke-miterlimit="10"/></g><g transform="translate(2,5) scale(1,1)"><g><path fill="none" stroke="none"/><text fill="#000000" stroke="none" font-family="Arial" font-size="13px" font-style="normal" font-weight="normal" text-decoration="none" x="612" y="224">56 : Store_Info</text></g></g><g transform="translate(2,5) scale(1,1)"><rect fill="#ffffff" stroke="none" x="569" y="228" width="13" height="28"/></g><g transform="translate(2,5) scale(1,1)"><path fill="none" stroke="#000000" d="M 569 228 L 582 228 L 582 256 L 569 256 L 569 228 Z Z" stroke-miterlimit="10"/></g><g transform="translate(2,5) scale(1,1)"><path fill="none" stroke="#000000" d="M 569 248 L 419 248" stroke-miterlimit="10"/></g><g transform="translate(2,5) scale(1,1)"><path fill="#000000" stroke="none" d="M 429.16267485762415 243.790482243984 L 419 248 L 429.16267485762415 252.209517756016"/></g><g transform="translate(2,5) scale(1,1)"><path fill="none" stroke="#000000" d="M 429.16267485762415 243.790482243984 L 419 248 L 429.16267485762415 252.209517756016 L 429.16267485762415 243.790482243984" stroke-miterlimit="10"/></g><g transform="translate(2,5) scale(1,1)"><g><path fill="none" stroke="none"/><text fill="#000000" stroke="none" font-family="Arial" font-size="13px" font-style="normal" font-weight="normal" text-decoration="none" x="452" y="265">60 : send_Info</text></g></g><g transform="translate(2,5) scale(1,1)"><rect fill="#ffffff" stroke="none" x="406" y="248" width="13" height="99"/></g><g transform="translate(2,5) scale(1,1)"><path fill="none" stroke="#000000" d="M 406 248 L 419 248 L 419 347 L 406 347 L 406 248 Z Z" stroke-miterlimit="10"/></g><g transform="translate(2,5) scale(1,1)"><path fill="none" stroke="#000000" d="M 84 128 L 249 128" stroke-miterlimit="10"/></g><g transform="translate(2,5) scale(1,1)"><path fill="#000000" stroke="none" d="M 238.83732514237585 132.209517756016 L 249 128 L 238.83732514237585 123.79048224398402"/></g><g transform="translate(2,5) scale(1,1)"><path fill="none" stroke="#000000" d="M 238.83732514237585 132.209517756016 L 249 128 L 238.83732514237585 123.79048224398402 L 238.83732514237585 132.209517756016" stroke-miterlimit="10"/></g><g transform="translate(2,5) scale(1,1)"><g><path fill="none" stroke="none"/><text fill="#000000" stroke="none" font-family="Arial" font-size="13px" font-style="normal" font-weight="normal" text-decoration="none" x="101" y="125">1 : Request_twitterInfo</text></g></g><g transform="translate(2,5) scale(1,1)"><rect fill="#ffffff" stroke="none" x="249" y="128" width="13" height="28"/></g><g transform="translate(2,5) scale(1,1)"><path fill="none" stroke="#000000" d="M 249 128 L 262 128 L 262 156 L 249 156 L 249 128 Z Z" stroke-miterlimit="10"/></g><g transform="translate(2,5) scale(1,1)"><path fill="none" stroke="#000000" d="M 725 178 L 576 178" stroke-miterlimit="10" stroke-dasharray="3"/></g><g transform="translate(2,5) scale(1,1)"><path fill="none" stroke="#000000" d="M 586.1626748576241 173.790482243984 L 576 178 L 586.1626748576241 182.209517756016" stroke-miterlimit="10"/></g><g transform="translate(2,5) scale(1,1)"><g><path fill="none" stroke="none"/><text fill="#000000" stroke="none" font-family="Arial" font-size="13px" font-style="normal" font-weight="normal" text-decoration="none" x="631" y="195">3 : OK</text></g></g><g transform="translate(2,5) scale(1,1)"><path fill="none" stroke="#000000" d="M 419 296 L 449 296 L 449 316 L 426 316" stroke-miterlimit="10"/></g><g transform="translate(2,5) scale(1,1)"><path fill="#000000" stroke="none" d="M 436.16267485762415 311.790482243984 L 426 316 L 436.16267485762415 320.209517756016"/></g><g transform="translate(2,5) scale(1,1)"><path fill="none" stroke="#000000" d="M 436.16267485762415 311.790482243984 L 426 316 L 436.16267485762415 320.209517756016 L 436.16267485762415 311.790482243984" stroke-miterlimit="10"/></g><g transform="translate(2,5) scale(1,1)"><g><path fill="none" stroke="none"/><text fill="#000000" stroke="none" font-family="Arial" font-size="13px" font-style="normal" font-weight="normal" text-decoration="none" x="456" y="309">6 : Analyse_Info</text></g></g><g transform="translate(2,5) scale(1,1)"><rect fill="#ffffff" stroke="none" x="413" y="316" width="13" height="28"/></g><g transform="translate(2,5) scale(1,1)"><path fill="none" stroke="#000000" d="M 413 316 L 426 316 L 426 344 L 413 344 L 413 316 Z Z" stroke-miterlimit="10"/></g><g transform="translate(2,5) scale(1,1)"><path fill="none" stroke="#000000" d="M 413 336 L 84 336" stroke-miterlimit="10" stroke-dasharray="3"/></g><g transform="translate(2,5) scale(1,1)"><path fill="none" stroke="#000000" d="M 94.16267485762415 331.790482243984 L 84 336 L 94.16267485762415 340.209517756016" stroke-miterlimit="10"/></g><g transform="translate(2,5) scale(1,1)"><g><path fill="none" stroke="none"/><text fill="#000000" stroke="none" font-family="Arial" font-size="13px" font-style="normal" font-weight="normal" text-decoration="none" x="199" y="353">7 : OK</text></g></g></g></svg>