<svg version="1.1" xmlns="http://www.w3.org/2000/svg" xmlns:xlink="http://www.w3.org/1999/xlink" width="1052" height="775"><defs/><g><g transform="translate(10,10) scale(1,1)"><path fill="none" stroke="#000000" d="M 0 0 L 1032 0 L 1032 755 L 0 755 L 0 0" stroke-miterlimit="10"/></g><g transform="translate(10,10) scale(1,1)"><path fill="#ffffff" stroke="none" d="M 0 0 L 0 22 L 148.24072265625 22 L 159.24072265625 11 L 159.24072265625 0 L 0 0"/></g><g transform="translate(10,10) scale(1,1)"><path fill="none" stroke="#000000" d="M 0 0 L 0 22 L 148.24072265625 22 L 159.24072265625 11 L 159.24072265625 0 L 0 0 L 0 0" stroke-miterlimit="10"/></g><g transform="translate(10,10) scale(1,1)"><g><path fill="none" stroke="none"/><text fill="#000000" stroke="none" font-family="Arial" font-size="13px" font-style="normal" font-weight="normal" text-decoration="none" x="70.97900390625" y="17.5">Show Graph</text></g></g><g transform="translate(10,10) scale(1,1)"><g><path fill="none" stroke="none"/><text fill="#000000" stroke="none" font-family="Arial" font-size="13px" font-style="normal" font-weight="bold" text-decoration="none" x="5" y="17.5">interaction</text></g></g><g transform="translate(10,10) scale(1,1)"><path fill="#ffffff" stroke="none" d="M 50.86314541903409 47.3 C 50.86314541903409 43.82060576 53.74154714121591 41 57.292236328125 41 C 60.84292551503409 41 63.72132723721591 43.82060576 63.72132723721591 47.3 C 63.72132723721591 50.779394239999995 60.84292551503409 53.6 57.292236328125 53.6 C 53.74154714121591 53.6 50.86314541903409 50.779394239999995 50.86314541903409 47.3 Z"/></g><g transform="translate(10,10) scale(1,1)"><path fill="none" stroke="#000000" d="M 50.86314541903409 47.3 C 50.86314541903409 43.82060576 53.74154714121591 41 57.292236328125 41 C 60.84292551503409 41 63.72132723721591 43.82060576 63.72132723721591 47.3 C 63.72132723721591 50.779394239999995 60.84292551503409 53.6 57.292236328125 53.6 C 53.74154714121591 53.6 50.86314541903409 50.779394239999995 50.86314541903409 47.3 Z" stroke-miterlimit="10"/></g><g transform="translate(10,10) scale(1,1)"><path fill="none" stroke="#000000" d="M 57.292236328125 53.6 L 57.292236328125 66.4" stroke-miterlimit="10"/></g><g transform="translate(10,10) scale(1,1)"><path fill="none" stroke="#000000" d="M 50.484963600852275 58.4 L 64.09950905539773 58.4" stroke-miterlimit="10"/></g><g transform="translate(10,10) scale(1,1)"><path fill="none" stroke="#000000" d="M 57.292236328125 66.4 L 47.83769087357955 79" stroke-miterlimit="10"/></g><g transform="translate(10,10) scale(1,1)"><path fill="none" stroke="#000000" d="M 57.292236328125 66.4 L 66.74678178267045 79" stroke-miterlimit="10"/></g><g transform="translate(10,10) scale(1,1)"><g><path fill="none" stroke="none"/><text fill="#000000" stroke="none" font-family="Arial" font-size="13px" font-style="normal" font-weight="bold" text-decoration="none" x="19.358642578125" y="99.5">Lifeline: User</text></g></g><g transform="translate(10,10) scale(1,1)"><path fill="none" stroke="#000000" d="M 58.5 105 L 58.5 624" stroke-miterlimit="10" stroke-dasharray="3"/></g><g transform="translate(10,10) scale(1,1)"><rect fill="#C0C0C0" stroke="none" x="383" y="47" width="73.18994140625" height="39" opacity="0.2"/></g><g transform="translate(10,10) scale(1,1)"><rect fill="#ffffff" stroke="none" x="376" y="40" width="73.18994140625" height="39"/></g><g transform="translate(10,10) scale(1,1)"><path fill="none" stroke="#000000" d="M 376 40 L 449.18994140625 40 L 449.18994140625 79 L 376 79 L 376 40 Z Z" stroke-miterlimit="10"/></g><g transform="translate(10,10) scale(1,1)"><g><path fill="none" stroke="none"/><text fill="#000000" stroke="none" font-family="Arial" font-size="13px" font-style="normal" font-weight="bold" text-decoration="none" x="387.305908203125" y="59.5">Analyzer</text></g></g><g transform="translate(10,10) scale(1,1)"><path fill="none" stroke="#000000" d="M 413.5 80 L 413.5 624" stroke-miterlimit="10" stroke-dasharray="3"/></g><g transform="translate(10,10) scale(1,1)"><rect fill="#C0C0C0" stroke="none" x="767" y="47" width="76.80810546875" height="39" opacity="0.2"/></g><g transform="translate(10,10) scale(1,1)"><rect fill="#ffffff" stroke="none" x="760" y="40" width="76.80810546875" height="39"/></g><g transform="translate(10,10) scale(1,1)"><path fill="none" stroke="#000000" d="M 760 40 L 836.80810546875 40 L 836.80810546875 79 L 760 79 L 760 40 Z Z" stroke-miterlimit="10"/></g><g transform="translate(10,10) scale(1,1)"><g><path fill="none" stroke="none"/><text fill="#000000" stroke="none" font-family="Arial" font-size="13px" font-style="normal" font-weight="bold" text-decoration="none" x="770.5791015625" y="59.5">Database</text></g></g><g transform="translate(10,10) scale(1,1)"><path fill="none" stroke="#000000" d="M 799.5 80 L 799.5 624" stroke-miterlimit="10" stroke-dasharray="3"/></g><g transform="translate(10,10) scale(1,1)"><rect fill="#C0C0C0" stroke="none" x="879" y="47" width="93.38818359375" height="39" opacity="0.2"/></g><g transform="translate(10,10) scale(1,1)"><rect fill="#ffffff" stroke="none" x="872" y="40" width="93.38818359375" height="39"/></g><g transform="translate(10,10) scale(1,1)"><path fill="none" stroke="#000000" d="M 872 40 L 965.38818359375 40 L 965.38818359375 79 L 872 79 L 872 40 Z Z" stroke-miterlimit="10"/></g><g transform="translate(10,10) scale(1,1)"><g><path fill="none" stroke="none"/><text fill="#000000" stroke="none" font-family="Arial" font-size="13px" font-style="normal" font-weight="bold" text-decoration="none" x="885.09912109375" y="59.5">Third_Party</text></g></g><g transform="translate(10,10) scale(1,1)"><path fill="none" stroke="#000000" d="M 919.5 80 L 919.5 624" stroke-miterlimit="10" stroke-dasharray="3"/></g><g transform="translate(10,10) scale(1,1)"><rect fill="#C0C0C0" stroke="none" x="151" y="47" width="137.50439453125" height="39" opacity="0.2"/></g><g transform="translate(10,10) scale(1,1)"><rect fill="#ffffff" stroke="none" x="144" y="40" width="137.50439453125" height="39"/></g><g transform="translate(10,10) scale(1,1)"><path fill="none" stroke="#000000" d="M 144 40 L 281.50439453125 40 L 281.50439453125 79 L 144 79 L 144 40 Z Z" stroke-miterlimit="10"/></g><g transform="translate(10,10) scale(1,1)"><g><path fill="none" stroke="none"/><text fill="#000000" stroke="none" font-family="Arial" font-size="13px" font-style="normal" font-weight="bold" text-decoration="none" x="158.197265625" y="59.5">Interaction_service</text></g></g><g transform="translate(10,10) scale(1,1)"><path fill="none" stroke="#000000" d="M 213.5 80 L 213.5 624" stroke-miterlimit="10" stroke-dasharray="3"/></g><g transform="translate(10,10) scale(1,1)"><rect fill="#C0C0C0" stroke="none" x="295" y="47" width="73.18994140625" height="39" opacity="0.2"/></g><g transform="translate(10,10) scale(1,1)"><rect fill="#ffffff" stroke="none" x="288" y="40" width="73.18994140625" height="39"/></g><g transform="translate(10,10) scale(1,1)"><path fill="none" stroke="#000000" d="M 288 40 L 361.18994140625 40 L 361.18994140625 79 L 288 79 L 288 40 Z Z" stroke-miterlimit="10"/></g><g transform="translate(10,10) scale(1,1)"><g><path fill="none" stroke="none"/><text fill="#000000" stroke="none" font-family="Arial" font-size="13px" font-style="normal" font-weight="bold" text-decoration="none" x="299.302734375" y="59.5">Interface</text></g></g><g transform="translate(10,10) scale(1,1)"><path fill="none" stroke="#000000" d="M 325.5 80 L 325.5 624" stroke-miterlimit="10" stroke-dasharray="3"/></g><g transform="translate(10,10) scale(1,1)"><rect fill="#C0C0C0" stroke="none" x="631" y="47" width="110.00634765625" height="39" opacity="0.2"/></g><g transform="translate(10,10) scale(1,1)"><rect fill="#ffffff" stroke="none" x="624" y="40" width="110.00634765625" height="39"/></g><g transform="translate(10,10) scale(1,1)"><path fill="none" stroke="#000000" d="M 624 40 L 734.00634765625 40 L 734.00634765625 79 L 624 79 L 624 40 Z Z" stroke-miterlimit="10"/></g><g transform="translate(10,10) scale(1,1)"><g><path fill="none" stroke="none"/><text fill="#000000" stroke="none" font-family="Arial" font-size="13px" font-style="normal" font-weight="bold" text-decoration="none" x="636.369140625" y="59.5">DB_Connector</text></g></g><g transform="translate(10,10) scale(1,1)"><path fill="none" stroke="#000000" d="M 680.5 80 L 680.5 624" stroke-miterlimit="10" stroke-dasharray="3"/></g><g transform="translate(10,10) scale(1,1)"><rect fill="#C0C0C0" stroke="none" x="471" y="47" width="133.14990234375" height="39" opacity="0.2"/></g><g transform="translate(10,10) scale(1,1)"><rect fill="#ffffff" stroke="none" x="464" y="40" width="133.14990234375" height="39"/></g><g transform="translate(10,10) scale(1,1)"><path fill="none" stroke="#000000" d="M 464 40 L 597.14990234375 40 L 597.14990234375 79 L 464 79 L 464 40 Z Z" stroke-miterlimit="10"/></g><g transform="translate(10,10) scale(1,1)"><g><path fill="none" stroke="none"/><text fill="#000000" stroke="none" font-family="Arial" font-size="13px" font-style="normal" font-weight="bold" text-decoration="none" x="476.7373046875" y="59.5">Pattern_Generator</text></g></g><g transform="translate(10,10) scale(1,1)"><path fill="none" stroke="#000000" d="M 531.5 80 L 531.5 624" stroke-miterlimit="10" stroke-dasharray="3"/></g><g transform="translate(10,10) scale(1,1)"><path fill="none" stroke="#000000" d="M 413 240 L 673 240" stroke-miterlimit="10"/></g><g transform="translate(10,10) scale(1,1)"><path fill="#000000" stroke="none" d="M 662.8373251423759 244.209517756016 L 673 240 L 662.8373251423758 235.790482243984"/></g><g transform="translate(10,10) scale(1,1)"><path fill="none" stroke="#000000" d="M 662.8373251423759 244.209517756016 L 673 240 L 662.8373251423758 235.790482243984 L 662.8373251423759 244.209517756016" stroke-miterlimit="10"/></g><g transform="translate(10,10) scale(1,1)"><g><path fill="none" stroke="none"/><text fill="#000000" stroke="none" font-family="Arial" font-size="13px" font-style="normal" font-weight="normal" text-decoration="none" x="459" y="236">60 : Data_process_request</text></g></g><g transform="translate(10,10) scale(1,1)"><rect fill="#ffffff" stroke="none" x="673" y="240" width="13" height="28"/></g><g transform="translate(10,10) scale(1,1)"><path fill="none" stroke="#000000" d="M 673 240 L 686 240 L 686 268 L 673 268 L 673 240 Z Z" stroke-miterlimit="10"/></g><g transform="translate(10,10) scale(1,1)"><path fill="none" stroke="#000000" d="M 413 160 L 673 160" stroke-miterlimit="10"/></g><g transform="translate(10,10) scale(1,1)"><path fill="#000000" stroke="none" d="M 662.8373251423759 164.209517756016 L 673 160 L 662.8373251423758 155.790482243984"/></g><g transform="translate(10,10) scale(1,1)"><path fill="none" stroke="#000000" d="M 662.8373251423759 164.209517756016 L 673 160 L 662.8373251423758 155.790482243984 L 662.8373251423759 164.209517756016" stroke-miterlimit="10"/></g><g transform="translate(10,10) scale(1,1)"><g><path fill="none" stroke="none"/><text fill="#000000" stroke="none" font-family="Arial" font-size="13px" font-style="normal" font-weight="normal" text-decoration="none" x="464" y="156">67 : GeoInfo_request</text></g></g><g transform="translate(10,10) scale(1,1)"><rect fill="#ffffff" stroke="none" x="673" y="160" width="13" height="28"/></g><g transform="translate(10,10) scale(1,1)"><path fill="none" stroke="#000000" d="M 673 160 L 686 160 L 686 188 L 673 188 L 673 160 Z Z" stroke-miterlimit="10"/></g><g transform="translate(10,10) scale(1,1)"><path fill="none" stroke="#000000" d="M 325 576 L 58 576" stroke-miterlimit="10" stroke-dasharray="3"/></g><g transform="translate(10,10) scale(1,1)"><path fill="none" stroke="#000000" d="M 68.16267485762415 571.790482243984 L 58 576 L 68.16267485762415 580.209517756016" stroke-miterlimit="10"/></g><g transform="translate(10,10) scale(1,1)"><g><path fill="none" stroke="none"/><text fill="#000000" stroke="none" font-family="Arial" font-size="13px" font-style="normal" font-weight="normal" text-decoration="none" x="84" y="593">65 : Display_state(graphs)</text></g></g><g transform="translate(10,10) scale(1,1)"><path fill="none" stroke="#000000" d="M 531 556 L 325 556" stroke-miterlimit="10" stroke-dasharray="3"/></g><g transform="translate(10,10) scale(1,1)"><path fill="none" stroke="#000000" d="M 335.16267485762415 551.790482243984 L 325 556 L 335.16267485762415 560.209517756016" stroke-miterlimit="10"/></g><g transform="translate(10,10) scale(1,1)"><g><path fill="none" stroke="none"/><text fill="#000000" stroke="none" font-family="Arial" font-size="13px" font-style="normal" font-weight="normal" text-decoration="none" x="423" y="572">64 : send_result</text></g></g><g transform="translate(10,10) scale(1,1)"><path fill="none" stroke="#000000" d="M 413 120 L 912 120" stroke-miterlimit="10"/></g><g transform="translate(10,10) scale(1,1)"><path fill="#000000" stroke="none" d="M 901.8373251423759 124.20951775601598 L 912 120 L 901.8373251423758 115.79048224398402"/></g><g transform="translate(10,10) scale(1,1)"><path fill="none" stroke="#000000" d="M 901.8373251423759 124.20951775601598 L 912 120 L 901.8373251423758 115.79048224398402 L 901.8373251423759 124.20951775601598" stroke-miterlimit="10"/></g><g transform="translate(10,10) scale(1,1)"><g><path fill="none" stroke="none"/><text fill="#000000" stroke="none" font-family="Arial" font-size="13px" font-style="normal" font-weight="normal" text-decoration="none" x="544" y="116">3 : Request_data</text></g></g><g transform="translate(10,10) scale(1,1)"><rect fill="#ffffff" stroke="none" x="912" y="120" width="13" height="28"/></g><g transform="translate(10,10) scale(1,1)"><path fill="none" stroke="#000000" d="M 912 120 L 925 120 L 925 148 L 912 148 L 912 120 Z Z" stroke-miterlimit="10"/></g><g transform="translate(10,10) scale(1,1)"><path fill="none" stroke="#000000" d="M 912 144 L 799 144" stroke-miterlimit="10" stroke-dasharray="3"/></g><g transform="translate(10,10) scale(1,1)"><path fill="none" stroke="#000000" d="M 809.1626748576241 139.790482243984 L 799 144 L 809.1626748576241 148.209517756016" stroke-miterlimit="10"/></g><g transform="translate(10,10) scale(1,1)"><g><path fill="none" stroke="none"/><text fill="#000000" stroke="none" font-family="Arial" font-size="13px" font-style="normal" font-weight="normal" text-decoration="none" x="776" y="140">2 : Send_data(tweets)</text></g></g><g transform="translate(10,10) scale(1,1)"><path fill="none" stroke="#000000" d="M 537 512 L 567 512 L 567 532 L 544 532" stroke-miterlimit="10"/></g><g transform="translate(10,10) scale(1,1)"><path fill="#000000" stroke="none" d="M 554.1626748576241 527.790482243984 L 544 532 L 554.1626748576241 536.209517756016"/></g><g transform="translate(10,10) scale(1,1)"><path fill="none" stroke="#000000" d="M 554.1626748576241 527.790482243984 L 544 532 L 554.1626748576241 536.209517756016 L 554.1626748576241 527.790482243984" stroke-miterlimit="10"/></g><g transform="translate(10,10) scale(1,1)"><g><path fill="none" stroke="none"/><text fill="#000000" stroke="none" font-family="Arial" font-size="13px" font-style="normal" font-weight="normal" text-decoration="none" x="570" y="528">47 : Filter_State(tweets, location)</text></g></g><g transform="translate(10,10) scale(1,1)"><rect fill="#ffffff" stroke="none" x="531" y="532" width="13" height="28"/></g><g transform="translate(10,10) scale(1,1)"><path fill="none" stroke="#000000" d="M 531 532 L 544 532 L 544 560 L 531 560 L 531 532 Z Z" stroke-miterlimit="10"/></g><g transform="translate(10,10) scale(1,1)"><path fill="none" stroke="#000000" d="M 686 261 L 792 261" stroke-miterlimit="10"/></g><g transform="translate(10,10) scale(1,1)"><path fill="#000000" stroke="none" d="M 781.8373251423759 265.209517756016 L 792 261 L 781.8373251423758 256.790482243984"/></g><g transform="translate(10,10) scale(1,1)"><path fill="none" stroke="#000000" d="M 781.8373251423759 265.209517756016 L 792 261 L 781.8373251423758 256.790482243984 L 781.8373251423759 265.209517756016" stroke-miterlimit="10"/></g><g transform="translate(10,10) scale(1,1)"><g><path fill="none" stroke="none"/><text fill="#000000" stroke="none" font-family="Arial" font-size="13px" font-style="normal" font-weight="normal" text-decoration="none" x="700" y="257">39 : request</text></g></g><g transform="translate(10,10) scale(1,1)"><rect fill="#ffffff" stroke="none" x="792" y="261" width="13" height="28"/></g><g transform="translate(10,10) scale(1,1)"><path fill="none" stroke="#000000" d="M 792 261 L 805 261 L 805 289 L 792 289 L 792 261 Z Z" stroke-miterlimit="10"/></g><g transform="translate(10,10) scale(1,1)"><path fill="none" stroke="#000000" d="M 792 208 L 413 208" stroke-miterlimit="10" stroke-dasharray="3"/></g><g transform="translate(10,10) scale(1,1)"><path fill="none" stroke="#000000" d="M 423.16267485762415 203.790482243984 L 413 208 L 423.16267485762415 212.209517756016" stroke-miterlimit="10"/></g><g transform="translate(10,10) scale(1,1)"><g><path fill="none" stroke="none"/><text fill="#000000" stroke="none" font-family="Arial" font-size="13px" font-style="normal" font-weight="normal" text-decoration="none" x="460" y="201">35 : Send_data(GeoInfo)</text></g></g><g transform="translate(10,10) scale(1,1)"><path fill="none" stroke="#000000" d="M 419 360 L 524 360" stroke-miterlimit="10"/></g><g transform="translate(10,10) scale(1,1)"><path fill="#000000" stroke="none" d="M 513.8373251423759 364.209517756016 L 524 360 L 513.8373251423758 355.790482243984"/></g><g transform="translate(10,10) scale(1,1)"><path fill="none" stroke="#000000" d="M 513.8373251423759 364.209517756016 L 524 360 L 513.8373251423758 355.790482243984 L 513.8373251423759 364.209517756016" stroke-miterlimit="10"/></g><g transform="translate(10,10) scale(1,1)"><g><path fill="none" stroke="none"/><text fill="#000000" stroke="none" font-family="Arial" font-size="13px" font-style="normal" font-weight="normal" text-decoration="none" x="428" y="357">19 : send_data</text></g></g><g transform="translate(10,10) scale(1,1)"><rect fill="#ffffff" stroke="none" x="524" y="360" width="13" height="67"/></g><g transform="translate(10,10) scale(1,1)"><path fill="none" stroke="#000000" d="M 524 360 L 537 360 L 537 427 L 524 427 L 524 360 Z Z" stroke-miterlimit="10"/></g><g transform="translate(10,10) scale(1,1)"><path fill="none" stroke="#000000" d="M 58 480 L 206 480" stroke-miterlimit="10"/></g><g transform="translate(10,10) scale(1,1)"><path fill="#000000" stroke="none" d="M 195.83732514237585 484.209517756016 L 206 480 L 195.83732514237585 475.790482243984"/></g><g transform="translate(10,10) scale(1,1)"><path fill="none" stroke="#000000" d="M 195.83732514237585 484.209517756016 L 206 480 L 195.83732514237585 475.790482243984 L 195.83732514237585 484.209517756016" stroke-miterlimit="10"/></g><g transform="translate(10,10) scale(1,1)"><g><path fill="none" stroke="none"/><text fill="#000000" stroke="none" font-family="Arial" font-size="13px" font-style="normal" font-weight="normal" text-decoration="none" x="63" y="477">15 : Type_Info(Location)</text></g></g><g transform="translate(10,10) scale(1,1)"><rect fill="#ffffff" stroke="none" x="206" y="480" width="13" height="28"/></g><g transform="translate(10,10) scale(1,1)"><path fill="none" stroke="#000000" d="M 206 480 L 219 480 L 219 508 L 206 508 L 206 480 Z Z" stroke-miterlimit="10"/></g><g transform="translate(10,10) scale(1,1)"><path fill="none" stroke="#000000" d="M 219 504 L 524 504" stroke-miterlimit="10"/></g><g transform="translate(10,10) scale(1,1)"><path fill="#000000" stroke="none" d="M 513.8373251423759 508.209517756016 L 524 504 L 513.8373251423758 499.790482243984"/></g><g transform="translate(10,10) scale(1,1)"><path fill="none" stroke="#000000" d="M 513.8373251423759 508.209517756016 L 524 504 L 513.8373251423758 499.790482243984 L 513.8373251423759 508.209517756016" stroke-miterlimit="10"/></g><g transform="translate(10,10) scale(1,1)"><g><path fill="none" stroke="none"/><text fill="#000000" stroke="none" font-family="Arial" font-size="13px" font-style="normal" font-weight="normal" text-decoration="none" x="220" y="500">16 : send_info</text></g></g><g transform="translate(10,10) scale(1,1)"><rect fill="#ffffff" stroke="none" x="524" y="504" width="13" height="59"/></g><g transform="translate(10,10) scale(1,1)"><path fill="none" stroke="#000000" d="M 524 504 L 537 504 L 537 563 L 524 563 L 524 504 Z Z" stroke-miterlimit="10"/></g><g transform="translate(10,10) scale(1,1)"><path fill="none" stroke="#000000" d="M 537 376 L 567 376 L 567 396 L 544 396" stroke-miterlimit="10"/></g><g transform="translate(10,10) scale(1,1)"><path fill="#000000" stroke="none" d="M 554.1626748576241 391.790482243984 L 544 396 L 554.1626748576241 400.209517756016"/></g><g transform="translate(10,10) scale(1,1)"><path fill="none" stroke="#000000" d="M 554.1626748576241 391.790482243984 L 544 396 L 554.1626748576241 400.209517756016 L 554.1626748576241 391.790482243984" stroke-miterlimit="10"/></g><g transform="translate(10,10) scale(1,1)"><g><path fill="none" stroke="none"/><text fill="#000000" stroke="none" font-family="Arial" font-size="13px" font-style="normal" font-weight="normal" text-decoration="none" x="567" y="392">17 : Statewise_Comparison(tweets, GeoInfo)</text></g></g><g transform="translate(10,10) scale(1,1)"><rect fill="#ffffff" stroke="none" x="531" y="396" width="13" height="28"/></g><g transform="translate(10,10) scale(1,1)"><path fill="none" stroke="#000000" d="M 531 396 L 544 396 L 544 424 L 531 424 L 531 396 Z Z" stroke-miterlimit="10"/></g><g transform="translate(10,10) scale(1,1)"><path fill="none" stroke="#000000" d="M 792 288 L 413 288" stroke-miterlimit="10" stroke-dasharray="3"/></g><g transform="translate(10,10) scale(1,1)"><path fill="none" stroke="#000000" d="M 423.16267485762415 283.790482243984 L 413 288 L 423.16267485762415 292.209517756016" stroke-miterlimit="10"/></g><g transform="translate(10,10) scale(1,1)"><g><path fill="none" stroke="none"/><text fill="#000000" stroke="none" font-family="Arial" font-size="13px" font-style="normal" font-weight="normal" text-decoration="none" x="476" y="283">11 : Response_data(tweets)</text></g></g><g transform="translate(10,10) scale(1,1)"><path fill="none" stroke="#000000" d="M 686 184 L 792 184" stroke-miterlimit="10"/></g><g transform="translate(10,10) scale(1,1)"><path fill="#000000" stroke="none" d="M 781.8373251423759 188.209517756016 L 792 184 L 781.8373251423758 179.790482243984"/></g><g transform="translate(10,10) scale(1,1)"><path fill="none" stroke="#000000" d="M 781.8373251423759 188.209517756016 L 792 184 L 781.8373251423758 179.790482243984 L 781.8373251423759 188.209517756016" stroke-miterlimit="10"/></g><g transform="translate(10,10) scale(1,1)"><g><path fill="none" stroke="none"/><text fill="#000000" stroke="none" font-family="Arial" font-size="13px" font-style="normal" font-weight="normal" text-decoration="none" x="704" y="180">4 : request</text></g></g><g transform="translate(10,10) scale(1,1)"><rect fill="#ffffff" stroke="none" x="792" y="184" width="13" height="28"/></g><g transform="translate(10,10) scale(1,1)"><path fill="none" stroke="#000000" d="M 792 184 L 805 184 L 805 212 L 792 212 L 792 184 Z Z" stroke-miterlimit="10"/></g><g transform="translate(10,10) scale(1,1)"><path fill="none" stroke="#000000" d="M 413 312 L 443 312 L 443 332 L 419 332" stroke-miterlimit="10"/></g><g transform="translate(10,10) scale(1,1)"><path fill="#000000" stroke="none" d="M 429.16267485762415 327.790482243984 L 419 332 L 429.16267485762415 336.209517756016"/></g><g transform="translate(10,10) scale(1,1)"><path fill="none" stroke="#000000" d="M 429.16267485762415 327.790482243984 L 419 332 L 429.16267485762415 336.209517756016 L 429.16267485762415 327.790482243984" stroke-miterlimit="10"/></g><g transform="translate(10,10) scale(1,1)"><g><path fill="none" stroke="none"/><text fill="#000000" stroke="none" font-family="Arial" font-size="13px" font-style="normal" font-weight="normal" text-decoration="none" x="448" y="328">9 : data_proceed</text></g></g><g transform="translate(10,10) scale(1,1)"><rect fill="#ffffff" stroke="none" x="406" y="332" width="13" height="36"/></g><g transform="translate(10,10) scale(1,1)"><path fill="none" stroke="#000000" d="M 406 332 L 419 332 L 419 368 L 406 368 L 406 332 Z Z" stroke-miterlimit="10"/></g><g transform="translate(10,10) scale(1,1)"><path fill="none" stroke="#000000" d="M 325 432 L 58 432" stroke-miterlimit="10" stroke-dasharray="3"/></g><g transform="translate(10,10) scale(1,1)"><path fill="none" stroke="#000000" d="M 68.16267485762415 427.790482243984 L 58 432 L 68.16267485762415 436.209517756016" stroke-miterlimit="10"/></g><g transform="translate(10,10) scale(1,1)"><g><path fill="none" stroke="none"/><text fill="#000000" stroke="none" font-family="Arial" font-size="13px" font-style="normal" font-weight="normal" text-decoration="none" x="75" y="428">13 : Display_Compare(graphs)</text></g></g><g transform="translate(10,10) scale(1,1)"><path fill="none" stroke="#000000" d="M 531 416 L 325 416" stroke-miterlimit="10" stroke-dasharray="3"/></g><g transform="translate(10,10) scale(1,1)"><path fill="none" stroke="#000000" d="M 335.16267485762415 411.790482243984 L 325 416 L 335.16267485762415 420.209517756016" stroke-miterlimit="10"/></g><g transform="translate(10,10) scale(1,1)"><g><path fill="none" stroke="none"/><text fill="#000000" stroke="none" font-family="Arial" font-size="13px" font-style="normal" font-weight="normal" text-decoration="none" x="420" y="411">12 : send_result</text></g></g></g></svg>