<svg version="1.1" xmlns="http://www.w3.org/2000/svg" xmlns:xlink="http://www.w3.org/1999/xlink" width="982.80810546875" height="718"><defs/><g><g transform="translate(-62,-37) scale(1,1)"><path fill="#ffffff" stroke="none" d="M 992.7247800071023 121.68 C 992.7247800071023 116.886167936 996.6106223320477 113 1001.404052734375 113 C 1006.1974831367023 113 1010.0833254616477 116.886167936 1010.0833254616477 121.68 C 1010.0833254616477 126.473832064 1006.1974831367023 130.36 1001.404052734375 130.36 C 996.6106223320477 130.36 992.7247800071023 126.473832064 992.7247800071023 121.68 Z"/></g><g transform="translate(-62,-37) scale(1,1)"><path fill="none" stroke="#000000" d="M 992.7247800071023 121.68 C 992.7247800071023 116.886167936 996.6106223320477 113 1001.404052734375 113 C 1006.1974831367023 113 1010.0833254616477 116.886167936 1010.0833254616477 121.68 C 1010.0833254616477 126.473832064 1006.1974831367023 130.36 1001.404052734375 130.36 C 996.6106223320477 130.36 992.7247800071023 126.473832064 992.7247800071023 121.68 Z" stroke-miterlimit="10"/></g><g transform="translate(-62,-37) scale(1,1)"><path fill="none" stroke="#000000" d="M 1001.404052734375 130.36 L 1001.404052734375 147.64" stroke-miterlimit="10"/></g><g transform="translate(-62,-37) scale(1,1)"><path fill="none" stroke="#000000" d="M 992.2142345525568 136.84 L 1010.5938709161932 136.84" stroke-miterlimit="10"/></g><g transform="translate(-62,-37) scale(1,1)"><path fill="none" stroke="#000000" d="M 1001.404052734375 147.64 L 988.6404163707386 165" stroke-miterlimit="10"/></g><g transform="translate(-62,-37) scale(1,1)"><path fill="none" stroke="#000000" d="M 1001.404052734375 147.64 L 1014.1676890980114 165" stroke-miterlimit="10"/></g><g transform="translate(-62,-37) scale(1,1)"><g><path fill="none" stroke="none"/><text fill="#000000" stroke="none" font-family="Arial" font-size="13px" font-style="normal" font-weight="bold" text-decoration="none" x="973.5791015625" y="185.5">Database</text></g></g><g transform="translate(-62,-37) scale(1,1)"><rect fill="#C0C0C0" stroke="none" x="799" y="87" width="135.08984375" height="143" opacity="0.2"/></g><g transform="translate(-62,-37) scale(1,1)"><rect fill="#ffffff" stroke="none" x="792" y="80" width="135.08984375" height="143"/></g><g transform="translate(-62,-37) scale(1,1)"><path fill="none" stroke="#000000" d="M 792 80 L 927.08984375 80 L 927.08984375 223 L 792 223 L 792 80 Z Z" stroke-miterlimit="10"/></g><g transform="translate(-62,-37) scale(1,1)"><path fill="none" stroke="#000000" d="M 792 118 L 927.08984375 118" stroke-miterlimit="10"/></g><g transform="translate(-62,-37) scale(1,1)"><path fill="none" stroke="#000000" d="M 792 201 L 927.08984375 201" stroke-miterlimit="10"/></g><g transform="translate(-62,-37) scale(1,1)"><g><path fill="none" stroke="none"/><text fill="#000000" stroke="none" font-family="Arial" font-size="13px" font-style="normal" font-weight="normal" text-decoration="none" x="828.825439453125" y="97.5">«boundry»</text></g></g><g transform="translate(-62,-37) scale(1,1)"><g><path fill="none" stroke="none"/><text fill="#000000" stroke="none" font-family="Arial" font-size="13px" font-style="normal" font-weight="bold" text-decoration="none" x="822.6904296875" y="112.5">DB_Connect</text></g></g><g transform="translate(-62,-37) scale(1,1)"><g><path fill="none" stroke="none"/><text fill="#000000" stroke="none" font-family="Arial" font-size="13px" font-style="normal" font-weight="normal" text-decoration="none" x="797" y="135.5">+dbAddress</text></g></g><g transform="translate(-62,-37) scale(1,1)"><g><path fill="none" stroke="none"/><text fill="#000000" stroke="none" font-family="Arial" font-size="13px" font-style="normal" font-weight="normal" text-decoration="none" x="797" y="150.5">+dbAccount</text></g></g><g transform="translate(-62,-37) scale(1,1)"><g><path fill="none" stroke="none"/><text fill="#000000" stroke="none" font-family="Arial" font-size="13px" font-style="normal" font-weight="normal" text-decoration="none" x="797" y="165.5">+dbPass</text></g></g><g transform="translate(-62,-37) scale(1,1)"><g><path fill="none" stroke="none"/><text fill="#000000" stroke="none" font-family="Arial" font-size="13px" font-style="normal" font-weight="normal" text-decoration="none" x="797" y="180.5">+status</text></g></g><g transform="translate(-62,-37) scale(1,1)"><g><path fill="none" stroke="none"/><text fill="#000000" stroke="none" font-family="Arial" font-size="13px" font-style="normal" font-weight="normal" text-decoration="none" x="797" y="195.5">+tweets</text></g></g><g transform="translate(-62,-37) scale(1,1)"><g><path fill="none" stroke="none"/><text fill="#000000" stroke="none" font-family="Arial" font-size="13px" font-style="normal" font-weight="normal" text-decoration="none" x="797" y="218.5">+data_communicate()</text></g></g><g transform="translate(-62,-37) scale(1,1)"><rect fill="#C0C0C0" stroke="none" x="551" y="87" width="119.50634765625" height="143" opacity="0.2"/></g><g transform="translate(-62,-37) scale(1,1)"><rect fill="#ffffff" stroke="none" x="544" y="80" width="119.50634765625" height="143"/></g><g transform="translate(-62,-37) scale(1,1)"><path fill="none" stroke="#000000" d="M 544 80 L 663.50634765625 80 L 663.50634765625 223 L 544 223 L 544 80 Z Z" stroke-miterlimit="10"/></g><g transform="translate(-62,-37) scale(1,1)"><path fill="none" stroke="#000000" d="M 544 118 L 663.50634765625 118" stroke-miterlimit="10"/></g><g transform="translate(-62,-37) scale(1,1)"><path fill="none" stroke="#000000" d="M 544 186 L 663.50634765625 186" stroke-miterlimit="10"/></g><g transform="translate(-62,-37) scale(1,1)"><g><path fill="none" stroke="none"/><text fill="#000000" stroke="none" font-family="Arial" font-size="13px" font-style="normal" font-weight="normal" text-decoration="none" x="580.9873046875" y="97.5">«entity»</text></g></g><g transform="translate(-62,-37) scale(1,1)"><g><path fill="none" stroke="none"/><text fill="#000000" stroke="none" font-family="Arial" font-size="13px" font-style="normal" font-weight="bold" text-decoration="none" x="553.536865234375" y="112.5">Profile_Controllor</text></g></g><g transform="translate(-62,-37) scale(1,1)"><g><path fill="none" stroke="none"/><text fill="#000000" stroke="none" font-family="Arial" font-size="13px" font-style="normal" font-weight="normal" text-decoration="none" x="549" y="135.5">+Account_ID</text></g></g><g transform="translate(-62,-37) scale(1,1)"><g><path fill="none" stroke="none"/><text fill="#000000" stroke="none" font-family="Arial" font-size="13px" font-style="normal" font-weight="normal" text-decoration="none" x="549" y="150.5">+Account_Pass</text></g></g><g transform="translate(-62,-37) scale(1,1)"><g><path fill="none" stroke="none"/><text fill="#000000" stroke="none" font-family="Arial" font-size="13px" font-style="normal" font-weight="normal" text-decoration="none" x="549" y="165.5">+Location</text></g></g><g transform="translate(-62,-37) scale(1,1)"><g><path fill="none" stroke="none"/><text fill="#000000" stroke="none" font-family="Arial" font-size="13px" font-style="normal" font-weight="normal" text-decoration="none" x="549" y="180.5">+health_status</text></g></g><g transform="translate(-62,-37) scale(1,1)"><g><path fill="none" stroke="none"/><text fill="#000000" stroke="none" font-family="Arial" font-size="13px" font-style="normal" font-weight="normal" text-decoration="none" x="549" y="203.5">+get_profile()</text></g></g><g transform="translate(-62,-37) scale(1,1)"><g><path fill="none" stroke="none"/><text fill="#000000" stroke="none" font-family="Arial" font-size="13px" font-style="normal" font-weight="normal" text-decoration="none" x="549" y="218.5">+create_profile()</text></g></g><g transform="translate(-62,-37) scale(1,1)"><rect fill="#C0C0C0" stroke="none" x="319" y="239" width="138.68896484375" height="143" opacity="0.2"/></g><g transform="translate(-62,-37) scale(1,1)"><rect fill="#ffffff" stroke="none" x="312" y="232" width="138.68896484375" height="143"/></g><g transform="translate(-62,-37) scale(1,1)"><path fill="none" stroke="#000000" d="M 312 232 L 450.68896484375 232 L 450.68896484375 375 L 312 375 L 312 232 Z Z" stroke-miterlimit="10"/></g><g transform="translate(-62,-37) scale(1,1)"><path fill="none" stroke="#000000" d="M 312 270 L 450.68896484375 270" stroke-miterlimit="10"/></g><g transform="translate(-62,-37) scale(1,1)"><path fill="none" stroke="#000000" d="M 312 323 L 450.68896484375 323" stroke-miterlimit="10"/></g><g transform="translate(-62,-37) scale(1,1)"><g><path fill="none" stroke="none"/><text fill="#000000" stroke="none" font-family="Arial" font-size="13px" font-style="normal" font-weight="normal" text-decoration="none" x="354.60498046875" y="249.5">«control»</text></g></g><g transform="translate(-62,-37) scale(1,1)"><g><path fill="none" stroke="none"/><text fill="#000000" stroke="none" font-family="Arial" font-size="13px" font-style="normal" font-weight="bold" text-decoration="none" x="343.042724609375" y="264.5">Authenticator</text></g></g><g transform="translate(-62,-37) scale(1,1)"><g><path fill="none" stroke="none"/><text fill="#000000" stroke="none" font-family="Arial" font-size="13px" font-style="normal" font-weight="normal" text-decoration="none" x="317" y="287.5">+isRegistered</text></g></g><g transform="translate(-62,-37) scale(1,1)"><g><path fill="none" stroke="none"/><text fill="#000000" stroke="none" font-family="Arial" font-size="13px" font-style="normal" font-weight="normal" text-decoration="none" x="317" y="302.5">+isLogged</text></g></g><g transform="translate(-62,-37) scale(1,1)"><g><path fill="none" stroke="none"/><text fill="#000000" stroke="none" font-family="Arial" font-size="13px" font-style="normal" font-weight="normal" text-decoration="none" x="317" y="317.5">+isAuthorized</text></g></g><g transform="translate(-62,-37) scale(1,1)"><g><path fill="none" stroke="none"/><text fill="#000000" stroke="none" font-family="Arial" font-size="13px" font-style="normal" font-weight="normal" text-decoration="none" x="317" y="340.5">+Third_Party_control()</text></g></g><g transform="translate(-62,-37) scale(1,1)"><g><path fill="none" stroke="none"/><text fill="#000000" stroke="none" font-family="Arial" font-size="13px" font-style="normal" font-weight="normal" text-decoration="none" x="317" y="355.5">+Non_twitter_control()</text></g></g><g transform="translate(-62,-37) scale(1,1)"><g><path fill="none" stroke="none"/><text fill="#000000" stroke="none" font-family="Arial" font-size="13px" font-style="normal" font-weight="normal" text-decoration="none" x="317" y="370.5">+Authorize()</text></g></g><g transform="translate(-62,-37) scale(1,1)"><rect fill="#C0C0C0" stroke="none" x="535" y="239" width="147.3662109375" height="115" opacity="0.2"/></g><g transform="translate(-62,-37) scale(1,1)"><rect fill="#ffffff" stroke="none" x="528" y="232" width="147.3662109375" height="115"/></g><g transform="translate(-62,-37) scale(1,1)"><path fill="none" stroke="#000000" d="M 528 232 L 675.3662109375 232 L 675.3662109375 347 L 528 347 L 528 232 Z Z" stroke-miterlimit="10"/></g><g transform="translate(-62,-37) scale(1,1)"><path fill="none" stroke="#000000" d="M 528 270 L 675.3662109375 270" stroke-miterlimit="10"/></g><g transform="translate(-62,-37) scale(1,1)"><path fill="none" stroke="#000000" d="M 528 280 L 675.3662109375 280" stroke-miterlimit="10"/></g><g transform="translate(-62,-37) scale(1,1)"><g><path fill="none" stroke="none"/><text fill="#000000" stroke="none" font-family="Arial" font-size="13px" font-style="normal" font-weight="normal" text-decoration="none" x="578.917236328125" y="249.5">«entity»</text></g></g><g transform="translate(-62,-37) scale(1,1)"><g><path fill="none" stroke="none"/><text fill="#000000" stroke="none" font-family="Arial" font-size="13px" font-style="normal" font-weight="bold" text-decoration="none" x="559.049072265625" y="264.5">Data_Analyzer</text></g></g><g transform="translate(-62,-37) scale(1,1)"><g><path fill="none" stroke="none"/><text fill="#000000" stroke="none" font-family="Arial" font-size="13px" font-style="normal" font-weight="normal" text-decoration="none" x="533" y="297.5">+analyzePublic(Tweets)</text></g></g><g transform="translate(-62,-37) scale(1,1)"><g><path fill="none" stroke="none"/><text fill="#000000" stroke="none" font-family="Arial" font-size="13px" font-style="normal" font-weight="normal" text-decoration="none" x="533" y="312.5">+analyzePersonal()</text></g></g><g transform="translate(-62,-37) scale(1,1)"><g><path fill="none" stroke="none"/><text fill="#000000" stroke="none" font-family="Arial" font-size="13px" font-style="normal" font-weight="normal" text-decoration="none" x="533" y="327.5">+import_data()</text></g></g><g transform="translate(-62,-37) scale(1,1)"><g><path fill="none" stroke="none"/><text fill="#000000" stroke="none" font-family="Arial" font-size="13px" font-style="normal" font-weight="normal" text-decoration="none" x="533" y="342.5">+output()</text></g></g><g transform="translate(-62,-37) scale(1,1)"><rect fill="#C0C0C0" stroke="none" x="231" y="503" width="97.86083984375" height="130" opacity="0.2"/></g><g transform="translate(-62,-37) scale(1,1)"><rect fill="#ffffff" stroke="none" x="224" y="496" width="97.86083984375" height="130"/></g><g transform="translate(-62,-37) scale(1,1)"><path fill="none" stroke="#000000" d="M 224 496 L 321.86083984375 496 L 321.86083984375 626 L 224 626 L 224 496 Z Z" stroke-miterlimit="10"/></g><g transform="translate(-62,-37) scale(1,1)"><path fill="none" stroke="#000000" d="M 224 534 L 321.86083984375 534" stroke-miterlimit="10"/></g><g transform="translate(-62,-37) scale(1,1)"><path fill="none" stroke="#000000" d="M 224 617 L 321.86083984375 617" stroke-miterlimit="10"/></g><g transform="translate(-62,-37) scale(1,1)"><g><path fill="none" stroke="none"/><text fill="#000000" stroke="none" font-family="Arial" font-size="13px" font-style="normal" font-weight="normal" text-decoration="none" x="250.16455078125" y="513.5">«entity»</text></g></g><g transform="translate(-62,-37) scale(1,1)"><g><path fill="none" stroke="none"/><text fill="#000000" stroke="none" font-family="Arial" font-size="13px" font-style="normal" font-weight="bold" text-decoration="none" x="230.658203125" y="528.5">Web_Interface</text></g></g><g transform="translate(-62,-37) scale(1,1)"><g><path fill="none" stroke="none"/><text fill="#000000" stroke="none" font-family="Arial" font-size="13px" font-style="normal" font-weight="normal" text-decoration="none" x="229" y="551.5">+Page_display</text></g></g><g transform="translate(-62,-37) scale(1,1)"><g><path fill="none" stroke="none"/><text fill="#000000" stroke="none" font-family="Arial" font-size="13px" font-style="normal" font-weight="normal" text-decoration="none" x="229" y="566.5">+Page_home</text></g></g><g transform="translate(-62,-37) scale(1,1)"><g><path fill="none" stroke="none"/><text fill="#000000" stroke="none" font-family="Arial" font-size="13px" font-style="normal" font-weight="normal" text-decoration="none" x="229" y="581.5">+Page_profile</text></g></g><g transform="translate(-62,-37) scale(1,1)"><g><path fill="none" stroke="none"/><text fill="#000000" stroke="none" font-family="Arial" font-size="13px" font-style="normal" font-weight="normal" text-decoration="none" x="229" y="596.5">+Page_login</text></g></g><g transform="translate(-62,-37) scale(1,1)"><g><path fill="none" stroke="none"/><text fill="#000000" stroke="none" font-family="Arial" font-size="13px" font-style="normal" font-weight="normal" text-decoration="none" x="229" y="611.5">+search</text></g></g><g transform="translate(-62,-37) scale(1,1)"><rect fill="#C0C0C0" stroke="none" x="799" y="287" width="138.68896484375" height="143" opacity="0.2"/></g><g transform="translate(-62,-37) scale(1,1)"><rect fill="#ffffff" stroke="none" x="792" y="280" width="138.68896484375" height="143"/></g><g transform="translate(-62,-37) scale(1,1)"><path fill="none" stroke="#000000" d="M 792 280 L 930.68896484375 280 L 930.68896484375 423 L 792 423 L 792 280 Z Z" stroke-miterlimit="10"/></g><g transform="translate(-62,-37) scale(1,1)"><path fill="none" stroke="#000000" d="M 792 318 L 930.68896484375 318" stroke-miterlimit="10"/></g><g transform="translate(-62,-37) scale(1,1)"><path fill="none" stroke="#000000" d="M 792 386 L 930.68896484375 386" stroke-miterlimit="10"/></g><g transform="translate(-62,-37) scale(1,1)"><g><path fill="none" stroke="none"/><text fill="#000000" stroke="none" font-family="Arial" font-size="13px" font-style="normal" font-weight="normal" text-decoration="none" x="838.57861328125" y="297.5">«entity»</text></g></g><g transform="translate(-62,-37) scale(1,1)"><g><path fill="none" stroke="none"/><text fill="#000000" stroke="none" font-family="Arial" font-size="13px" font-style="normal" font-weight="bold" text-decoration="none" x="807.5068359375" y="312.5">Pattern_Generator</text></g></g><g transform="translate(-62,-37) scale(1,1)"><g><path fill="none" stroke="none"/><text fill="#000000" stroke="none" font-family="Arial" font-size="13px" font-style="normal" font-weight="normal" text-decoration="none" x="797" y="335.5">+heatMap</text></g></g><g transform="translate(-62,-37) scale(1,1)"><g><path fill="none" stroke="none"/><text fill="#000000" stroke="none" font-family="Arial" font-size="13px" font-style="normal" font-weight="normal" text-decoration="none" x="797" y="350.5">+trends</text></g></g><g transform="translate(-62,-37) scale(1,1)"><g><path fill="none" stroke="none"/><text fill="#000000" stroke="none" font-family="Arial" font-size="13px" font-style="normal" font-weight="normal" text-decoration="none" x="797" y="365.5">+histograms</text></g></g><g transform="translate(-62,-37) scale(1,1)"><g><path fill="none" stroke="none"/><text fill="#000000" stroke="none" font-family="Arial" font-size="13px" font-style="normal" font-weight="normal" text-decoration="none" x="797" y="380.5">+real_time_tweets</text></g></g><g transform="translate(-62,-37) scale(1,1)"><g><path fill="none" stroke="none"/><text fill="#000000" stroke="none" font-family="Arial" font-size="13px" font-style="normal" font-weight="normal" text-decoration="none" x="797" y="403.5">+Third_Party_control()</text></g></g><g transform="translate(-62,-37) scale(1,1)"><g><path fill="none" stroke="none"/><text fill="#000000" stroke="none" font-family="Arial" font-size="13px" font-style="normal" font-weight="normal" text-decoration="none" x="797" y="418.5">+get_index(tags)</text></g></g><g transform="translate(-62,-37) scale(1,1)"><rect fill="#C0C0C0" stroke="none" x="79" y="423" width="135.45166015625" height="113" opacity="0.2"/></g><g transform="translate(-62,-37) scale(1,1)"><rect fill="#ffffff" stroke="none" x="72" y="416" width="135.45166015625" height="113"/></g><g transform="translate(-62,-37) scale(1,1)"><path fill="none" stroke="#000000" d="M 72 416 L 207.45166015625 416 L 207.45166015625 529 L 72 529 L 72 416 Z Z" stroke-miterlimit="10"/></g><g transform="translate(-62,-37) scale(1,1)"><path fill="none" stroke="#000000" d="M 72 454 L 207.45166015625 454" stroke-miterlimit="10"/></g><g transform="translate(-62,-37) scale(1,1)"><path fill="none" stroke="#000000" d="M 72 477 L 207.45166015625 477" stroke-miterlimit="10"/></g><g transform="translate(-62,-37) scale(1,1)"><g><path fill="none" stroke="none"/><text fill="#000000" stroke="none" font-family="Arial" font-size="13px" font-style="normal" font-weight="normal" text-decoration="none" x="109.00634765625" y="433.5">«boundry»</text></g></g><g transform="translate(-62,-37) scale(1,1)"><g><path fill="none" stroke="none"/><text fill="#000000" stroke="none" font-family="Arial" font-size="13px" font-style="normal" font-weight="bold" text-decoration="none" x="89.14453125" y="448.5">Interface_Service</text></g></g><g transform="translate(-62,-37) scale(1,1)"><g><path fill="none" stroke="none"/><text fill="#000000" stroke="none" font-family="Arial" font-size="13px" font-style="normal" font-weight="normal" text-decoration="none" x="77" y="471.5">+system_status</text></g></g><g transform="translate(-62,-37) scale(1,1)"><g><path fill="none" stroke="none"/><text fill="#000000" stroke="none" font-family="Arial" font-size="13px" font-style="normal" font-weight="normal" text-decoration="none" x="77" y="494.5">+show_public_data()</text></g></g><g transform="translate(-62,-37) scale(1,1)"><g><path fill="none" stroke="none"/><text fill="#000000" stroke="none" font-family="Arial" font-size="13px" font-style="normal" font-weight="normal" text-decoration="none" x="77" y="509.5">+search()</text></g></g><g transform="translate(-62,-37) scale(1,1)"><g><path fill="none" stroke="none"/><text fill="#000000" stroke="none" font-family="Arial" font-size="13px" font-style="normal" font-weight="normal" text-decoration="none" x="77" y="524.5">+personal_interface()</text></g></g><g transform="translate(-62,-37) scale(1,1)"><rect fill="#C0C0C0" stroke="none" x="311" y="95" width="153.47265625" height="85" opacity="0.2"/></g><g transform="translate(-62,-37) scale(1,1)"><rect fill="#ffffff" stroke="none" x="304" y="88" width="153.47265625" height="85"/></g><g transform="translate(-62,-37) scale(1,1)"><path fill="none" stroke="#000000" d="M 304 88 L 457.47265625 88 L 457.47265625 173 L 304 173 L 304 88 Z Z" stroke-miterlimit="10"/></g><g transform="translate(-62,-37) scale(1,1)"><path fill="none" stroke="#000000" d="M 304 126 L 457.47265625 126" stroke-miterlimit="10"/></g><g transform="translate(-62,-37) scale(1,1)"><path fill="none" stroke="#000000" d="M 304 136 L 457.47265625 136" stroke-miterlimit="10"/></g><g transform="translate(-62,-37) scale(1,1)"><g><path fill="none" stroke="none"/><text fill="#000000" stroke="none" font-family="Arial" font-size="13px" font-style="normal" font-weight="normal" text-decoration="none" x="350.016845703125" y="105.5">«boundry»</text></g></g><g transform="translate(-62,-37) scale(1,1)"><g><path fill="none" stroke="none"/><text fill="#000000" stroke="none" font-family="Arial" font-size="13px" font-style="normal" font-weight="bold" text-decoration="none" x="313.536865234375" y="120.5">Third_Party_Connector</text></g></g><g transform="translate(-62,-37) scale(1,1)"><g><path fill="none" stroke="none"/><text fill="#000000" stroke="none" font-family="Arial" font-size="13px" font-style="normal" font-weight="normal" text-decoration="none" x="309" y="153.5">+connect_Twitter()</text></g></g><g transform="translate(-62,-37) scale(1,1)"><g><path fill="none" stroke="none"/><text fill="#000000" stroke="none" font-family="Arial" font-size="13px" font-style="normal" font-weight="normal" text-decoration="none" x="309" y="168.5">+connect_Google()</text></g></g><g transform="translate(-62,-37) scale(1,1)"><rect fill="#C0C0C0" stroke="none" x="679" y="503" width="89.57080078125" height="98" opacity="0.2"/></g><g transform="translate(-62,-37) scale(1,1)"><rect fill="#ffffff" stroke="none" x="672" y="496" width="89.57080078125" height="98"/></g><g transform="translate(-62,-37) scale(1,1)"><path fill="none" stroke="#000000" d="M 672 496 L 761.57080078125 496 L 761.57080078125 594 L 672 594 L 672 496 Z Z" stroke-miterlimit="10"/></g><g transform="translate(-62,-37) scale(1,1)"><path fill="none" stroke="#000000" d="M 672 534 L 761.57080078125 534" stroke-miterlimit="10"/></g><g transform="translate(-62,-37) scale(1,1)"><path fill="none" stroke="#000000" d="M 672 572 L 761.57080078125 572" stroke-miterlimit="10"/></g><g transform="translate(-62,-37) scale(1,1)"><g><path fill="none" stroke="none"/><text fill="#000000" stroke="none" font-family="Arial" font-size="13px" font-style="normal" font-weight="normal" text-decoration="none" x="694.01953125" y="513.5">«entity»</text></g></g><g transform="translate(-62,-37) scale(1,1)"><g><path fill="none" stroke="none"/><text fill="#000000" stroke="none" font-family="Arial" font-size="13px" font-style="normal" font-weight="bold" text-decoration="none" x="690.40771484375" y="528.5">Calendar</text></g></g><g transform="translate(-62,-37) scale(1,1)"><g><path fill="none" stroke="none"/><text fill="#000000" stroke="none" font-family="Arial" font-size="13px" font-style="normal" font-weight="normal" text-decoration="none" x="677" y="551.5">+Date</text></g></g><g transform="translate(-62,-37) scale(1,1)"><g><path fill="none" stroke="none"/><text fill="#000000" stroke="none" font-family="Arial" font-size="13px" font-style="normal" font-weight="normal" text-decoration="none" x="677" y="566.5">+Event</text></g></g><g transform="translate(-62,-37) scale(1,1)"><g><path fill="none" stroke="none"/><text fill="#000000" stroke="none" font-family="Arial" font-size="13px" font-style="normal" font-weight="normal" text-decoration="none" x="677" y="589.5">+get_event()</text></g></g><g transform="translate(-62,-37) scale(1,1)"><rect fill="#C0C0C0" stroke="none" x="535" y="503" width="89.57080078125" height="85" opacity="0.2"/></g><g transform="translate(-62,-37) scale(1,1)"><rect fill="#ffffff" stroke="none" x="528" y="496" width="89.57080078125" height="85"/></g><g transform="translate(-62,-37) scale(1,1)"><path fill="none" stroke="#000000" d="M 528 496 L 617.57080078125 496 L 617.57080078125 581 L 528 581 L 528 496 Z Z" stroke-miterlimit="10"/></g><g transform="translate(-62,-37) scale(1,1)"><path fill="none" stroke="#000000" d="M 528 534 L 617.57080078125 534" stroke-miterlimit="10"/></g><g transform="translate(-62,-37) scale(1,1)"><path fill="none" stroke="#000000" d="M 528 544 L 617.57080078125 544" stroke-miterlimit="10"/></g><g transform="translate(-62,-37) scale(1,1)"><g><path fill="none" stroke="none"/><text fill="#000000" stroke="none" font-family="Arial" font-size="13px" font-style="normal" font-weight="normal" text-decoration="none" x="550.01953125" y="513.5">«entity»</text></g></g><g transform="translate(-62,-37) scale(1,1)"><g><path fill="none" stroke="none"/><text fill="#000000" stroke="none" font-family="Arial" font-size="13px" font-style="normal" font-weight="bold" text-decoration="none" x="543.522705078125" y="528.5">Calculator</text></g></g><g transform="translate(-62,-37) scale(1,1)"><g><path fill="none" stroke="none"/><text fill="#000000" stroke="none" font-family="Arial" font-size="13px" font-style="normal" font-weight="normal" text-decoration="none" x="533" y="561.5">+Arithmetic()</text></g></g><g transform="translate(-62,-37) scale(1,1)"><g><path fill="none" stroke="none"/><text fill="#000000" stroke="none" font-family="Arial" font-size="13px" font-style="normal" font-weight="normal" text-decoration="none" x="533" y="576.5">+get_input()</text></g></g><g transform="translate(-62,-37) scale(1,1)"><path fill="#ffffff" stroke="none" d="M 82.27434055397727 569.6800000000001 C 82.27434055397727 564.8861679360001 86.16018287892273 561 90.95361328125 561 C 95.74704368357727 561 99.63288600852273 564.8861679360001 99.63288600852273 569.6800000000001 C 99.63288600852273 574.473832064 95.74704368357727 578.36 90.95361328125 578.36 C 86.16018287892273 578.36 82.27434055397727 574.473832064 82.27434055397727 569.6800000000001 Z"/></g><g transform="translate(-62,-37) scale(1,1)"><path fill="none" stroke="#000000" d="M 82.27434055397727 569.6800000000001 C 82.27434055397727 564.8861679360001 86.16018287892273 561 90.95361328125 561 C 95.74704368357727 561 99.63288600852273 564.8861679360001 99.63288600852273 569.6800000000001 C 99.63288600852273 574.473832064 95.74704368357727 578.36 90.95361328125 578.36 C 86.16018287892273 578.36 82.27434055397727 574.473832064 82.27434055397727 569.6800000000001 Z" stroke-miterlimit="10"/></g><g transform="translate(-62,-37) scale(1,1)"><path fill="none" stroke="#000000" d="M 90.95361328125 578.36 L 90.95361328125 595.64" stroke-miterlimit="10"/></g><g transform="translate(-62,-37) scale(1,1)"><path fill="none" stroke="#000000" d="M 81.76379509943182 584.84 L 100.14343146306818 584.84" stroke-miterlimit="10"/></g><g transform="translate(-62,-37) scale(1,1)"><path fill="none" stroke="#000000" d="M 90.95361328125 595.64 L 78.18997691761363 613" stroke-miterlimit="10"/></g><g transform="translate(-62,-37) scale(1,1)"><path fill="none" stroke="#000000" d="M 90.95361328125 595.64 L 103.71724964488637 613" stroke-miterlimit="10"/></g><g transform="translate(-62,-37) scale(1,1)"><g><path fill="none" stroke="none"/><text fill="#000000" stroke="none" font-family="Arial" font-size="13px" font-style="normal" font-weight="bold" text-decoration="none" x="77.22998046875" y="633.5">User</text></g></g><g transform="translate(-62,-37) scale(1,1)"><rect fill="#C0C0C0" stroke="none" x="823" y="503" width="100" height="113" opacity="0.2"/></g><g transform="translate(-62,-37) scale(1,1)"><rect fill="#ffffff" stroke="none" x="816" y="496" width="100" height="113"/></g><g transform="translate(-62,-37) scale(1,1)"><path fill="none" stroke="#000000" d="M 816 496 L 916 496 L 916 609 L 816 609 L 816 496 Z Z" stroke-miterlimit="10"/></g><g transform="translate(-62,-37) scale(1,1)"><path fill="none" stroke="#000000" d="M 816 534 L 916 534" stroke-miterlimit="10"/></g><g transform="translate(-62,-37) scale(1,1)"><path fill="none" stroke="#000000" d="M 816 587 L 916 587" stroke-miterlimit="10"/></g><g transform="translate(-62,-37) scale(1,1)"><g><path fill="none" stroke="none"/><text fill="#000000" stroke="none" font-family="Arial" font-size="13px" font-style="normal" font-weight="normal" text-decoration="none" x="843.234130859375" y="513.5">«entity»</text></g></g><g transform="translate(-62,-37) scale(1,1)"><g><path fill="none" stroke="none"/><text fill="#000000" stroke="none" font-family="Arial" font-size="13px" font-style="normal" font-weight="bold" text-decoration="none" x="825.8955078125" y="528.5">LB_Organizer</text></g></g><g transform="translate(-62,-37) scale(1,1)"><g><path fill="none" stroke="none"/><text fill="#000000" stroke="none" font-family="Arial" font-size="13px" font-style="normal" font-weight="normal" text-decoration="none" x="821" y="551.5">+Rank</text></g></g><g transform="translate(-62,-37) scale(1,1)"><g><path fill="none" stroke="none"/><text fill="#000000" stroke="none" font-family="Arial" font-size="13px" font-style="normal" font-weight="normal" text-decoration="none" x="821" y="566.5">+Rank_ID</text></g></g><g transform="translate(-62,-37) scale(1,1)"><g><path fill="none" stroke="none"/><text fill="#000000" stroke="none" font-family="Arial" font-size="13px" font-style="normal" font-weight="normal" text-decoration="none" x="821" y="581.5">+Rank_workout</text></g></g><g transform="translate(-62,-37) scale(1,1)"><g><path fill="none" stroke="none"/><text fill="#000000" stroke="none" font-family="Arial" font-size="13px" font-style="normal" font-weight="normal" text-decoration="none" x="821" y="604.5">+get_index()</text></g></g><g transform="translate(-62,-37) scale(1,1)"><path fill="none" stroke="#000000" d="M 360 232 L 360 173" stroke-miterlimit="10"/></g><g transform="translate(-62,-37) scale(1,1)"><path fill="none" stroke="#000000" d="M 364.209517756016 183.16267485762415 L 360 173 L 355.790482243984 183.16267485762415" stroke-miterlimit="10"/></g><g transform="translate(-62,-37) scale(1,1)"><g><path fill="none" stroke="none"/><text fill="#000000" stroke="none" font-family="Arial" font-size="13px" font-style="normal" font-weight="normal" text-decoration="none" x="298" y="208">+redirect</text></g></g><g transform="translate(-62,-37) scale(1,1)"><path fill="none" stroke="#000000" d="M 110 579 L 136 579 L 136 529" stroke-miterlimit="10"/></g><g transform="translate(-62,-37) scale(1,1)"><g><path fill="none" stroke="none"/><text fill="#000000" stroke="none" font-family="Arial" font-size="13px" font-style="normal" font-weight="normal" text-decoration="none" x="142" y="556">+interact</text></g></g><g transform="translate(-62,-37) scale(1,1)"><path fill="none" stroke="#000000" d="M 968 147 L 927 147" stroke-miterlimit="10"/></g><g transform="translate(-62,-37) scale(1,1)"><path fill="none" stroke="#000000" d="M 552 347 L 552 384 L 138 384 L 138 416" stroke-miterlimit="10"/></g><g transform="translate(-62,-37) scale(1,1)"><path fill="none" stroke="#000000" d="M 133.790482243984 405.83732514237585 L 138 416 L 142.209517756016 405.83732514237585" stroke-miterlimit="10"/></g><g transform="translate(-62,-37) scale(1,1)"><g><path fill="none" stroke="none"/><text fill="#000000" stroke="none" font-family="Arial" font-size="13px" font-style="normal" font-weight="normal" text-decoration="none" x="215" y="378">+flow of data</text></g></g><g transform="translate(-62,-37) scale(1,1)"><path fill="none" stroke="#000000" d="M 112 416 L 112 312 L 312 312" stroke-miterlimit="10"/></g><g transform="translate(-62,-37) scale(1,1)"><path fill="none" stroke="#000000" d="M 301.83732514237585 316.209517756016 L 312 312 L 301.83732514237585 307.790482243984" stroke-miterlimit="10"/></g><g transform="translate(-62,-37) scale(1,1)"><g><path fill="none" stroke="none"/><text fill="#000000" stroke="none" font-family="Arial" font-size="13px" font-style="normal" font-weight="normal" text-decoration="none" x="159" y="309">+redirect</text></g></g><g transform="translate(-62,-37) scale(1,1)"><path fill="none" stroke="#000000" d="M 457 146 L 544 146" stroke-miterlimit="10"/></g><g transform="translate(-62,-37) scale(1,1)"><path fill="none" stroke="#000000" d="M 533.8373251423759 150.209517756016 L 544 146 L 533.8373251423758 141.790482243984" stroke-miterlimit="10"/></g><g transform="translate(-62,-37) scale(1,1)"><g><path fill="none" stroke="none"/><text fill="#000000" stroke="none" font-family="Arial" font-size="13px" font-style="normal" font-weight="normal" text-decoration="none" x="468" y="138">+get profile</text></g></g><g transform="translate(-62,-37) scale(1,1)"><path fill="none" stroke="#000000" d="M 664 144 L 792 144" stroke-miterlimit="10"/></g><g transform="translate(-62,-37) scale(1,1)"><g><path fill="none" stroke="none"/><text fill="#000000" stroke="none" font-family="Arial" font-size="13px" font-style="normal" font-weight="normal" text-decoration="none" x="671" y="140">+store or retrieve</text></g></g><g transform="translate(-62,-37) scale(1,1)"><path fill="none" stroke="#000000" d="M 457 160 L 496 160 L 496 368 L 792 368" stroke-miterlimit="10"/></g><g transform="translate(-62,-37) scale(1,1)"><path fill="none" stroke="#000000" d="M 781.8373251423759 372.209517756016 L 792 368 L 781.8373251423758 363.790482243984" stroke-miterlimit="10"/></g><g transform="translate(-62,-37) scale(1,1)"><g><path fill="none" stroke="none"/><text fill="#000000" stroke="none" font-family="Arial" font-size="13px" font-style="normal" font-weight="normal" text-decoration="none" x="679" y="365">+get google map</text></g></g><g transform="translate(-62,-37) scale(1,1)"><path fill="none" stroke="#000000" d="M 859 223 L 859 256 L 675 256" stroke-miterlimit="10"/></g><g transform="translate(-62,-37) scale(1,1)"><g><path fill="none" stroke="none"/><text fill="#000000" stroke="none" font-family="Arial" font-size="13px" font-style="normal" font-weight="normal" text-decoration="none" x="696" y="252">+get or restore data</text></g></g><g transform="translate(-62,-37) scale(1,1)"><path fill="none" stroke="#000000" d="M 675 304 L 792 304" stroke-miterlimit="10"/></g><g transform="translate(-62,-37) scale(1,1)"><path fill="none" stroke="#000000" d="M 781.8373251423759 308.209517756016 L 792 304 L 781.8373251423758 299.790482243984" stroke-miterlimit="10"/></g><g transform="translate(-62,-37) scale(1,1)"><g><path fill="none" stroke="none"/><text fill="#000000" stroke="none" font-family="Arial" font-size="13px" font-style="normal" font-weight="normal" text-decoration="none" x="695" y="302">+flow of data</text></g></g><g transform="translate(-62,-37) scale(1,1)"><path fill="none" stroke="#000000" d="M 568 347 L 568 496" stroke-miterlimit="10"/></g><g transform="translate(-62,-37) scale(1,1)"><g><path fill="none" stroke="none"/><text fill="#000000" stroke="none" font-family="Arial" font-size="13px" font-style="normal" font-weight="normal" text-decoration="none" x="495" y="460">+arithmetic</text></g></g><g transform="translate(-62,-37) scale(1,1)"><path fill="none" stroke="#000000" d="M 584 581 L 584 640 L 866 640 L 866 609" stroke-miterlimit="10"/></g><g transform="translate(-62,-37) scale(1,1)"><path fill="none" stroke="#000000" d="M 870.209517756016 619.1626748576241 L 866 609 L 861.790482243984 619.1626748576241" stroke-miterlimit="10"/></g><g transform="translate(-62,-37) scale(1,1)"><g><path fill="none" stroke="none"/><text fill="#000000" stroke="none" font-family="Arial" font-size="13px" font-style="normal" font-weight="normal" text-decoration="none" x="591" y="637">+calculate rank</text></g></g><g transform="translate(-62,-37) scale(1,1)"><path fill="none" stroke="#000000" d="M 207 464 L 264 464 L 264 496" stroke-miterlimit="10"/></g><g transform="translate(-62,-37) scale(1,1)"><path fill="none" stroke="#000000" d="M 259.790482243984 485.83732514237585 L 264 496 L 268.209517756016 485.83732514237585" stroke-miterlimit="10"/></g><g transform="translate(-62,-37) scale(1,1)"><g><path fill="none" stroke="none"/><text fill="#000000" stroke="none" font-family="Arial" font-size="13px" font-style="normal" font-weight="normal" text-decoration="none" x="215" y="460">+show page</text></g></g><g transform="translate(-62,-37) scale(1,1)"><path fill="none" stroke="#000000" d="M 664 347 L 664 464 L 866 464 L 866 496" stroke-miterlimit="10"/></g><g transform="translate(-62,-37) scale(1,1)"><path fill="none" stroke="#000000" d="M 861.790482243984 485.83732514237585 L 866 496 L 870.209517756016 485.83732514237585" stroke-miterlimit="10"/></g><g transform="translate(-62,-37) scale(1,1)"><g><path fill="none" stroke="none"/><text fill="#000000" stroke="none" font-family="Arial" font-size="13px" font-style="normal" font-weight="normal" text-decoration="none" x="711" y="460">+get ID &amp; Workout</text></g></g><g transform="translate(-62,-37) scale(1,1)"><path fill="none" stroke="#000000" d="M 584 347 L 584 480 L 704 480 L 704 496" stroke-miterlimit="10"/></g><g transform="translate(-62,-37) scale(1,1)"><path fill="none" stroke="#000000" d="M 699.790482243984 485.83732514237585 L 704 496 L 708.209517756016 485.83732514237585" stroke-miterlimit="10"/></g><g transform="translate(-62,-37) scale(1,1)"><g><path fill="none" stroke="none"/><text fill="#000000" stroke="none" font-family="Arial" font-size="13px" font-style="normal" font-weight="normal" text-decoration="none" x="588" y="458">+get events</text></g></g><g transform="translate(-62,-37) scale(1,1)"><path fill="none" stroke="#000000" d="M 728 496 L 728 480 L 960 480 L 960 256 L 880 256 L 880 223" stroke-miterlimit="10"/></g><g transform="translate(-62,-37) scale(1,1)"><g><path fill="none" stroke="none"/><text fill="#000000" stroke="none" font-family="Arial" font-size="13px" font-style="normal" font-weight="normal" text-decoration="none" x="888" y="477">+save data</text></g></g><g transform="translate(-62,-37) scale(1,1)"><path fill="none" stroke="#000000" d="M 110 596 L 224 596" stroke-miterlimit="10"/></g><g transform="translate(-62,-37) scale(1,1)"><g><path fill="none" stroke="none"/><text fill="#000000" stroke="none" font-family="Arial" font-size="13px" font-style="normal" font-weight="normal" text-decoration="none" x="151" y="588">+view</text></g></g><g transform="translate(-62,-37) scale(1,1)"><rect fill="#C0C0C0" stroke="none" x="143" y="207" width="116.6435546875" height="85" opacity="0.2"/></g><g transform="translate(-62,-37) scale(1,1)"><rect fill="#ffffff" stroke="none" x="136" y="200" width="116.6435546875" height="85"/></g><g transform="translate(-62,-37) scale(1,1)"><path fill="none" stroke="#000000" d="M 136 200 L 252.6435546875 200 L 252.6435546875 285 L 136 285 L 136 200 Z Z" stroke-miterlimit="10"/></g><g transform="translate(-62,-37) scale(1,1)"><path fill="none" stroke="#000000" d="M 136 238 L 252.6435546875 238" stroke-miterlimit="10"/></g><g transform="translate(-62,-37) scale(1,1)"><path fill="none" stroke="#000000" d="M 136 248 L 252.6435546875 248" stroke-miterlimit="10"/></g><g transform="translate(-62,-37) scale(1,1)"><g><path fill="none" stroke="none"/><text fill="#000000" stroke="none" font-family="Arial" font-size="13px" font-style="normal" font-weight="normal" text-decoration="none" x="171.555908203125" y="217.5">«entity»</text></g></g><g transform="translate(-62,-37) scale(1,1)"><g><path fill="none" stroke="none"/><text fill="#000000" stroke="none" font-family="Arial" font-size="13px" font-style="normal" font-weight="bold" text-decoration="none" x="144.108642578125" y="232.5">Tweets_Collector</text></g></g><g transform="translate(-62,-37) scale(1,1)"><g><path fill="none" stroke="none"/><text fill="#000000" stroke="none" font-family="Arial" font-size="13px" font-style="normal" font-weight="normal" text-decoration="none" x="141" y="265.5">+get_tweets()</text></g></g><g transform="translate(-62,-37) scale(1,1)"><g><path fill="none" stroke="none"/><text fill="#000000" stroke="none" font-family="Arial" font-size="13px" font-style="normal" font-weight="normal" text-decoration="none" x="141" y="280.5">+transfer_tweets()</text></g></g><g transform="translate(-62,-37) scale(1,1)"><path fill="none" stroke="#000000" d="M 304 160 L 232 160 L 232 200" stroke-miterlimit="10"/></g><g transform="translate(-62,-37) scale(1,1)"><path fill="none" stroke="#000000" d="M 227.790482243984 189.83732514237585 L 232 200 L 236.209517756016 189.83732514237585" stroke-miterlimit="10"/></g><g transform="translate(-62,-37) scale(1,1)"><g><path fill="none" stroke="none"/><text fill="#000000" stroke="none" font-family="Arial" font-size="13px" font-style="normal" font-weight="normal" text-decoration="none" x="215" y="157">+send tweets</text></g></g><g transform="translate(-62,-37) scale(1,1)"><path fill="none" stroke="#000000" d="M 176 200 L 176 64 L 864 64 L 864 80" stroke-miterlimit="10"/></g><g transform="translate(-62,-37) scale(1,1)"><path fill="none" stroke="#000000" d="M 859.790482243984 69.83732514237585 L 864 80 L 868.209517756016 69.83732514237585" stroke-miterlimit="10"/></g><g transform="translate(-62,-37) scale(1,1)"><g><path fill="none" stroke="none"/><text fill="#000000" stroke="none" font-family="Arial" font-size="13px" font-style="normal" font-weight="normal" text-decoration="none" x="464" y="60">+store tweets</text></g></g><g transform="translate(-62,-37) scale(1,1)"><rect fill="#C0C0C0" stroke="none" x="375" y="503" width="121.3408203125" height="143" opacity="0.2"/></g><g transform="translate(-62,-37) scale(1,1)"><rect fill="#ffffff" stroke="none" x="368" y="496" width="121.3408203125" height="143"/></g><g transform="translate(-62,-37) scale(1,1)"><path fill="none" stroke="#000000" d="M 368 496 L 489.3408203125 496 L 489.3408203125 639 L 368 639 L 368 496 Z Z" stroke-miterlimit="10"/></g><g transform="translate(-62,-37) scale(1,1)"><path fill="none" stroke="#000000" d="M 368 534 L 489.3408203125 534" stroke-miterlimit="10"/></g><g transform="translate(-62,-37) scale(1,1)"><path fill="none" stroke="#000000" d="M 368 587 L 489.3408203125 587" stroke-miterlimit="10"/></g><g transform="translate(-62,-37) scale(1,1)"><g><path fill="none" stroke="none"/><text fill="#000000" stroke="none" font-family="Arial" font-size="13px" font-style="normal" font-weight="normal" text-decoration="none" x="405.904541015625" y="513.5">«entity»</text></g></g><g transform="translate(-62,-37) scale(1,1)"><g><path fill="none" stroke="none"/><text fill="#000000" stroke="none" font-family="Arial" font-size="13px" font-style="normal" font-weight="bold" text-decoration="none" x="387.8486328125" y="528.5">BBS_Platform</text></g></g><g transform="translate(-62,-37) scale(1,1)"><g><path fill="none" stroke="none"/><text fill="#000000" stroke="none" font-family="Arial" font-size="13px" font-style="normal" font-weight="normal" text-decoration="none" x="373" y="551.5">+Post</text></g></g><g transform="translate(-62,-37) scale(1,1)"><g><path fill="none" stroke="none"/><text fill="#000000" stroke="none" font-family="Arial" font-size="13px" font-style="normal" font-weight="normal" text-decoration="none" x="373" y="566.5">+Comments</text></g></g><g transform="translate(-62,-37) scale(1,1)"><g><path fill="none" stroke="none"/><text fill="#000000" stroke="none" font-family="Arial" font-size="13px" font-style="normal" font-weight="normal" text-decoration="none" x="373" y="581.5">+User_Info</text></g></g><g transform="translate(-62,-37) scale(1,1)"><g><path fill="none" stroke="none"/><text fill="#000000" stroke="none" font-family="Arial" font-size="13px" font-style="normal" font-weight="normal" text-decoration="none" x="373" y="604.5">+store_comments()</text></g></g><g transform="translate(-62,-37) scale(1,1)"><g><path fill="none" stroke="none"/><text fill="#000000" stroke="none" font-family="Arial" font-size="13px" font-style="normal" font-weight="normal" text-decoration="none" x="373" y="619.5">+store_posts()</text></g></g><g transform="translate(-62,-37) scale(1,1)"><g><path fill="none" stroke="none"/><text fill="#000000" stroke="none" font-family="Arial" font-size="13px" font-style="normal" font-weight="normal" text-decoration="none" x="373" y="634.5">+store_user_info()</text></g></g><g transform="translate(-62,-37) scale(1,1)"><path fill="none" stroke="#000000" d="M 207 432 L 432 432 L 432 496" stroke-miterlimit="10"/></g><g transform="translate(-62,-37) scale(1,1)"><path fill="none" stroke="#000000" d="M 427.790482243984 485.83732514237585 L 432 496 L 436.209517756016 485.83732514237585" stroke-miterlimit="10"/></g><g transform="translate(-62,-37) scale(1,1)"><g><path fill="none" stroke="none"/><text fill="#000000" stroke="none" font-family="Arial" font-size="13px" font-style="normal" font-weight="normal" text-decoration="none" x="215" y="429">+post or comment</text></g></g><g transform="translate(-62,-37) scale(1,1)"><path fill="none" stroke="#000000" d="M 448 639 L 448 672 L 248 672 L 248 626" stroke-miterlimit="10"/></g><g transform="translate(-62,-37) scale(1,1)"><path fill="none" stroke="#000000" d="M 252.209517756016 636.1626748576241 L 248 626 L 243.790482243984 636.1626748576241" stroke-miterlimit="10"/></g><g transform="translate(-62,-37) scale(1,1)"><g><path fill="none" stroke="none"/><text fill="#000000" stroke="none" font-family="Arial" font-size="13px" font-style="normal" font-weight="normal" text-decoration="none" x="312" y="667">+show BBS</text></g></g><g transform="translate(-62,-37) scale(1,1)"><path fill="none" stroke="#000000" d="M 792 408 L 336 408 L 336 552 L 322 552" stroke-miterlimit="10"/></g><g transform="translate(-62,-37) scale(1,1)"><path fill="none" stroke="#000000" d="M 332.16267485762415 547.790482243984 L 322 552 L 332.16267485762415 556.209517756016" stroke-miterlimit="10"/></g><g transform="translate(-62,-37) scale(1,1)"><g><path fill="none" stroke="none"/><text fill="#000000" stroke="none" font-family="Arial" font-size="13px" font-style="normal" font-weight="normal" text-decoration="none" x="415" y="405">+show pattern</text></g></g><g transform="translate(-62,-37) scale(1,1)"><path fill="none" stroke="#000000" d="M 552 581 L 552 696 L 264 696 L 264 626" stroke-miterlimit="10"/></g><g transform="translate(-62,-37) scale(1,1)"><path fill="none" stroke="#000000" d="M 268.209517756016 636.1626748576241 L 264 626 L 259.790482243984 636.1626748576241" stroke-miterlimit="10"/></g><g transform="translate(-62,-37) scale(1,1)"><g><path fill="none" stroke="none"/><text fill="#000000" stroke="none" font-family="Arial" font-size="13px" font-style="normal" font-weight="normal" text-decoration="none" x="312" y="690">+show calculator</text></g></g><g transform="translate(-62,-37) scale(1,1)"><path fill="none" stroke="#000000" d="M 720 594 L 720 720 L 280 720 L 280 626" stroke-miterlimit="10"/></g><g transform="translate(-62,-37) scale(1,1)"><path fill="none" stroke="#000000" d="M 284.209517756016 636.1626748576241 L 280 626 L 275.790482243984 636.1626748576241" stroke-miterlimit="10"/></g><g transform="translate(-62,-37) scale(1,1)"><g><path fill="none" stroke="none"/><text fill="#000000" stroke="none" font-family="Arial" font-size="13px" font-style="normal" font-weight="normal" text-decoration="none" x="312" y="716">+show calendar</text></g></g><g transform="translate(-62,-37) scale(1,1)"><path fill="none" stroke="#000000" d="M 848 609 L 848 744 L 296 744 L 296 626" stroke-miterlimit="10"/></g><g transform="translate(-62,-37) scale(1,1)"><path fill="none" stroke="#000000" d="M 300.209517756016 636.1626748576241 L 296 626 L 291.790482243984 636.1626748576241" stroke-miterlimit="10"/></g><g transform="translate(-62,-37) scale(1,1)"><g><path fill="none" stroke="none"/><text fill="#000000" stroke="none" font-family="Arial" font-size="13px" font-style="normal" font-weight="normal" text-decoration="none" x="311" y="740">+show leaderboard</text></g></g><g transform="translate(-62,-37) scale(1,1)"><path fill="none" stroke="#000000" d="M 489 616 L 512 616 L 512 672 L 992 672 L 992 200 L 927 200" stroke-miterlimit="10"/></g><g transform="translate(-62,-37) scale(1,1)"><g><path fill="none" stroke="none"/><text fill="#000000" stroke="none" font-family="Arial" font-size="13px" font-style="normal" font-weight="normal" text-decoration="none" x="863" y="669">+store &amp; retrieve data</text></g></g><g transform="translate(-62,-37) scale(1,1)"><path fill="none" stroke="#000000" d="M 400 232 L 400 200 L 544 200" stroke-miterlimit="10"/></g><g transform="translate(-62,-37) scale(1,1)"><path fill="none" stroke="#000000" d="M 533.8373251423759 204.209517756016 L 544 200 L 533.8373251423758 195.790482243984" stroke-miterlimit="10"/></g><g transform="translate(-62,-37) scale(1,1)"><g><path fill="none" stroke="none"/><text fill="#000000" stroke="none" font-family="Arial" font-size="13px" font-style="normal" font-weight="normal" text-decoration="none" x="415" y="197">+redirect</text></g></g></g></svg>