<svg version="1.1" xmlns="http://www.w3.org/2000/svg" xmlns:xlink="http://www.w3.org/1999/xlink" width="924" height="748"><defs/><g><g transform="translate(-38,10) scale(1,1)"><path fill="none" stroke="#000000" d="M 48 0 L 952 0 L 952 728 L 48 728 L 48 0" stroke-miterlimit="10"/></g><g transform="translate(-38,10) scale(1,1)"><path fill="#ffffff" stroke="none" d="M 48 0 L 48 22 L 168.04443359375 22 L 179.04443359375 11 L 179.04443359375 0 L 48 0"/></g><g transform="translate(-38,10) scale(1,1)"><path fill="none" stroke="#000000" d="M 48 0 L 48 22 L 168.04443359375 22 L 179.04443359375 11 L 179.04443359375 0 L 48 0 L 48 0" stroke-miterlimit="10"/></g><g transform="translate(-38,10) scale(1,1)"><g><path fill="none" stroke="none"/><text fill="#000000" stroke="none" font-family="Arial" font-size="13px" font-style="normal" font-weight="normal" text-decoration="none" x="118.97900390625" y="17.5">Rigister</text></g></g><g transform="translate(-38,10) scale(1,1)"><g><path fill="none" stroke="none"/><text fill="#000000" stroke="none" font-family="Arial" font-size="13px" font-style="normal" font-weight="bold" text-decoration="none" x="53" y="17.5">interaction</text></g></g><g transform="translate(-38,10) scale(1,1)"><rect fill="#C0C0C0" stroke="none" x="215" y="47" width="80" height="39" opacity="0.2"/></g><g transform="translate(-38,10) scale(1,1)"><rect fill="#ffffff" stroke="none" x="208" y="40" width="80" height="39"/></g><g transform="translate(-38,10) scale(1,1)"><path fill="none" stroke="#000000" d="M 208 40 L 288 40 L 288 79 L 208 79 L 208 40 Z Z" stroke-miterlimit="10"/></g><g transform="translate(-38,10) scale(1,1)"><g><path fill="none" stroke="none"/><text fill="#000000" stroke="none" font-family="Arial" font-size="13px" font-style="normal" font-weight="bold" text-decoration="none" x="222.707763671875" y="59.5">Interface</text></g></g><g transform="translate(-38,10) scale(1,1)"><path fill="none" stroke="#000000" d="M 249.5 80 L 249.5 704" stroke-miterlimit="10" stroke-dasharray="3"/></g><g transform="translate(-38,10) scale(1,1)"><rect fill="#C0C0C0" stroke="none" x="687" y="47" width="76.80810546875" height="39" opacity="0.2"/></g><g transform="translate(-38,10) scale(1,1)"><rect fill="#ffffff" stroke="none" x="680" y="40" width="76.80810546875" height="39"/></g><g transform="translate(-38,10) scale(1,1)"><path fill="none" stroke="#000000" d="M 680 40 L 756.80810546875 40 L 756.80810546875 79 L 680 79 L 680 40 Z Z" stroke-miterlimit="10"/></g><g transform="translate(-38,10) scale(1,1)"><g><path fill="none" stroke="none"/><text fill="#000000" stroke="none" font-family="Arial" font-size="13px" font-style="normal" font-weight="bold" text-decoration="none" x="690.5791015625" y="59.5">Database</text></g></g><g transform="translate(-38,10) scale(1,1)"><path fill="none" stroke="#000000" d="M 719.5 80 L 719.5 704" stroke-miterlimit="10" stroke-dasharray="3"/></g><g transform="translate(-38,10) scale(1,1)"><path fill="#ffffff" stroke="none" d="M 114.8631454190341 47.3 C 114.8631454190341 43.82060576 117.7415471412159 41 121.292236328125 41 C 124.8429255150341 41 127.72132723721592 43.82060576 127.72132723721592 47.3 C 127.72132723721592 50.779394239999995 124.8429255150341 53.6 121.292236328125 53.6 C 117.7415471412159 53.6 114.8631454190341 50.779394239999995 114.8631454190341 47.3 Z"/></g><g transform="translate(-38,10) scale(1,1)"><path fill="none" stroke="#000000" d="M 114.8631454190341 47.3 C 114.8631454190341 43.82060576 117.7415471412159 41 121.292236328125 41 C 124.8429255150341 41 127.72132723721592 43.82060576 127.72132723721592 47.3 C 127.72132723721592 50.779394239999995 124.8429255150341 53.6 121.292236328125 53.6 C 117.7415471412159 53.6 114.8631454190341 50.779394239999995 114.8631454190341 47.3 Z" stroke-miterlimit="10"/></g><g transform="translate(-38,10) scale(1,1)"><path fill="none" stroke="#000000" d="M 121.292236328125 53.6 L 121.292236328125 66.4" stroke-miterlimit="10"/></g><g transform="translate(-38,10) scale(1,1)"><path fill="none" stroke="#000000" d="M 114.48496360085228 58.4 L 128.09950905539773 58.4" stroke-miterlimit="10"/></g><g transform="translate(-38,10) scale(1,1)"><path fill="none" stroke="#000000" d="M 121.292236328125 66.4 L 111.83769087357955 79" stroke-miterlimit="10"/></g><g transform="translate(-38,10) scale(1,1)"><path fill="none" stroke="#000000" d="M 121.292236328125 66.4 L 130.74678178267047 79" stroke-miterlimit="10"/></g><g transform="translate(-38,10) scale(1,1)"><g><path fill="none" stroke="none"/><text fill="#000000" stroke="none" font-family="Arial" font-size="13px" font-style="normal" font-weight="bold" text-decoration="none" x="83.358642578125" y="99.5">Lifeline: User</text></g></g><g transform="translate(-38,10) scale(1,1)"><path fill="none" stroke="#000000" d="M 122.5 105 L 122.5 704" stroke-miterlimit="10" stroke-dasharray="3"/></g><g transform="translate(-38,10) scale(1,1)"><rect fill="#C0C0C0" stroke="none" x="567" y="47" width="110.00634765625" height="39" opacity="0.2"/></g><g transform="translate(-38,10) scale(1,1)"><rect fill="#ffffff" stroke="none" x="560" y="40" width="110.00634765625" height="39"/></g><g transform="translate(-38,10) scale(1,1)"><path fill="none" stroke="#000000" d="M 560 40 L 670.00634765625 40 L 670.00634765625 79 L 560 79 L 560 40 Z Z" stroke-miterlimit="10"/></g><g transform="translate(-38,10) scale(1,1)"><g><path fill="none" stroke="none"/><text fill="#000000" stroke="none" font-family="Arial" font-size="13px" font-style="normal" font-weight="bold" text-decoration="none" x="572.369140625" y="59.5">DB_Connector</text></g></g><g transform="translate(-38,10) scale(1,1)"><path fill="none" stroke="#000000" d="M 616.5 80 L 616.5 704" stroke-miterlimit="10" stroke-dasharray="3"/></g><g transform="translate(-38,10) scale(1,1)"><path fill="none" stroke="#000000" d="M 72 192 L 864 192 L 864 648 L 72 648 L 72 192" stroke-miterlimit="10"/></g><g transform="translate(-38,10) scale(1,1)"><path fill="#ffffff" stroke="none" d="M 72 192 L 72 214 L 262.1416015625 214 L 273.1416015625 203 L 273.1416015625 192 L 72 192"/></g><g transform="translate(-38,10) scale(1,1)"><path fill="none" stroke="#000000" d="M 72 192 L 72 214 L 262.1416015625 214 L 273.1416015625 203 L 273.1416015625 192 L 72 192 L 72 192" stroke-miterlimit="10"/></g><g transform="translate(-38,10) scale(1,1)"><g><path fill="none" stroke="none"/><text fill="#000000" stroke="none" font-family="Arial" font-size="13px" font-style="normal" font-weight="normal" text-decoration="none" x="103.9599609375" y="209.5">Twitter Account Available?</text></g></g><g transform="translate(-38,10) scale(1,1)"><g><path fill="none" stroke="none"/><text fill="#000000" stroke="none" font-family="Arial" font-size="13px" font-style="normal" font-weight="bold" text-decoration="none" x="77" y="209.5">seq</text></g></g><g transform="translate(-38,10) scale(1,1)"><path fill="none" stroke="#000000" d="M 72 449 L 864 449" stroke-miterlimit="10" stroke-dasharray="10,3"/></g><g transform="translate(-38,10) scale(1,1)"><rect fill="#C0C0C0" stroke="none" x="423" y="47" width="129.50634765625" height="39" opacity="0.2"/></g><g transform="translate(-38,10) scale(1,1)"><rect fill="#ffffff" stroke="none" x="416" y="40" width="129.50634765625" height="39"/></g><g transform="translate(-38,10) scale(1,1)"><path fill="none" stroke="#000000" d="M 416 40 L 545.50634765625 40 L 545.50634765625 79 L 416 79 L 416 40 Z Z" stroke-miterlimit="10"/></g><g transform="translate(-38,10) scale(1,1)"><g><path fill="none" stroke="none"/><text fill="#000000" stroke="none" font-family="Arial" font-size="13px" font-style="normal" font-weight="bold" text-decoration="none" x="430.536865234375" y="59.5">Profile_Controllor</text></g></g><g transform="translate(-38,10) scale(1,1)"><path fill="none" stroke="#000000" d="M 481.5 80 L 481.5 704" stroke-miterlimit="10" stroke-dasharray="3"/></g><g transform="translate(-38,10) scale(1,1)"><rect fill="#C0C0C0" stroke="none" x="775" y="47" width="91.24267578125" height="39" opacity="0.2"/></g><g transform="translate(-38,10) scale(1,1)"><rect fill="#ffffff" stroke="none" x="768" y="40" width="91.24267578125" height="39"/></g><g transform="translate(-38,10) scale(1,1)"><path fill="none" stroke="#000000" d="M 768 40 L 859.24267578125 40 L 859.24267578125 79 L 768 79 L 768 40 Z Z" stroke-miterlimit="10"/></g><g transform="translate(-38,10) scale(1,1)"><g><path fill="none" stroke="none"/><text fill="#000000" stroke="none" font-family="Arial" font-size="13px" font-style="normal" font-weight="bold" text-decoration="none" x="780.0263671875" y="59.5">Third_Party</text></g></g><g transform="translate(-38,10) scale(1,1)"><path fill="none" stroke="#000000" d="M 814.5 80 L 814.5 704" stroke-miterlimit="10" stroke-dasharray="3"/></g><g transform="translate(-38,10) scale(1,1)"><rect fill="#C0C0C0" stroke="none" x="311" y="47" width="103.5" height="39" opacity="0.2"/></g><g transform="translate(-38,10) scale(1,1)"><rect fill="#ffffff" stroke="none" x="304" y="40" width="103.5" height="39"/></g><g transform="translate(-38,10) scale(1,1)"><path fill="none" stroke="#000000" d="M 304 40 L 407.5 40 L 407.5 79 L 304 79 L 304 40 Z Z" stroke-miterlimit="10"/></g><g transform="translate(-38,10) scale(1,1)"><g><path fill="none" stroke="none"/><text fill="#000000" stroke="none" font-family="Arial" font-size="13px" font-style="normal" font-weight="bold" text-decoration="none" x="317.4482421875" y="59.5">Authenticator</text></g></g><g transform="translate(-38,10) scale(1,1)"><path fill="none" stroke="#000000" d="M 356.5 80 L 356.5 704" stroke-miterlimit="10" stroke-dasharray="3"/></g><g transform="translate(-38,10) scale(1,1)"><path fill="none" stroke="#000000" d="M 622 392 L 712 392" stroke-miterlimit="10"/></g><g transform="translate(-38,10) scale(1,1)"><path fill="#000000" stroke="none" d="M 701.8373251423759 396.209517756016 L 712 392 L 701.8373251423758 387.790482243984"/></g><g transform="translate(-38,10) scale(1,1)"><path fill="none" stroke="#000000" d="M 701.8373251423759 396.209517756016 L 712 392 L 701.8373251423758 387.790482243984 L 701.8373251423759 396.209517756016" stroke-miterlimit="10"/></g><g transform="translate(-38,10) scale(1,1)"><g><path fill="none" stroke="none"/><text fill="#000000" stroke="none" font-family="Arial" font-size="13px" font-style="normal" font-weight="normal" text-decoration="none" x="619" y="389">72 : store_profile</text></g></g><g transform="translate(-38,10) scale(1,1)"><rect fill="#ffffff" stroke="none" x="712" y="392" width="13" height="28"/></g><g transform="translate(-38,10) scale(1,1)"><path fill="none" stroke="#000000" d="M 712 392 L 725 392 L 725 420 L 712 420 L 712 392 Z Z" stroke-miterlimit="10"/></g><g transform="translate(-38,10) scale(1,1)"><path fill="none" stroke="#000000" d="M 255 152 L 349 152" stroke-miterlimit="10"/></g><g transform="translate(-38,10) scale(1,1)"><path fill="#000000" stroke="none" d="M 338.83732514237585 156.209517756016 L 349 152 L 338.83732514237585 147.790482243984"/></g><g transform="translate(-38,10) scale(1,1)"><path fill="none" stroke="#000000" d="M 338.83732514237585 156.209517756016 L 349 152 L 338.83732514237585 147.790482243984 L 338.83732514237585 156.209517756016" stroke-miterlimit="10"/></g><g transform="translate(-38,10) scale(1,1)"><g><path fill="none" stroke="none"/><text fill="#000000" stroke="none" font-family="Arial" font-size="13px" font-style="normal" font-weight="normal" text-decoration="none" x="264" y="148">66 : request</text></g></g><g transform="translate(-38,10) scale(1,1)"><rect fill="#ffffff" stroke="none" x="349" y="152" width="13" height="28"/></g><g transform="translate(-38,10) scale(1,1)"><path fill="none" stroke="#000000" d="M 349 152 L 362 152 L 362 180 L 349 180 L 349 152 Z Z" stroke-miterlimit="10"/></g><g transform="translate(-38,10) scale(1,1)"><path fill="none" stroke="#000000" d="M 122 128 L 242 128" stroke-miterlimit="10"/></g><g transform="translate(-38,10) scale(1,1)"><path fill="#000000" stroke="none" d="M 231.83732514237585 132.209517756016 L 242 128 L 231.83732514237585 123.79048224398402"/></g><g transform="translate(-38,10) scale(1,1)"><path fill="none" stroke="#000000" d="M 231.83732514237585 132.209517756016 L 242 128 L 231.83732514237585 123.79048224398402 L 231.83732514237585 132.209517756016" stroke-miterlimit="10"/></g><g transform="translate(-38,10) scale(1,1)"><g><path fill="none" stroke="none"/><text fill="#000000" stroke="none" font-family="Arial" font-size="13px" font-style="normal" font-weight="normal" text-decoration="none" x="123" y="125">57 : Rigister_request</text></g></g><g transform="translate(-38,10) scale(1,1)"><rect fill="#ffffff" stroke="none" x="242" y="128" width="13" height="28"/></g><g transform="translate(-38,10) scale(1,1)"><path fill="none" stroke="#000000" d="M 242 128 L 255 128 L 255 156 L 242 156 L 242 128 Z Z" stroke-miterlimit="10"/></g><g transform="translate(-38,10) scale(1,1)"><path fill="none" stroke="#000000" d="M 807 344 L 481 344" stroke-miterlimit="10" stroke-dasharray="3"/></g><g transform="translate(-38,10) scale(1,1)"><path fill="none" stroke="#000000" d="M 491.16267485762415 339.790482243984 L 481 344 L 491.16267485762415 348.209517756016" stroke-miterlimit="10"/></g><g transform="translate(-38,10) scale(1,1)"><g><path fill="none" stroke="none"/><text fill="#000000" stroke="none" font-family="Arial" font-size="13px" font-style="normal" font-weight="normal" text-decoration="none" x="500" y="340">63 : send_profile</text></g></g><g transform="translate(-38,10) scale(1,1)"><path fill="none" stroke="#000000" d="M 622 560 L 712 560" stroke-miterlimit="10"/></g><g transform="translate(-38,10) scale(1,1)"><path fill="#000000" stroke="none" d="M 701.8373251423759 564.209517756016 L 712 560 L 701.8373251423758 555.790482243984"/></g><g transform="translate(-38,10) scale(1,1)"><path fill="none" stroke="#000000" d="M 701.8373251423759 564.209517756016 L 712 560 L 701.8373251423758 555.790482243984 L 701.8373251423759 564.209517756016" stroke-miterlimit="10"/></g><g transform="translate(-38,10) scale(1,1)"><g><path fill="none" stroke="none"/><text fill="#000000" stroke="none" font-family="Arial" font-size="13px" font-style="normal" font-weight="normal" text-decoration="none" x="619" y="557">65 : store_profile</text></g></g><g transform="translate(-38,10) scale(1,1)"><rect fill="#ffffff" stroke="none" x="712" y="560" width="13" height="28"/></g><g transform="translate(-38,10) scale(1,1)"><path fill="none" stroke="#000000" d="M 712 560 L 725 560 L 725 588 L 712 588 L 712 560 Z Z" stroke-miterlimit="10"/></g><g transform="translate(-38,10) scale(1,1)"><path fill="none" stroke="#000000" d="M 487 540 L 609 540" stroke-miterlimit="10"/></g><g transform="translate(-38,10) scale(1,1)"><path fill="#000000" stroke="none" d="M 598.8373251423759 544.209517756016 L 609 540 L 598.8373251423758 535.790482243984"/></g><g transform="translate(-38,10) scale(1,1)"><path fill="none" stroke="#000000" d="M 598.8373251423759 544.209517756016 L 609 540 L 598.8373251423758 535.790482243984 L 598.8373251423759 544.209517756016" stroke-miterlimit="10"/></g><g transform="translate(-38,10) scale(1,1)"><g><path fill="none" stroke="none"/><text fill="#000000" stroke="none" font-family="Arial" font-size="13px" font-style="normal" font-weight="normal" text-decoration="none" x="500" y="537">54 : send_profile</text></g></g><g transform="translate(-38,10) scale(1,1)"><rect fill="#ffffff" stroke="none" x="609" y="540" width="13" height="28"/></g><g transform="translate(-38,10) scale(1,1)"><path fill="none" stroke="#000000" d="M 609 540 L 622 540 L 622 568 L 609 568 L 609 540 Z Z" stroke-miterlimit="10"/></g><g transform="translate(-38,10) scale(1,1)"><path fill="none" stroke="#000000" d="M 362 272 L 807 272" stroke-miterlimit="10"/></g><g transform="translate(-38,10) scale(1,1)"><path fill="#000000" stroke="none" d="M 796.8373251423759 276.209517756016 L 807 272 L 796.8373251423758 267.790482243984"/></g><g transform="translate(-38,10) scale(1,1)"><path fill="none" stroke="#000000" d="M 796.8373251423759 276.209517756016 L 807 272 L 796.8373251423758 267.790482243984 L 796.8373251423759 276.209517756016" stroke-miterlimit="10"/></g><g transform="translate(-38,10) scale(1,1)"><g><path fill="none" stroke="none"/><text fill="#000000" stroke="none" font-family="Arial" font-size="13px" font-style="normal" font-weight="normal" text-decoration="none" x="404" y="268">43 : check_account(Account)</text></g></g><g transform="translate(-38,10) scale(1,1)"><rect fill="#ffffff" stroke="none" x="807" y="272" width="13" height="28"/></g><g transform="translate(-38,10) scale(1,1)"><path fill="none" stroke="#000000" d="M 807 272 L 820 272 L 820 300 L 807 300 L 807 272 Z Z" stroke-miterlimit="10"/></g><g transform="translate(-38,10) scale(1,1)"><path fill="none" stroke="#000000" d="M 349 176 L 122 176" stroke-miterlimit="10" stroke-dasharray="3"/></g><g transform="translate(-38,10) scale(1,1)"><path fill="none" stroke="#000000" d="M 132.16267485762415 171.790482243984 L 122 176 L 132.16267485762415 180.209517756016" stroke-miterlimit="10"/></g><g transform="translate(-38,10) scale(1,1)"><g><path fill="none" stroke="none"/><text fill="#000000" stroke="none" font-family="Arial" font-size="13px" font-style="normal" font-weight="normal" text-decoration="none" x="163" y="172">38 : OK</text></g></g><g transform="translate(-38,10) scale(1,1)"><path fill="none" stroke="#000000" d="M 255 492 L 349 492" stroke-miterlimit="10"/></g><g transform="translate(-38,10) scale(1,1)"><path fill="#000000" stroke="none" d="M 338.83732514237585 496.209517756016 L 349 492 L 338.83732514237585 487.790482243984"/></g><g transform="translate(-38,10) scale(1,1)"><path fill="none" stroke="#000000" d="M 338.83732514237585 496.209517756016 L 349 492 L 338.83732514237585 487.790482243984 L 338.83732514237585 496.209517756016" stroke-miterlimit="10"/></g><g transform="translate(-38,10) scale(1,1)"><g><path fill="none" stroke="none"/><text fill="#000000" stroke="none" font-family="Arial" font-size="13px" font-style="normal" font-weight="normal" text-decoration="none" x="262" y="489">49 : Authorize</text></g></g><g transform="translate(-38,10) scale(1,1)"><rect fill="#ffffff" stroke="none" x="349" y="492" width="13" height="28"/></g><g transform="translate(-38,10) scale(1,1)"><path fill="none" stroke="#000000" d="M 349 492 L 362 492 L 362 520 L 349 520 L 349 492 Z Z" stroke-miterlimit="10"/></g><g transform="translate(-38,10) scale(1,1)"><path fill="none" stroke="#000000" d="M 481 607 L 249 607" stroke-miterlimit="10" stroke-dasharray="3"/></g><g transform="translate(-38,10) scale(1,1)"><path fill="none" stroke="#000000" d="M 259.16267485762415 602.790482243984 L 249 607 L 259.16267485762415 611.209517756016" stroke-miterlimit="10"/></g><g transform="translate(-38,10) scale(1,1)"><g><path fill="none" stroke="none"/><text fill="#000000" stroke="none" font-family="Arial" font-size="13px" font-style="normal" font-weight="normal" text-decoration="none" x="279" y="603">51 : OK</text></g></g><g transform="translate(-38,10) scale(1,1)"><path fill="none" stroke="#000000" d="M 719 592 L 481 592" stroke-miterlimit="10" stroke-dasharray="3"/></g><g transform="translate(-38,10) scale(1,1)"><path fill="none" stroke="#000000" d="M 491.16267485762415 587.790482243984 L 481 592 L 491.16267485762415 596.209517756016" stroke-miterlimit="10"/></g><g transform="translate(-38,10) scale(1,1)"><g><path fill="none" stroke="none"/><text fill="#000000" stroke="none" font-family="Arial" font-size="13px" font-style="normal" font-weight="normal" text-decoration="none" x="495" y="588">50 : OK</text></g></g><g transform="translate(-38,10) scale(1,1)"><path fill="none" stroke="#000000" d="M 249 432 L 122 432" stroke-miterlimit="10" stroke-dasharray="3"/></g><g transform="translate(-38,10) scale(1,1)"><path fill="none" stroke="#000000" d="M 132.16267485762415 427.790482243984 L 122 432 L 132.16267485762415 436.209517756016" stroke-miterlimit="10"/></g><g transform="translate(-38,10) scale(1,1)"><g><path fill="none" stroke="none"/><text fill="#000000" stroke="none" font-family="Arial" font-size="13px" font-style="normal" font-weight="normal" text-decoration="none" x="161" y="428">26 : OK</text></g></g><g transform="translate(-38,10) scale(1,1)"><path fill="none" stroke="#000000" d="M 249 616 L 122 616" stroke-miterlimit="10" stroke-dasharray="3"/></g><g transform="translate(-38,10) scale(1,1)"><path fill="none" stroke="#000000" d="M 132.16267485762415 611.790482243984 L 122 616 L 132.16267485762415 620.209517756016" stroke-miterlimit="10"/></g><g transform="translate(-38,10) scale(1,1)"><g><path fill="none" stroke="none"/><text fill="#000000" stroke="none" font-family="Arial" font-size="13px" font-style="normal" font-weight="normal" text-decoration="none" x="161" y="612">25 : OK</text></g></g><g transform="translate(-38,10) scale(1,1)"><path fill="none" stroke="#000000" d="M 481 376 L 609 376" stroke-miterlimit="10"/></g><g transform="translate(-38,10) scale(1,1)"><path fill="#000000" stroke="none" d="M 598.8373251423759 380.209517756016 L 609 376 L 598.8373251423758 371.790482243984"/></g><g transform="translate(-38,10) scale(1,1)"><path fill="none" stroke="#000000" d="M 598.8373251423759 380.209517756016 L 609 376 L 598.8373251423758 371.790482243984 L 598.8373251423759 380.209517756016" stroke-miterlimit="10"/></g><g transform="translate(-38,10) scale(1,1)"><g><path fill="none" stroke="none"/><text fill="#000000" stroke="none" font-family="Arial" font-size="13px" font-style="normal" font-weight="normal" text-decoration="none" x="495" y="372">20 : store_profile</text></g></g><g transform="translate(-38,10) scale(1,1)"><rect fill="#ffffff" stroke="none" x="609" y="376" width="13" height="28"/></g><g transform="translate(-38,10) scale(1,1)"><path fill="none" stroke="#000000" d="M 609 376 L 622 376 L 622 404 L 609 404 L 609 376 Z Z" stroke-miterlimit="10"/></g><g transform="translate(-38,10) scale(1,1)"><path fill="none" stroke="#000000" d="M 356 520 L 474 520" stroke-miterlimit="10"/></g><g transform="translate(-38,10) scale(1,1)"><path fill="#000000" stroke="none" d="M 463.83732514237585 524.209517756016 L 474 520 L 463.83732514237585 515.790482243984"/></g><g transform="translate(-38,10) scale(1,1)"><path fill="none" stroke="#000000" d="M 463.83732514237585 524.209517756016 L 474 520 L 463.83732514237585 515.790482243984 L 463.83732514237585 524.209517756016" stroke-miterlimit="10"/></g><g transform="translate(-38,10) scale(1,1)"><g><path fill="none" stroke="none"/><text fill="#000000" stroke="none" font-family="Arial" font-size="13px" font-style="normal" font-weight="normal" text-decoration="none" x="367" y="517">19 : send_profile</text></g></g><g transform="translate(-38,10) scale(1,1)"><rect fill="#ffffff" stroke="none" x="474" y="520" width="13" height="28"/></g><g transform="translate(-38,10) scale(1,1)"><path fill="none" stroke="#000000" d="M 474 520 L 487 520 L 487 548 L 474 548 L 474 520 Z Z" stroke-miterlimit="10"/></g><g transform="translate(-38,10) scale(1,1)"><path fill="none" stroke="#000000" d="M 481 320 L 807 320" stroke-miterlimit="10"/></g><g transform="translate(-38,10) scale(1,1)"><path fill="#000000" stroke="none" d="M 796.8373251423759 324.209517756016 L 807 320 L 796.8373251423758 315.790482243984"/></g><g transform="translate(-38,10) scale(1,1)"><path fill="none" stroke="#000000" d="M 796.8373251423759 324.209517756016 L 807 320 L 796.8373251423758 315.790482243984 L 796.8373251423759 324.209517756016" stroke-miterlimit="10"/></g><g transform="translate(-38,10) scale(1,1)"><g><path fill="none" stroke="none"/><text fill="#000000" stroke="none" font-family="Arial" font-size="13px" font-style="normal" font-weight="normal" text-decoration="none" x="507" y="316">12 : get_profile</text></g></g><g transform="translate(-38,10) scale(1,1)"><rect fill="#ffffff" stroke="none" x="807" y="320" width="13" height="28"/></g><g transform="translate(-38,10) scale(1,1)"><path fill="none" stroke="#000000" d="M 807 320 L 820 320 L 820 348 L 807 348 L 807 320 Z Z" stroke-miterlimit="10"/></g><g transform="translate(-38,10) scale(1,1)"><path fill="none" stroke="#000000" d="M 122 232 L 242 232" stroke-miterlimit="10"/></g><g transform="translate(-38,10) scale(1,1)"><path fill="#000000" stroke="none" d="M 231.83732514237585 236.209517756016 L 242 232 L 231.83732514237585 227.790482243984"/></g><g transform="translate(-38,10) scale(1,1)"><path fill="none" stroke="#000000" d="M 231.83732514237585 236.209517756016 L 242 232 L 231.83732514237585 227.790482243984 L 231.83732514237585 236.209517756016" stroke-miterlimit="10"/></g><g transform="translate(-38,10) scale(1,1)"><g><path fill="none" stroke="none"/><text fill="#000000" stroke="none" font-family="Arial" font-size="13px" font-style="normal" font-weight="normal" text-decoration="none" x="127" y="229">4 : Twitter_Account</text></g></g><g transform="translate(-38,10) scale(1,1)"><rect fill="#ffffff" stroke="none" x="242" y="232" width="13" height="28"/></g><g transform="translate(-38,10) scale(1,1)"><path fill="none" stroke="#000000" d="M 242 232 L 255 232 L 255 260 L 242 260 L 242 232 Z Z" stroke-miterlimit="10"/></g><g transform="translate(-38,10) scale(1,1)"><path fill="none" stroke="#000000" d="M 255 256 L 349 256" stroke-miterlimit="10"/></g><g transform="translate(-38,10) scale(1,1)"><path fill="#000000" stroke="none" d="M 338.83732514237585 260.209517756016 L 349 256 L 338.83732514237585 251.790482243984"/></g><g transform="translate(-38,10) scale(1,1)"><path fill="none" stroke="#000000" d="M 338.83732514237585 260.209517756016 L 349 256 L 338.83732514237585 251.790482243984 L 338.83732514237585 260.209517756016" stroke-miterlimit="10"/></g><g transform="translate(-38,10) scale(1,1)"><g><path fill="none" stroke="none"/><text fill="#000000" stroke="none" font-family="Arial" font-size="13px" font-style="normal" font-weight="normal" text-decoration="none" x="266" y="253">5 : send_info(Account)</text></g></g><g transform="translate(-38,10) scale(1,1)"><rect fill="#ffffff" stroke="none" x="349" y="256" width="13" height="28"/></g><g transform="translate(-38,10) scale(1,1)"><path fill="none" stroke="#000000" d="M 349 256 L 362 256 L 362 284 L 349 284 L 349 256 Z Z" stroke-miterlimit="10"/></g><g transform="translate(-38,10) scale(1,1)"><path fill="none" stroke="#000000" d="M 807 296 L 481 296" stroke-miterlimit="10" stroke-dasharray="3"/></g><g transform="translate(-38,10) scale(1,1)"><path fill="none" stroke="#000000" d="M 491.16267485762415 291.790482243984 L 481 296 L 491.16267485762415 300.209517756016" stroke-miterlimit="10"/></g><g transform="translate(-38,10) scale(1,1)"><g><path fill="none" stroke="none"/><text fill="#000000" stroke="none" font-family="Arial" font-size="13px" font-style="normal" font-weight="normal" text-decoration="none" x="511" y="292">7 : OK</text></g></g><g transform="translate(-38,10) scale(1,1)"><path fill="none" stroke="#000000" d="M 712 416 L 481 416" stroke-miterlimit="10" stroke-dasharray="3"/></g><g transform="translate(-38,10) scale(1,1)"><path fill="none" stroke="#000000" d="M 491.16267485762415 411.790482243984 L 481 416 L 491.16267485762415 420.209517756016" stroke-miterlimit="10"/></g><g transform="translate(-38,10) scale(1,1)"><g><path fill="none" stroke="none"/><text fill="#000000" stroke="none" font-family="Arial" font-size="13px" font-style="normal" font-weight="normal" text-decoration="none" x="495" y="412">13 : OK</text></g></g><g transform="translate(-38,10) scale(1,1)"><path fill="none" stroke="#000000" d="M 122 472 L 242 472" stroke-miterlimit="10"/></g><g transform="translate(-38,10) scale(1,1)"><path fill="#000000" stroke="none" d="M 231.83732514237585 476.209517756016 L 242 472 L 231.83732514237585 467.790482243984"/></g><g transform="translate(-38,10) scale(1,1)"><path fill="none" stroke="#000000" d="M 231.83732514237585 476.209517756016 L 242 472 L 231.83732514237585 467.790482243984 L 231.83732514237585 476.209517756016" stroke-miterlimit="10"/></g><g transform="translate(-38,10) scale(1,1)"><g><path fill="none" stroke="none"/><text fill="#000000" stroke="none" font-family="Arial" font-size="13px" font-style="normal" font-weight="normal" text-decoration="none" x="119" y="469">17 : Type_info(profile)</text></g></g><g transform="translate(-38,10) scale(1,1)"><rect fill="#ffffff" stroke="none" x="242" y="472" width="13" height="28"/></g><g transform="translate(-38,10) scale(1,1)"><path fill="none" stroke="#000000" d="M 242 472 L 255 472 L 255 500 L 242 500 L 242 472 Z Z" stroke-miterlimit="10"/></g><g transform="translate(-38,10) scale(1,1)"><path fill="none" stroke="#000000" d="M 481 424 L 249 424" stroke-miterlimit="10" stroke-dasharray="3"/></g><g transform="translate(-38,10) scale(1,1)"><path fill="none" stroke="#000000" d="M 259.16267485762415 419.790482243984 L 249 424 L 259.16267485762415 428.209517756016" stroke-miterlimit="10"/></g><g transform="translate(-38,10) scale(1,1)"><g><path fill="none" stroke="none"/><text fill="#000000" stroke="none" font-family="Arial" font-size="13px" font-style="normal" font-weight="normal" text-decoration="none" x="279" y="420">14 : OK</text></g></g><g transform="translate(-38,10) scale(1,1)"><path fill="none" stroke="#000000" d="M 249 304 L 122 304" stroke-miterlimit="10" stroke-dasharray="3"/></g><g transform="translate(-38,10) scale(1,1)"><path fill="none" stroke="#000000" d="M 132.16267485762415 299.790482243984 L 122 304 L 132.16267485762415 308.209517756016" stroke-miterlimit="10"/></g><g transform="translate(-38,10) scale(1,1)"><g><path fill="none" stroke="none"/><text fill="#000000" stroke="none" font-family="Arial" font-size="13px" font-style="normal" font-weight="normal" text-decoration="none" x="166" y="321">8 : OK</text></g></g></g></svg>