<svg version="1.1" xmlns="http://www.w3.org/2000/svg" xmlns:xlink="http://www.w3.org/1999/xlink" width="876" height="719"><defs/><g><g transform="translate(2,5) scale(1,1)"><path fill="none" stroke="#000000" d="M 8 5 L 864 5 L 864 704 L 8 704 L 8 5" stroke-miterlimit="10"/></g><g transform="translate(2,5) scale(1,1)"><path fill="#ffffff" stroke="none" d="M 8 5 L 8 27 L 178.62890625 27 L 189.62890625 16 L 189.62890625 5 L 8 5"/></g><g transform="translate(2,5) scale(1,1)"><path fill="none" stroke="#000000" d="M 8 5 L 8 27 L 178.62890625 27 L 189.62890625 16 L 189.62890625 5 L 8 5 L 8 5" stroke-miterlimit="10"/></g><g transform="translate(2,5) scale(1,1)"><g><path fill="none" stroke="none"/><text fill="#000000" stroke="none" font-family="Arial" font-size="13px" font-style="normal" font-weight="normal" text-decoration="none" x="78.97900390625" y="22.5">View/Edit Profile</text></g></g><g transform="translate(2,5) scale(1,1)"><g><path fill="none" stroke="none"/><text fill="#000000" stroke="none" font-family="Arial" font-size="13px" font-style="normal" font-weight="bold" text-decoration="none" x="13" y="22.5">interaction</text></g></g><g transform="translate(2,5) scale(1,1)"><path fill="#ffffff" stroke="none" d="M 82.8631454190341 47.3 C 82.8631454190341 43.82060576 85.74154714121592 41 89.292236328125 41 C 92.84292551503408 41 95.7213272372159 43.82060576 95.7213272372159 47.3 C 95.7213272372159 50.779394239999995 92.84292551503408 53.6 89.292236328125 53.6 C 85.74154714121592 53.6 82.8631454190341 50.779394239999995 82.8631454190341 47.3 Z"/></g><g transform="translate(2,5) scale(1,1)"><path fill="none" stroke="#000000" d="M 82.8631454190341 47.3 C 82.8631454190341 43.82060576 85.74154714121592 41 89.292236328125 41 C 92.84292551503408 41 95.7213272372159 43.82060576 95.7213272372159 47.3 C 95.7213272372159 50.779394239999995 92.84292551503408 53.6 89.292236328125 53.6 C 85.74154714121592 53.6 82.8631454190341 50.779394239999995 82.8631454190341 47.3 Z" stroke-miterlimit="10"/></g><g transform="translate(2,5) scale(1,1)"><path fill="none" stroke="#000000" d="M 89.292236328125 53.6 L 89.292236328125 66.4" stroke-miterlimit="10"/></g><g transform="translate(2,5) scale(1,1)"><path fill="none" stroke="#000000" d="M 82.48496360085227 58.4 L 96.09950905539773 58.4" stroke-miterlimit="10"/></g><g transform="translate(2,5) scale(1,1)"><path fill="none" stroke="#000000" d="M 89.292236328125 66.4 L 79.83769087357955 79" stroke-miterlimit="10"/></g><g transform="translate(2,5) scale(1,1)"><path fill="none" stroke="#000000" d="M 89.292236328125 66.4 L 98.74678178267045 79" stroke-miterlimit="10"/></g><g transform="translate(2,5) scale(1,1)"><g><path fill="none" stroke="none"/><text fill="#000000" stroke="none" font-family="Arial" font-size="13px" font-style="normal" font-weight="bold" text-decoration="none" x="47.74365234375" y="99.5">Lifeline1: User</text></g></g><g transform="translate(2,5) scale(1,1)"><path fill="none" stroke="#000000" d="M 90.5 105 L 90.5 496" stroke-miterlimit="10" stroke-dasharray="3"/></g><g transform="translate(2,5) scale(1,1)"><rect fill="#C0C0C0" stroke="none" x="199" y="47" width="73.18994140625" height="39" opacity="0.2"/></g><g transform="translate(2,5) scale(1,1)"><rect fill="#ffffff" stroke="none" x="192" y="40" width="73.18994140625" height="39"/></g><g transform="translate(2,5) scale(1,1)"><path fill="none" stroke="#000000" d="M 192 40 L 265.18994140625 40 L 265.18994140625 79 L 192 79 L 192 40 Z Z" stroke-miterlimit="10"/></g><g transform="translate(2,5) scale(1,1)"><g><path fill="none" stroke="none"/><text fill="#000000" stroke="none" font-family="Arial" font-size="13px" font-style="normal" font-weight="bold" text-decoration="none" x="203.302734375" y="59.5">Interface</text></g></g><g transform="translate(2,5) scale(1,1)"><path fill="none" stroke="#000000" d="M 229.5 80 L 229.5 496" stroke-miterlimit="10" stroke-dasharray="3"/></g><g transform="translate(2,5) scale(1,1)"><rect fill="#C0C0C0" stroke="none" x="343" y="47" width="97.72998046875" height="39" opacity="0.2"/></g><g transform="translate(2,5) scale(1,1)"><rect fill="#ffffff" stroke="none" x="336" y="40" width="97.72998046875" height="39"/></g><g transform="translate(2,5) scale(1,1)"><path fill="none" stroke="#000000" d="M 336 40 L 433.72998046875 40 L 433.72998046875 79 L 336 79 L 336 40 Z Z" stroke-miterlimit="10"/></g><g transform="translate(2,5) scale(1,1)"><g><path fill="none" stroke="none"/><text fill="#000000" stroke="none" font-family="Arial" font-size="13px" font-style="normal" font-weight="bold" text-decoration="none" x="348.727783203125" y="59.5">Authenticate</text></g></g><g transform="translate(2,5) scale(1,1)"><path fill="none" stroke="#000000" d="M 385.5 80 L 385.5 496" stroke-miterlimit="10" stroke-dasharray="3"/></g><g transform="translate(2,5) scale(1,1)"><rect fill="#C0C0C0" stroke="none" x="455" y="47" width="125.88818359375" height="39" opacity="0.2"/></g><g transform="translate(2,5) scale(1,1)"><rect fill="#ffffff" stroke="none" x="448" y="40" width="125.88818359375" height="39"/></g><g transform="translate(2,5) scale(1,1)"><path fill="none" stroke="#000000" d="M 448 40 L 573.88818359375 40 L 573.88818359375 79 L 448 79 L 448 40 Z Z" stroke-miterlimit="10"/></g><g transform="translate(2,5) scale(1,1)"><g><path fill="none" stroke="none"/><text fill="#000000" stroke="none" font-family="Arial" font-size="13px" font-style="normal" font-weight="bold" text-decoration="none" x="462.536865234375" y="59.5">Profile Controllor</text></g></g><g transform="translate(2,5) scale(1,1)"><path fill="none" stroke="#000000" d="M 511.5 80 L 511.5 496" stroke-miterlimit="10" stroke-dasharray="3"/></g><g transform="translate(2,5) scale(1,1)"><rect fill="#C0C0C0" stroke="none" x="623" y="47" width="110.00634765625" height="39" opacity="0.2"/></g><g transform="translate(2,5) scale(1,1)"><rect fill="#ffffff" stroke="none" x="616" y="40" width="110.00634765625" height="39"/></g><g transform="translate(2,5) scale(1,1)"><path fill="none" stroke="#000000" d="M 616 40 L 726.00634765625 40 L 726.00634765625 79 L 616 79 L 616 40 Z Z" stroke-miterlimit="10"/></g><g transform="translate(2,5) scale(1,1)"><g><path fill="none" stroke="none"/><text fill="#000000" stroke="none" font-family="Arial" font-size="13px" font-style="normal" font-weight="bold" text-decoration="none" x="628.369140625" y="59.5">DB_Connector</text></g></g><g transform="translate(2,5) scale(1,1)"><path fill="none" stroke="#000000" d="M 672.5 80 L 672.5 496" stroke-miterlimit="10" stroke-dasharray="3"/></g><g transform="translate(2,5) scale(1,1)"><path fill="none" stroke="#000000" d="M 672 357 L 511 357" stroke-miterlimit="10" stroke-dasharray="3"/></g><g transform="translate(2,5) scale(1,1)"><path fill="none" stroke="#000000" d="M 521.1626748576241 352.790482243984 L 511 357 L 521.1626748576241 361.209517756016" stroke-miterlimit="10"/></g><g transform="translate(2,5) scale(1,1)"><g><path fill="none" stroke="none"/><text fill="#000000" stroke="none" font-family="Arial" font-size="13px" font-style="normal" font-weight="normal" text-decoration="none" x="568" y="374">63 : OK</text></g></g><g transform="translate(2,5) scale(1,1)"><path fill="none" stroke="#000000" d="M 235 150 L 378 150" stroke-miterlimit="10"/></g><g transform="translate(2,5) scale(1,1)"><path fill="#000000" stroke="none" d="M 367.83732514237585 154.209517756016 L 378 150 L 367.83732514237585 145.790482243984"/></g><g transform="translate(2,5) scale(1,1)"><path fill="none" stroke="#000000" d="M 367.83732514237585 154.209517756016 L 378 150 L 367.83732514237585 145.790482243984 L 367.83732514237585 154.209517756016" stroke-miterlimit="10"/></g><g transform="translate(2,5) scale(1,1)"><g><path fill="none" stroke="none"/><text fill="#000000" stroke="none" font-family="Arial" font-size="13px" font-style="normal" font-weight="normal" text-decoration="none" x="272" y="147">64 : request</text></g></g><g transform="translate(2,5) scale(1,1)"><rect fill="#ffffff" stroke="none" x="378" y="150" width="13" height="28"/></g><g transform="translate(2,5) scale(1,1)"><path fill="none" stroke="#000000" d="M 378 150 L 391 150 L 391 178 L 378 178 L 378 150 Z Z" stroke-miterlimit="10"/></g><g transform="translate(2,5) scale(1,1)"><path fill="none" stroke="#000000" d="M 391 171 L 504 171" stroke-miterlimit="10"/></g><g transform="translate(2,5) scale(1,1)"><path fill="#000000" stroke="none" d="M 493.83732514237585 175.209517756016 L 504 171 L 493.83732514237585 166.790482243984"/></g><g transform="translate(2,5) scale(1,1)"><path fill="none" stroke="#000000" d="M 493.83732514237585 175.209517756016 L 504 171 L 493.83732514237585 166.790482243984 L 493.83732514237585 175.209517756016" stroke-miterlimit="10"/></g><g transform="translate(2,5) scale(1,1)"><g><path fill="none" stroke="none"/><text fill="#000000" stroke="none" font-family="Arial" font-size="13px" font-style="normal" font-weight="normal" text-decoration="none" x="425" y="168">60 : OK</text></g></g><g transform="translate(2,5) scale(1,1)"><rect fill="#ffffff" stroke="none" x="504" y="171" width="13" height="28"/></g><g transform="translate(2,5) scale(1,1)"><path fill="none" stroke="#000000" d="M 504 171 L 517 171 L 517 199 L 504 199 L 504 171 Z Z" stroke-miterlimit="10"/></g><g transform="translate(2,5) scale(1,1)"><path fill="none" stroke="#000000" d="M 229 456 L 90 456" stroke-miterlimit="10" stroke-dasharray="3"/></g><g transform="translate(2,5) scale(1,1)"><path fill="none" stroke="#000000" d="M 100.16267485762415 451.790482243984 L 90 456 L 100.16267485762415 460.209517756016" stroke-miterlimit="10"/></g><g transform="translate(2,5) scale(1,1)"><g><path fill="none" stroke="none"/><text fill="#000000" stroke="none" font-family="Arial" font-size="13px" font-style="normal" font-weight="normal" text-decoration="none" x="127" y="473">47 : Edited</text></g></g><g transform="translate(2,5) scale(1,1)"><path fill="none" stroke="#000000" d="M 235 304 L 504 304" stroke-miterlimit="10"/></g><g transform="translate(2,5) scale(1,1)"><path fill="#000000" stroke="none" d="M 493.83732514237585 308.209517756016 L 504 304 L 493.83732514237585 299.790482243984"/></g><g transform="translate(2,5) scale(1,1)"><path fill="none" stroke="#000000" d="M 493.83732514237585 308.209517756016 L 504 304 L 493.83732514237585 299.790482243984 L 493.83732514237585 308.209517756016" stroke-miterlimit="10"/></g><g transform="translate(2,5) scale(1,1)"><g><path fill="none" stroke="none"/><text fill="#000000" stroke="none" font-family="Arial" font-size="13px" font-style="normal" font-weight="normal" text-decoration="none" x="292" y="300">45 : request</text></g></g><g transform="translate(2,5) scale(1,1)"><rect fill="#ffffff" stroke="none" x="504" y="304" width="13" height="28"/></g><g transform="translate(2,5) scale(1,1)"><path fill="none" stroke="#000000" d="M 504 304 L 517 304 L 517 332 L 504 332 L 504 304 Z Z" stroke-miterlimit="10"/></g><g transform="translate(2,5) scale(1,1)"><path fill="none" stroke="#000000" d="M 90 280 L 222 280" stroke-miterlimit="10"/></g><g transform="translate(2,5) scale(1,1)"><path fill="#000000" stroke="none" d="M 211.83732514237585 284.209517756016 L 222 280 L 211.83732514237585 275.790482243984"/></g><g transform="translate(2,5) scale(1,1)"><path fill="none" stroke="#000000" d="M 211.83732514237585 284.209517756016 L 222 280 L 211.83732514237585 275.790482243984 L 211.83732514237585 284.209517756016" stroke-miterlimit="10"/></g><g transform="translate(2,5) scale(1,1)"><g><path fill="none" stroke="none"/><text fill="#000000" stroke="none" font-family="Arial" font-size="13px" font-style="normal" font-weight="normal" text-decoration="none" x="133" y="277">41 : Edit</text></g></g><g transform="translate(2,5) scale(1,1)"><rect fill="#ffffff" stroke="none" x="222" y="280" width="13" height="28"/></g><g transform="translate(2,5) scale(1,1)"><path fill="none" stroke="#000000" d="M 222 280 L 235 280 L 235 308 L 222 308 L 222 280 Z Z" stroke-miterlimit="10"/></g><g transform="translate(2,5) scale(1,1)"><path fill="none" stroke="#000000" d="M 517 328 L 665 328" stroke-miterlimit="10"/></g><g transform="translate(2,5) scale(1,1)"><path fill="#000000" stroke="none" d="M 654.8373251423759 332.209517756016 L 665 328 L 654.8373251423758 323.790482243984"/></g><g transform="translate(2,5) scale(1,1)"><path fill="none" stroke="#000000" d="M 654.8373251423759 332.209517756016 L 665 328 L 654.8373251423758 323.790482243984 L 654.8373251423759 332.209517756016" stroke-miterlimit="10"/></g><g transform="translate(2,5) scale(1,1)"><g><path fill="none" stroke="none"/><text fill="#000000" stroke="none" font-family="Arial" font-size="13px" font-style="normal" font-weight="normal" text-decoration="none" x="557" y="325">13 : request</text></g></g><g transform="translate(2,5) scale(1,1)"><rect fill="#ffffff" stroke="none" x="665" y="328" width="13" height="28"/></g><g transform="translate(2,5) scale(1,1)"><path fill="none" stroke="#000000" d="M 665 328 L 678 328 L 678 356 L 665 356 L 665 328 Z Z" stroke-miterlimit="10"/></g><g transform="translate(2,5) scale(1,1)"><path fill="none" stroke="#000000" d="M 504 443 L 229 443" stroke-miterlimit="10" stroke-dasharray="3"/></g><g transform="translate(2,5) scale(1,1)"><path fill="none" stroke="#000000" d="M 239.16267485762415 438.790482243984 L 229 443 L 239.16267485762415 447.209517756016" stroke-miterlimit="10"/></g><g transform="translate(2,5) scale(1,1)"><g><path fill="none" stroke="none"/><text fill="#000000" stroke="none" font-family="Arial" font-size="13px" font-style="normal" font-weight="normal" text-decoration="none" x="295" y="461">12 : OK</text></g></g><g transform="translate(2,5) scale(1,1)"><path fill="none" stroke="#000000" d="M 90 135 L 222 135" stroke-miterlimit="10"/></g><g transform="translate(2,5) scale(1,1)"><path fill="#000000" stroke="none" d="M 211.83732514237585 139.209517756016 L 222 135 L 211.83732514237585 130.790482243984"/></g><g transform="translate(2,5) scale(1,1)"><path fill="none" stroke="#000000" d="M 211.83732514237585 139.209517756016 L 222 135 L 211.83732514237585 130.790482243984 L 211.83732514237585 139.209517756016" stroke-miterlimit="10"/></g><g transform="translate(2,5) scale(1,1)"><g><path fill="none" stroke="none"/><text fill="#000000" stroke="none" font-family="Arial" font-size="13px" font-style="normal" font-weight="normal" text-decoration="none" x="109" y="132">1 : Request_edit</text></g></g><g transform="translate(2,5) scale(1,1)"><rect fill="#ffffff" stroke="none" x="222" y="135" width="13" height="28"/></g><g transform="translate(2,5) scale(1,1)"><path fill="none" stroke="#000000" d="M 222 135 L 235 135 L 235 163 L 222 163 L 222 135 Z Z" stroke-miterlimit="10"/></g><g transform="translate(2,5) scale(1,1)"><path fill="none" stroke="#000000" d="M 511 200 L 229 200" stroke-miterlimit="10" stroke-dasharray="3"/></g><g transform="translate(2,5) scale(1,1)"><path fill="none" stroke="#000000" d="M 239.16267485762415 195.790482243984 L 229 200 L 239.16267485762415 204.209517756016" stroke-miterlimit="10"/></g><g transform="translate(2,5) scale(1,1)"><g><path fill="none" stroke="none"/><text fill="#000000" stroke="none" font-family="Arial" font-size="13px" font-style="normal" font-weight="normal" text-decoration="none" x="295" y="217">4 : OK</text></g></g><g transform="translate(2,5) scale(1,1)"><path fill="none" stroke="#000000" d="M 229 222 L 96 222" stroke-miterlimit="10"/></g><g transform="translate(2,5) scale(1,1)"><path fill="#000000" stroke="none" d="M 106.16267485762415 217.790482243984 L 96 222 L 106.16267485762415 226.209517756016"/></g><g transform="translate(2,5) scale(1,1)"><path fill="none" stroke="#000000" d="M 106.16267485762415 217.790482243984 L 96 222 L 106.16267485762415 226.209517756016 L 106.16267485762415 217.790482243984" stroke-miterlimit="10"/></g><g transform="translate(2,5) scale(1,1)"><g><path fill="none" stroke="none"/><text fill="#000000" stroke="none" font-family="Arial" font-size="13px" font-style="normal" font-weight="normal" text-decoration="none" x="109" y="239">5 : Display_Profile</text></g></g><g transform="translate(2,5) scale(1,1)"><rect fill="#ffffff" stroke="none" x="83" y="222" width="13" height="58"/></g><g transform="translate(2,5) scale(1,1)"><path fill="none" stroke="#000000" d="M 83 222 L 96 222 L 96 280 L 83 280 L 83 222 Z Z" stroke-miterlimit="10"/></g><g transform="translate(2,5) scale(1,1)"><path fill="none" stroke="#000000" d="M 511 400 L 541 400 L 541 420 L 517 420" stroke-miterlimit="10"/></g><g transform="translate(2,5) scale(1,1)"><path fill="#000000" stroke="none" d="M 527.1626748576241 415.790482243984 L 517 420 L 527.1626748576241 424.209517756016"/></g><g transform="translate(2,5) scale(1,1)"><path fill="none" stroke="#000000" d="M 527.1626748576241 415.790482243984 L 517 420 L 527.1626748576241 424.209517756016 L 527.1626748576241 415.790482243984" stroke-miterlimit="10"/></g><g transform="translate(2,5) scale(1,1)"><g><path fill="none" stroke="none"/><text fill="#000000" stroke="none" font-family="Arial" font-size="13px" font-style="normal" font-weight="normal" text-decoration="none" x="543" y="416">10 : UpdateInfo</text></g></g><g transform="translate(2,5) scale(1,1)"><rect fill="#ffffff" stroke="none" x="504" y="420" width="13" height="28"/></g><g transform="translate(2,5) scale(1,1)"><path fill="none" stroke="#000000" d="M 504 420 L 517 420 L 517 448 L 504 448 L 504 420 Z Z" stroke-miterlimit="10"/></g></g></svg>